<svg width="64" height="64" viewBox="0 0 64 64" fill="none" xmlns="http://www.w3.org/2000/svg">
    <path
        d="M60 32C60 16.536 47.464 4 32 4C16.536 4 4 16.536 4 32C4 47.464 16.536 60 32 60C47.464 60 60 47.464 60 32Z"
        fill="#1B6698" />
    <mask id="mask0_2901_2993" style="mask-type:luminance" maskUnits="userSpaceOnUse" x="13" y="13"
        width="38" height="38">
        <path d="M50.25 13.75H13.6875V50.3125H50.25V13.75Z" fill="white" />
    </mask>
    <g mask="url(#mask0_2901_2993)">
        <path fill-rule="evenodd" clip-rule="evenodd"
            d="M29.596 17.4737C29.0364 19.2953 27.887 23.2802 27.2448 27.2059C28.9117 27.475 30.5399 27.6469 31.9688 27.6469C33.3976 27.6469 35.0258 27.475 36.6928 27.2059C36.0505 23.2802 34.9011 19.2953 34.3415 17.4737C33.5697 17.349 32.7772 17.284 31.9688 17.284C31.1603 17.284 30.3678 17.349 29.596 17.4737ZM37.0474 18.1816C37.6618 20.3084 38.5131 23.5431 39.0448 26.7714C41.3399 26.2986 43.5053 25.7215 45.0779 25.2688C43.3924 22.0086 40.5262 19.4577 37.0474 18.1816ZM46.004 27.4904C44.3424 27.9741 41.9355 28.6237 39.3717 29.1454C39.4785 30.1367 39.5416 31.1108 39.5416 32.0312C39.5416 33.3743 39.4072 34.8361 39.1967 36.3057C42.2657 35.6659 45.0807 34.8481 46.5263 34.404C46.651 33.6322 46.7159 32.8397 46.7159 32.0312C46.7159 30.4454 46.4661 28.9196 46.004 27.4904ZM45.8185 37.1099C44.0292 37.6267 41.4582 38.3107 38.7685 38.831C38.2482 41.5207 37.5642 44.0917 37.0474 45.881C41.106 44.3921 44.3296 41.1685 45.8185 37.1099ZM34.3417 46.5888C34.7856 45.1432 35.6034 42.3282 36.2432 39.2592C34.7736 39.4697 33.3118 39.6041 31.9688 39.6041C30.6257 39.6041 29.1639 39.4697 27.6943 39.2592C28.3341 42.3282 29.1519 45.1432 29.596 46.5888C30.3678 46.7135 31.1603 46.7784 31.9688 46.7784C32.7772 46.7784 33.5697 46.7135 34.3417 46.5888ZM26.8901 45.881C26.3733 44.0917 25.6893 41.5207 25.169 38.831C22.4792 38.3107 19.9082 37.6267 18.119 37.1099C19.6079 41.1685 22.8314 44.3921 26.8901 45.881ZM17.4112 34.404C18.8568 34.8481 21.6719 35.6659 24.7408 36.3057C24.5303 34.8361 24.3958 33.3743 24.3958 32.0312C24.3958 31.1108 24.4589 30.1367 24.5657 29.1454C22.0019 28.6237 19.5951 27.9741 17.9335 27.4904C17.4715 28.9196 17.2215 30.4454 17.2215 32.0312C17.2215 32.8397 17.2865 33.6322 17.4112 34.404ZM18.8596 25.2688C20.4322 25.7215 22.5976 26.2986 24.8927 26.7714C25.4243 23.5431 26.2757 20.3084 26.89 18.1816C23.4113 19.4577 20.5451 22.0086 18.8596 25.2688ZM26.925 29.5767C26.8369 30.4383 26.7873 31.2647 26.7873 32.0312C26.7873 33.4631 26.9601 35.0964 27.2306 36.7694C28.9036 37.04 30.5369 37.2128 31.9688 37.2128C33.4006 37.2128 35.0339 37.04 36.7069 36.7694C36.9775 35.0964 37.1503 33.4631 37.1503 32.0312C37.1503 31.2647 37.1006 30.4383 37.0125 29.5767C35.2862 29.8532 33.5452 30.0384 31.9688 30.0384C30.3923 30.0384 28.6513 29.8532 26.925 29.5767ZM28.4233 15.26C29.5683 15.0191 30.7544 14.8926 31.9688 14.8926C33.1831 14.8926 34.3692 15.0191 35.5142 15.26C41.1258 16.4408 45.7225 20.3632 47.843 25.5593C48.6586 27.5578 49.1074 29.7435 49.1074 32.0312C49.1074 33.2456 48.981 34.4317 48.74 35.5767C47.3468 42.1981 42.1356 47.4093 35.5142 48.8025C34.3692 49.0435 33.1831 49.1699 31.9688 49.1699C30.7544 49.1699 29.5683 49.0435 28.4233 48.8025C21.802 47.4093 16.5907 42.1981 15.1975 35.5767C14.9566 34.4317 14.8301 33.2456 14.8301 32.0312C14.8301 29.7418 15.2796 27.5544 16.0964 25.5546C18.2177 20.3609 22.8133 16.4405 28.4233 15.26Z"
            fill="white" />
    </g>
</svg>
