<svg fill="none" height="64" viewBox="0 0 64 64" width="64" xmlns="http://www.w3.org/2000/svg">
    <path
        d="M34.7416 5.33531C36.6875 5.32785 38.6335 5.3474 40.5789 5.39398L41.0962 5.41265C41.6936 5.43398 42.2829 5.46065 42.9949 5.49265C45.8322 5.62598 47.7682 6.07398 49.4669 6.73265C51.2269 7.40998 52.7096 8.32731 54.1922 9.80998C55.5479 11.1423 56.5971 12.7538 57.2669 14.5326C57.9256 16.2313 58.3736 18.17 58.5069 21.0073C58.5389 21.7166 58.5656 22.3086 58.5869 22.906L58.6029 23.4233C58.6503 25.3678 58.6707 27.3129 58.6642 29.258L58.6669 31.2473V34.7406C58.6735 36.6866 58.653 38.6326 58.6056 40.578L58.5896 41.0953C58.5682 41.6926 58.5416 42.282 58.5096 42.994C58.3762 45.8313 57.9229 47.7673 57.2669 49.466C56.5993 51.2467 55.5498 52.8596 54.1922 54.1913C52.8588 55.5468 51.2464 56.596 49.4669 57.266C47.7682 57.9246 45.8322 58.3726 42.9949 58.506C42.2829 58.538 41.6936 58.5646 41.0962 58.586L40.5789 58.602C38.6335 58.6494 36.6875 58.6698 34.7416 58.6633L32.7522 58.666H29.2616C27.3156 58.6725 25.3696 58.6521 23.4242 58.6046L22.9069 58.5886C22.2739 58.5657 21.641 58.539 21.0082 58.5086C18.1709 58.3753 16.2349 57.922 14.5336 57.266C12.7541 56.5976 11.1422 55.5482 9.8109 54.1913C8.45369 52.8587 7.4035 51.2461 6.73357 49.466C6.0749 47.7673 5.6269 45.8313 5.49357 42.994C5.46387 42.3612 5.4372 41.7283 5.41357 41.0953L5.40024 40.578C5.35107 38.6326 5.32885 36.6866 5.33357 34.7406V29.258C5.32613 27.3129 5.34568 25.3678 5.39224 23.4233L5.4109 22.906C5.43224 22.3086 5.4589 21.7166 5.4909 21.0073C5.62424 18.1673 6.07224 16.234 6.7309 14.5326C7.40123 12.753 8.45347 11.1418 9.81357 9.81265C11.144 8.45465 12.7548 7.40351 14.5336 6.73265C16.2349 6.07398 18.1682 5.62598 21.0082 5.49265L22.9069 5.41265L23.4242 5.39931C25.3687 5.35017 27.3138 5.32795 29.2589 5.33265L34.7416 5.33531ZM32.0002 18.6686C30.2336 18.6437 28.4796 18.97 26.8402 19.6288C25.2008 20.2876 23.7086 21.2657 22.4505 22.5061C21.1924 23.7466 20.1933 25.2247 19.5114 26.8547C18.8295 28.4846 18.4783 30.2338 18.4783 32.0006C18.4783 33.7675 18.8295 35.5167 19.5114 37.1466C20.1933 38.7765 21.1924 40.2547 22.4505 41.4952C23.7086 42.7356 25.2008 43.7137 26.8402 44.3725C28.4796 45.0312 30.2336 45.3576 32.0002 45.3326C35.5365 45.3326 38.9278 43.9279 41.4283 41.4274C43.9288 38.9269 45.3336 35.5355 45.3336 31.9993C45.3336 28.4631 43.9288 25.0717 41.4283 22.5712C38.9278 20.0707 35.5365 18.6686 32.0002 18.6686ZM32.0002 24.002C33.0629 23.9824 34.1189 24.1748 35.1064 24.5679C36.0939 24.961 36.9931 25.5469 37.7516 26.2914C38.5102 27.036 39.1127 27.9242 39.5241 28.9042C39.9355 29.8842 40.1474 30.9364 40.1476 31.9993C40.1478 33.0622 39.9362 34.1144 39.5251 35.0946C39.1141 36.0747 38.5118 36.9631 37.7536 37.7079C36.9953 38.4527 36.0962 39.039 35.1088 39.4324C34.1215 39.8258 33.0656 40.0185 32.0029 39.9993C29.8812 39.9993 27.8463 39.1565 26.346 37.6562C24.8458 36.1559 24.0029 34.121 24.0029 31.9993C24.0029 29.8776 24.8458 27.8427 26.346 26.3425C27.8463 24.8422 29.8812 23.9993 32.0029 23.9993L32.0002 24.002ZM46.0002 14.6686C45.14 14.7031 44.3264 15.069 43.7299 15.6899C43.1333 16.3108 42.8002 17.1383 42.8002 17.9993C42.8002 18.8603 43.1333 19.6879 43.7299 20.3087C44.3264 20.9296 45.14 21.2955 46.0002 21.33C46.8843 21.33 47.7321 20.9788 48.3573 20.3537C48.9824 19.7285 49.3336 18.8807 49.3336 17.9966C49.3336 17.1126 48.9824 16.2647 48.3573 15.6396C47.7321 15.0145 46.8843 14.6633 46.0002 14.6633V14.6686Z"
        fill="black" />
</svg>
