<svg fill="none" height="64" viewBox="0 0 64 64" width="64" xmlns="http://www.w3.org/2000/svg">
    <path
        d="M13.2878 19.1928C16.5102 19.1928 19.1225 16.5805 19.1225 13.3581C19.1225 10.1357 16.5102 7.52344 13.2878 7.52344C10.0654 7.52344 7.45312 10.1357 7.45312 13.3581C7.45312 16.5805 10.0654 19.1928 13.2878 19.1928Z"
        fill="black" />
    <path
        d="M24.6321 23.6125V55.9832H34.6828V39.9752C34.6828 35.7512 35.4774 31.6605 40.7148 31.6605C45.8801 31.6605 45.9441 36.4898 45.9441 40.2418V55.9858H56.0001V38.2338C56.0001 29.5138 54.1228 22.8125 43.9308 22.8125C39.0374 22.8125 35.7574 25.4978 34.4161 28.0392H34.2801V23.6125H24.6321ZM8.25342 23.6125H18.3201V55.9832H8.25342V23.6125Z"
        fill="black" />
</svg>
