<svg fill="none" height="64" viewBox="0 0 64 64" width="64" xmlns="http://www.w3.org/2000/svg">
    <g clip-path="url(#clip0_2414_4514)">
        <path
            d="M32 0C23.5131 0 15.3737 3.37142 9.37258 9.37258C3.37142 15.3737 0 23.5131 0 32C0 40.4869 3.37142 48.6263 9.37258 54.6274C15.3737 60.6286 23.5131 64 32 64C40.4869 64 48.6263 60.6286 54.6274 54.6274C60.6286 48.6263 64 40.4869 64 32C64 23.5131 60.6286 15.3737 54.6274 9.37258C48.6263 3.37142 40.4869 0 32 0Z"
            fill="#0288D1" />
        <path
            d="M15.9995 24H22.3995V48H15.9995V24ZM19.1803 20.8H19.1451C17.2347 20.8 15.9995 19.376 15.9995 17.5984C15.9995 15.7824 17.2731 14.4 19.2171 14.4C21.1643 14.4 22.3627 15.7824 22.3995 17.5984C22.3995 19.376 21.1643 20.8 19.1803 20.8ZM49.5995 32.8C49.5995 27.9392 45.6603 24 40.7995 24C37.8203 24 35.1915 25.4848 33.5995 27.7504V24H27.1995V48H33.5995V35.2C33.5995 32.5488 35.7483 30.4 38.3995 30.4C41.0507 30.4 43.1995 32.5488 43.1995 35.2V48H49.5995C49.5995 48 49.5995 33.4736 49.5995 32.8Z"
            fill="white" />
    </g>
    <defs>
        <clipPath id="clip0_2414_4514">
            <rect fill="white" height="64" width="64" />
        </clipPath>
    </defs>
</svg>
