<svg width="512" height="512" viewBox="0 0 512 512" fill="none" xmlns="http://www.w3.org/2000/svg">
<g clip-path="url(#clip0_1300_408)">
<path d="M125.49 208.623L152.07 91.105C154.311 81.14 163.626 78.133 163.626 78.133L280.206 37.3987C291.832 33.3428 297.505 39.3218 297.505 39.3218L344.186 81.4197C347.373 84.2868 349.684 87.9931 350.91 92.119C352.1 96.2449 352.135 100.616 350.98 104.741C349.824 108.867 347.548 112.609 344.396 115.511C341.244 118.413 337.357 120.406 333.155 121.245L223.264 143.028L253.976 170.895C261.47 178.378 257.688 189.357 257.688 189.357L233.91 302.084C233.91 302.084 232.439 315.161 223.229 306.944L129.938 223.692C122.794 217.329 125.49 208.623 125.49 208.623V208.623Z" fill="#F9EDEB"/>
<path d="M386.174 303.378L359.594 420.86C357.353 430.825 348.038 433.832 348.038 433.832L231.459 474.566C219.832 478.622 214.159 472.643 214.159 472.643L167.478 430.545C164.292 427.678 161.98 423.972 160.755 419.846C159.564 415.72 159.529 411.35 160.685 407.224C161.84 403.098 164.117 399.357 167.268 396.455C170.42 393.518 174.307 391.559 178.509 390.72L288.4 368.937L257.688 341.07C250.194 333.587 253.976 322.608 253.976 322.608L277.754 209.881C277.754 209.881 279.225 196.804 288.435 205.021L381.727 288.273C388.87 294.636 386.174 303.343 386.174 303.343V303.378Z" fill="#F9EDEB"/>
</g>
<defs>
<clipPath id="clip0_1300_408">
<rect width="261.699" height="440" fill="white" transform="translate(125 36)"/>
</clipPath>
</defs>
</svg>
