<svg width="512" height="138" viewBox="0 0 512 138" fill="none" xmlns="http://www.w3.org/2000/svg">
<g clip-path="url(#clip0_1300_401)">
<path d="M54.8466 78.8258C52.0905 67.7037 45.7038 61.5063 39.5151 61.5063C33.9205 61.5063 29.7781 64.5637 29.7781 71.6369C29.7781 79.5034 36.858 82.9574 43.8389 86.494C51.4964 90.2289 60.2596 94.2778 60.2596 106.672C60.2596 116.423 55.1436 127.049 36.5775 127.049C30.7848 127.049 23.1108 126.256 17.7968 121.629L16.328 104.508H18.3744C22.0051 116.423 29.2831 124.488 36.561 124.488C45.2087 124.488 46.8755 118.687 46.8755 114.06C46.8755 107.565 43.1458 103.929 34.5971 99.5993C26.4445 95.4677 17.4007 91.5345 17.4007 78.644C17.4007 67.0261 24.2826 58.9613 40.0102 58.9613C44.5321 58.9613 51.711 60.0355 56.8105 63.192V78.8423H54.8466V78.8258Z" fill="#F9EDEB"/>
<path d="M82.9533 101.266C82.9533 112.388 86.0064 120.353 94.9511 120.353C100.546 120.353 104.886 118.882 108.517 111.297L110.184 112.09C106.949 120.948 101.14 126.65 90.0332 126.65C72.6387 126.749 68.0178 115.429 68.0178 102.736C68.0178 90.0443 73.6124 78.9221 90.4292 78.9221C108.517 78.9221 110.58 90.8375 110.58 97.7124C110.58 100.869 108.814 101.266 105.464 101.266H82.9533V101.266ZM93.3668 98.6048C95.2317 98.6048 96.1229 98.3074 96.1229 95.845C96.1229 88.6561 95.1492 81.4672 89.9341 81.4672C84.7191 81.4672 82.9533 90.3252 82.9533 98.5883H93.3668V98.6048Z" fill="#F9EDEB"/>
<path d="M159.71 111.694C156.756 122.518 148.801 126.551 139.361 126.551C126.093 126.551 118.039 118.783 118.039 103.232C118.039 87.681 126.687 78.9221 141.622 78.9221C149.676 78.9221 159.017 82.3596 159.017 89.251C159.017 93.3826 154.297 95.1509 150.963 95.1509C148.405 95.1509 146.639 94.0601 146.243 91.6969C145.071 84.9046 144.081 81.4672 140.153 81.4672C136.226 81.4672 132.975 88.1603 132.975 100.274C132.975 116.023 139.361 120.353 144.675 120.353C149.395 120.353 154.61 118.883 158.142 110.999L159.71 111.694V111.694Z" fill="#F9EDEB"/>
<path d="M183.495 118.784C183.495 122.618 183.99 122.816 190.971 123.213V125.477H163.642V123.213C168.659 122.915 169.137 122.618 169.137 118.784V89.0529C169.137 85.4172 168.444 84.6239 167.174 84.3264L164.219 83.9298V81.7649L182.01 79.005L183.083 88.458C188.677 82.0623 191.433 78.9224 195.46 78.9224C199.487 78.9224 202.144 81.3848 202.144 85.7146C202.144 89.2678 199.487 93.8786 195.262 93.8786C193.397 93.8786 192.308 93.0853 191.037 92.1103C188.974 90.4411 187.588 89.4496 186.218 89.4496C184.056 89.4496 183.462 91.5153 183.462 96.0435V118.784H183.495Z" fill="#F9EDEB"/>
<path d="M221.727 101.266C221.727 112.388 224.78 120.353 233.725 120.353C239.319 120.353 243.643 118.882 247.29 111.297L248.957 112.09C245.723 120.948 239.913 126.65 228.807 126.65C211.412 126.749 206.791 115.429 206.791 102.736C206.791 90.0443 212.386 78.9221 229.203 78.9221C247.29 78.9221 249.353 90.8375 249.353 97.7124C249.353 100.869 247.587 101.266 244.237 101.266H221.727V101.266ZM232.14 98.6048C234.005 98.6048 234.896 98.3074 234.896 95.845C234.896 88.6561 233.906 81.4672 228.708 81.4672C223.509 81.4672 221.727 90.3252 221.727 98.5883H232.14V98.6048Z" fill="#F9EDEB"/>
<path d="M273.517 83.5517V112.489C273.517 118.091 275.382 120.851 278.732 120.851C280.696 120.851 282.263 120.356 283.452 119.86L284.046 121.529C278.336 125.66 273.137 126.652 269.605 126.652C264.39 126.652 259.274 123.413 259.274 114.538V83.5352H254.059V80.0812H259.77L268.219 68.4633H273.533V80.0812H282.577V83.5352H273.533L273.517 83.5517Z" fill="#F9EDEB"/>
<path d="M328.447 115.149C328.447 120.471 329.339 121.545 330.807 122.239C331.897 122.636 333.167 122.636 334.356 122.636L334.257 124.107C331.104 125.875 327.177 126.668 322.259 126.668C317.341 126.668 315.377 123.809 314.585 120.768C311.251 122.933 307.703 126.668 301.811 126.668C292.371 126.668 288.245 120.074 288.245 113.084C288.245 107.762 290.407 103.73 297.982 101.763C304.468 100.193 312.043 98.0283 314.288 95.665V89.5669C314.288 84.0471 312.126 81.4856 308.693 81.4856C305.557 81.4856 302.801 83.4522 300.639 92.9052C300.144 95.3676 298.577 96.1443 296.514 96.1443C294.055 96.1443 289.632 94.7726 289.632 90.4262C289.632 85.4023 296.316 78.9075 310.079 78.9075C326.682 78.9075 328.464 86.9723 328.464 92.6903V115.133L328.447 115.149ZM314.288 98.4249C312.027 99.4 308.974 100.986 306.333 102.656C303.775 104.226 302.801 106.391 302.801 110.72C302.801 116.521 305.161 121.148 309.485 121.148C311.251 121.148 314.304 119.959 314.304 115.249V98.4249H314.288Z" fill="#F9EDEB"/>
<path d="M358.142 118.784C358.142 122.618 358.637 122.816 365.618 123.213V125.477H338.289V123.213C343.306 122.915 343.784 122.618 343.784 118.784V89.0529C343.784 85.4172 343.091 84.6239 341.82 84.3264L338.866 83.9298V81.7649L356.657 79.005L357.729 88.458C363.324 82.0623 366.08 78.9224 370.107 78.9224C374.134 78.9224 376.791 81.3848 376.791 85.7146C376.791 89.2678 374.134 93.8786 369.909 93.8786C368.044 93.8786 366.955 93.0853 365.684 92.1103C363.621 90.4411 362.235 89.4496 360.865 89.4496C358.703 89.4496 358.109 91.5153 358.109 96.0435V118.784H358.142Z" fill="#F9EDEB"/>
<path d="M386.052 89.0697C386.052 85.3347 385.359 84.6406 384.089 84.3432L381.233 83.9465V81.7816L399.915 79.0217L400.41 79.3192V118.784C400.41 122.519 400.806 122.915 405.823 123.213V125.477H380.656V123.213C385.376 123.015 386.069 122.519 386.069 118.784V89.0531L386.052 89.0697Z" fill="#F9EDEB"/>
<path d="M451.506 115.149C451.506 120.471 452.397 121.545 453.866 122.239C454.939 122.636 456.226 122.636 457.398 122.636L457.299 124.107C454.147 125.875 450.219 126.668 445.301 126.668C440.383 126.668 438.419 123.809 437.643 120.768C434.31 122.933 430.762 126.668 424.87 126.668C415.43 126.668 411.304 120.074 411.304 113.084C411.304 107.762 413.466 103.73 421.041 101.763C427.527 100.193 435.102 98.0283 437.363 95.665V89.5669C437.363 84.0471 435.201 81.4856 431.768 81.4856C428.616 81.4856 425.877 83.4522 423.715 92.9052C423.22 95.3676 421.652 96.1443 419.589 96.1443C417.13 96.1443 412.707 94.7726 412.707 90.4262C412.707 85.4023 419.391 78.9075 433.155 78.9075C449.773 78.9075 451.539 86.9723 451.539 92.6903V115.133L451.506 115.149ZM437.346 98.4249C435.085 99.4 432.032 100.986 429.392 102.656C426.834 104.226 425.86 106.391 425.86 110.72C425.86 116.521 428.22 121.148 432.544 121.148C434.31 121.148 437.363 119.959 437.363 115.249V98.4249H437.346Z" fill="#F9EDEB"/>
<path d="M480.397 83.5514V112.489C480.397 118.091 482.261 120.851 485.612 120.851C487.575 120.851 489.143 120.355 490.332 119.86L490.926 121.529C485.216 125.66 480.017 126.652 476.485 126.652C471.27 126.652 466.154 123.413 466.154 114.538V83.5349H460.939V80.0809H466.649L475.099 68.463H480.413V80.0809H489.457V83.5349H480.413L480.397 83.5514Z" fill="#F9EDEB"/>
<path d="M327.775 31.7958L321.405 57.8577C320.927 59.6756 321.009 61.1629 322.346 61.1629C324.392 61.1629 328.403 56.4364 330.135 53.5278L332.099 55.0978C329.112 60.7663 324.161 65.8068 318.022 65.8068C314.325 65.8068 313.071 62.6503 314.177 58.2543L320.778 31.7958H314.639L315.497 28.5732H321.554L323.204 21.8801L330.119 17.8643L331.225 18.4923L328.469 28.5732H337.347L336.489 31.7958H327.759H327.775Z" fill="#F9EDEB"/>
<path d="M377.316 55.1C374.725 60.8511 370.318 65.809 364.889 65.809C360.4 65.809 359.146 62.5038 360.565 57.4633L366.456 37.2352C367.315 34.2439 366.456 32.1947 364.179 32.1947C358.122 32.1947 351.207 43.2177 348.93 49.2002C347.115 53.844 345.778 57.3145 343.748 64.867L336.833 65.7264L347.445 18.0152C348.072 15.1727 347.841 14.71 346.025 14.4786L341.85 13.9332L342.329 11.884L356.158 10L356.555 10.3966L348.534 43.2342H348.765C353.32 34.5745 361.027 27.65 368.024 27.65C373.998 27.65 375.187 32.6905 373.371 38.673L367.628 57.3311C366.919 59.6943 366.836 61.2643 368.173 61.2643C370.219 61.2643 373.602 56.1412 374.939 53.4639L377.299 55.1165L377.316 55.1Z" fill="#F9EDEB"/>
<path d="M410.728 55.0109C405.612 63.4393 398.928 65.8025 392.723 65.8025C387.92 65.8025 381.633 63.8359 381.633 53.5236C381.633 47.3758 383.91 40.6827 387.772 35.8075C391.865 30.767 397.212 27.6105 403.961 27.6105C410.101 27.6105 413.005 31.2297 413.005 35.3282C413.005 45.7232 397.129 48.5492 389.571 49.4251C389.488 49.9704 389.488 51.557 389.488 51.9536C389.488 57.6221 391.056 61.7867 396.007 61.7867C401.585 61.7867 405.76 57.2915 408.665 53.3583L410.711 55.0109H410.728ZM406.008 34.7828C406.008 32.2709 404.589 30.5356 402.08 30.5356C396.337 30.5356 390.99 37.3775 389.818 46.5991C399.341 45.1778 406.008 41.79 406.008 34.7828Z" fill="#F9EDEB"/>
</g>
<defs>
<clipPath id="clip0_1300_401">
<rect width="492" height="117.016" fill="white" transform="translate(10 10)"/>
</clipPath>
</defs>
</svg>
