<?xml version="1.0" standalone="no"?>
<!DOCTYPE svg PUBLIC "-//W3C//DTD SVG 1.1//EN" "http://www.w3.org/Graphics/SVG/1.1/DTD/svg11.dtd" >
<svg xmlns="http://www.w3.org/2000/svg" xmlns:xlink="http://www.w3.org/1999/xlink" version="1.1">
<metadata>
Created by FontForge 20170731 at Tue Jul 28 13:23:43 2020
 By Aleksey,,,
Copyright 2017 The Literata Project Authors (https://github.com/googlefonts/literata)
</metadata>
<defs>
<font id="Literata-Bold" horiz-adv-x="663" >
  <font-face 
    font-family="Literata"
    font-weight="700"
    font-stretch="normal"
    units-per-em="1000"
    panose-1="0 0 0 0 0 0 0 0 0 0"
    ascent="800"
    descent="-200"
    x-height="512"
    cap-height="701"
    bbox="-440 -310 1588 1191"
    underline-thickness="50"
    underline-position="-175"
    unicode-range="U+000D-FB02"
  />
<missing-glyph horiz-adv-x="500" 
d="M50 700h400v-700h-400v700zM110 640v-580h280v580h-280z" />
    <glyph glyph-name="fi" unicode="fi" horiz-adv-x="723" 
d="M37 0v70l42 7q19 3 24.5 13t5.5 38v297h-77v71l78 13v30q0 71 33 126t94 86t147 31q57 0 99.5 -9.5t71 -26.5t43 -40t14.5 -49q0 -35 -20 -56t-57 -21q-32 0 -51.5 14t-19.5 39q0 13 5.5 27.5t18.5 34.5q-17 6 -42 11.5t-57 5.5q-34 0 -61.5 -12t-43.5 -38.5t-16 -71.5
v-78h344l14 -8v-379q0 -25 5.5 -34.5t23.5 -12.5l45 -9v-69h-297v70l36 7q18 4 23 13.5t5 36.5v243q0 30 -7.5 42.5t-34.5 12.5h-157v-302q0 -24 7.5 -32t29.5 -13l36 -8v-70h-304z" />
    <glyph glyph-name="fl" unicode="fl" horiz-adv-x="742" 
d="M36 0v70l43 7q21 4 25.5 15t4.5 36v298h-77v71l78 13v25q0 57 17.5 103t51 78t80 49t103.5 17q63 0 108 -14.5t81 -39.5l79 39l15 -12v-630q0 -25 5 -34.5t25 -13.5l44 -8v-69h-300v69l38 7q20 3 24.5 13.5t4.5 37.5v460q0 42 -12.5 68.5t-36 39.5t-57.5 13
q-30 0 -55.5 -11t-41 -38t-15.5 -75v-72h147v-86h-147v-304q0 -24 6.5 -33t29.5 -12l52 -8v-69h-320z" />
    <glyph glyph-name="f_f" unicode="ff" horiz-adv-x="804" 
d="M268 512h219v46q0 63 -25 95t-81 32q-30 0 -56 -11t-41.5 -39t-15.5 -79v-44zM36 0v70l43 7q21 4 25.5 15t4.5 36v298h-77v71l78 13v10q0 55 16.5 99.5t48.5 75.5t78 47.5t107 16.5q52 0 94 -12t80 -40q18 25 43.5 41.5t57 25t69.5 8.5q55 0 94 -15t60 -41.5t21 -63.5
q0 -32 -18 -53t-57 -21q-33 0 -50.5 13.5t-17.5 35.5q0 13 5.5 26t18.5 38q-9 5 -23 8.5t-25 3.5q-24 0 -39 -11.5t-21.5 -35.5t-6.5 -62v-92h139v-87h-139v-302q0 -23 7 -33t30 -12l68 -8v-70h-330v69l36 6q20 4 25 14.5t5 35.5v301h-218v-304q0 -24 6.5 -33t29.5 -12
l52 -8v-69h-320z" />
    <glyph glyph-name="f_k" unicode="fk" horiz-adv-x="1052" 
d="M36 0v70l43 7q21 4 25.5 15t4.5 36v298h-77v71l78 13v25q0 60 18 106.5t51.5 77.5t80 47t103.5 16q43 0 76 -6.5t60.5 -18.5t51.5 -29l79 39l15 -12v-631q0 -24 5 -33.5t23 -13.5l34 -7v-70h-295v70l45 7q20 4 24.5 15t4.5 35v460q0 42 -12 68.5t-34.5 39.5t-56.5 13
q-31 0 -57 -11t-42 -38t-16 -75v-72h147v-86h-147v-304q0 -24 6.5 -33t29.5 -12l52 -8v-69h-320zM932 -11q-29 0 -53.5 8t-45.5 26t-42 47l-136 187v16l139 127q16 13 14 24t-16 12l-43 7l12 69h253v-71l-38 -7q-18 -3 -32.5 -11.5t-31.5 -23.5l-112 -100l127 -162
q20 -26 36 -40t40 -14q8 0 17.5 2t19.5 5l14 -56q-21 -20 -53.5 -32.5t-68.5 -12.5z" />
    <glyph glyph-name="f_b" unicode="fb" horiz-adv-x="1048" 
d="M562 -7l-76 4v590q0 42 -13 68.5t-36.5 39.5t-57.5 13q-30 0 -55.5 -11.5t-40.5 -39.5t-15 -80v-65h147v-86h-147v-304q0 -24 6.5 -33t29.5 -12l52 -8v-69h-320v70l43 7q21 4 25.5 15t4.5 36v298h-77v71l78 13v16q0 64 18 112t51.5 80t80 48t103.5 16q46 0 78.5 -6.5
t59 -18.5t50.5 -29l79 39l15 -12v-314h3q16 23 38.5 42.5t53 31t70.5 11.5q62 0 106.5 -28.5t69.5 -84t25 -136.5q0 -92 -29 -157t-83.5 -99.5t-134.5 -34.5q-32 0 -59.5 5.5t-50.5 16.5t-43 27zM737 79q38 0 61 20.5t34 61t11 100.5q0 55 -10 92t-31.5 56t-55.5 19
q-28 0 -51 -12t-36.5 -38.5t-13.5 -69.5v-196q17 -14 41 -23.5t51 -9.5z" />
    <glyph glyph-name="f_h" unicode="fh" horiz-adv-x="1071" 
d="M36 0v70l43 7q21 4 25.5 15t4.5 36v298h-77v71l78 13v25q0 60 16 106.5t47.5 77.5t76.5 47t103 16q46 0 80 -6.5t62.5 -18.5t55.5 -29l79 39l15 -12v-319h2q22 39 63 64.5t102 25.5q62 0 99 -23.5t53 -62.5t16 -85v-240q0 -20 5.5 -28t25.5 -12l36 -6v-69h-284v68l30 6
q18 3 23 12.5t5 30.5v197q0 32 -5.5 55.5t-21.5 36t-48 12.5q-25 0 -48.5 -10.5t-38 -36.5t-14.5 -71v-180q0 -21 4.5 -31t20.5 -14l35 -7v-68h-286v69l39 8q19 3 23.5 14t4.5 34v462q0 42 -12 68.5t-34.5 39.5t-56.5 13q-31 0 -57 -11t-42 -38t-16 -75v-72h147v-86h-147
v-304q0 -24 6.5 -33t29.5 -12l52 -8v-69h-320z" />
    <glyph glyph-name="f_t" unicode="ft" horiz-adv-x="818" 
d="M36 0v70l43 7q21 4 25.5 15t4.5 36v297h-77v71l78 13v36q0 49 11.5 92.5t36.5 76t65.5 50.5t99.5 18q53 0 90.5 -15t57 -41.5t19.5 -63.5q0 -32 -18 -53t-57 -21q-33 0 -50.5 13.5t-17.5 35.5q0 13 5.5 26t18.5 38q-9 6 -20 9t-21 3q-21 0 -35 -11.5t-20.5 -35.5
t-6.5 -62v-92h125q54 0 83.5 18t43 51t17.5 76l84 12l17 -9v-148h142v-87h-142v-257q0 -36 13 -55.5t46 -19.5q23 0 44 7.5t39 19.5l34 -61q-29 -29 -72.5 -51t-104.5 -22q-54 0 -89 18.5t-52 53.5t-17 83v284h-211v-302q0 -23 7 -33t30 -12l68 -8v-70h-337z" />
    <glyph glyph-name="f_f_i" unicode="ffi" horiz-adv-x="1111" 
d="M36 0v70l43 7q21 4 25.5 15t4.5 36v298h-77v71l78 13v10q0 55 16.5 99t49 75t80.5 48t111 17q51 0 98 -13.5t90 -46.5q22 27 54 45t73 28t88 10q54 0 94 -9t66.5 -26t40.5 -40t14 -50q0 -32 -18.5 -53t-56.5 -21q-34 0 -51.5 16t-17.5 38q0 13 5.5 26t18.5 31
q-20 9 -43.5 13.5t-50.5 4.5q-36 0 -65 -11t-45 -38.5t-16 -78.5v-72h354l15 -8v-379q0 -23 5 -33t24 -14l45 -9v-69h-300v69l39 7q19 3 23.5 13t4.5 38v236q0 34 -6.5 48.5t-37.5 14.5h-166v-304q0 -24 6.5 -32t28.5 -13l40 -8v-69h-300v69l36 6q20 4 25 14.5t5 35.5v301
h-218v-304q0 -24 6.5 -33t29.5 -12l52 -8v-69h-320zM268 512h219v46q0 63 -24.5 95t-80.5 32q-30 0 -56 -11t-42 -38t-16 -75v-49z" />
    <glyph glyph-name="f_f_l" unicode="ffl" horiz-adv-x="1118" 
d="M36 0v70l43 7q21 4 25.5 15t4.5 36v298h-77v71l78 13v10q0 56 17.5 100t50.5 75t79 47.5t103 16.5q53 0 96 -13t83 -44q32 40 83.5 60t111.5 20q46 0 79.5 -6.5t60.5 -18.5t53 -29l78 39l16 -12v-630q0 -25 5 -34.5t25 -13.5l44 -8v-69h-300v69l38 7q20 3 24.5 13.5
t4.5 37.5v460q0 42 -12.5 68.5t-35.5 39.5t-58 13q-30 0 -56 -11t-41 -38t-15 -75v-72h147v-86h-147v-304q0 -24 6.5 -33t28.5 -12l52 -8v-69h-312v69l36 6q19 4 24.5 14t5.5 35v302h-217v-304q0 -24 7 -33t29 -12l52 -8v-69h-320zM268 512h218v46q0 63 -24 95t-79 32
q-31 0 -57 -11t-42 -38t-16 -75v-49z" />
    <glyph glyph-name="f_f_k" unicode="ffk" horiz-adv-x="1429" 
d="M1309 -11q-30 0 -54.5 8t-45 26t-41.5 47l-136 187v16l139 127q15 13 13.5 24t-15.5 12l-43 7l12 69h253v-71l-38 -7q-18 -3 -32.5 -11.5t-31.5 -23.5l-112 -100l127 -162q19 -26 35 -40t41 -14q8 0 17.5 2t19.5 5l14 -56q-22 -20 -54.5 -32.5t-67.5 -12.5zM36 0v70l43 7
q21 4 25.5 15t4.5 36v298h-77v71l78 13v10q0 54 16.5 98t49 75.5t79.5 48.5t109 17q53 0 94.5 -13.5t80.5 -43.5q33 40 85.5 60t113.5 20q43 0 75.5 -6.5t60.5 -18t54 -29.5l78 39l16 -12v-631q0 -24 5 -33.5t23 -13.5l33 -7v-70h-294v70l45 7q19 3 24 13t5 37v468
q0 40 -12 64.5t-35 36.5t-58 12q-29 0 -55.5 -11t-42 -38t-15.5 -75v-72h147v-86h-147v-304q0 -24 6.5 -33t28.5 -12l52 -8v-69h-312v69l39 7q18 3 22.5 15t4.5 37v298h-218v-304q0 -24 6.5 -33t29.5 -12l52 -8v-69h-320zM268 512h219v50q0 63 -24.5 93t-79.5 30
q-32 0 -58.5 -11t-41.5 -38t-15 -75v-49z" />
    <glyph glyph-name="f_f_b" unicode="ffb" horiz-adv-x="1423" 
d="M268 512h218v46q0 63 -24 95t-81 32q-30 0 -56 -11t-41.5 -38t-15.5 -75v-49zM1113 79q37 0 60 20.5t34 61t11 100.5q0 55 -10 92t-31.5 56t-55.5 19q-28 0 -51 -12t-36.5 -38.5t-13.5 -69.5v-196q17 -14 41 -23.5t52 -9.5zM36 0v70l43 7q21 4 25.5 15t4.5 36v298h-77v71
l78 13v10q0 57 17.5 102t50 75t77.5 46t101 16q61 0 103 -13.5t79 -43.5q32 41 82 60.5t116 19.5q42 0 75 -6.5t61.5 -18.5t54.5 -29l78 39l16 -11v-315h3q16 23 38 42.5t52.5 31t70.5 11.5q62 0 107 -28.5t70 -84t25 -136.5q0 -92 -28.5 -157t-82.5 -99.5t-130 -34.5
q-35 0 -63.5 6t-52.5 17t-43 26l-49 -42l-76 4v589q0 42 -12.5 69t-35.5 40t-58 13q-32 0 -57.5 -11t-40 -38t-14.5 -75v-72h147v-86h-147v-304q0 -24 6.5 -33t28.5 -12l52 -8v-69h-312v69l39 7q18 3 22.5 15t4.5 37v298h-217v-304q0 -24 6.5 -33t29.5 -12l52 -8v-69h-320z
" />
    <glyph glyph-name="f_f_t" unicode="fft" horiz-adv-x="1200" 
d="M36 0v70l43 7q21 4 25.5 15t4.5 36v298h-77v71l78 13v10q0 55 16.5 99.5t49 75.5t79.5 47.5t108 16.5q50 0 91 -12t79 -39q26 34 68.5 54t101.5 20q53 0 89.5 -15t55.5 -41.5t19 -63.5q0 -32 -18.5 -53t-56.5 -21q-33 0 -50.5 13.5t-17.5 35.5q0 13 5 26t19 38
q-10 5 -19 8.5t-22 3.5q-22 0 -35.5 -11.5t-20 -35.5t-6.5 -62v-92h130q54 0 83 18t42.5 51t18.5 76l83 12l18 -9v-148h142v-87h-142v-257q0 -36 12.5 -55.5t46.5 -19.5q23 0 43.5 7.5t39.5 19.5l33 -61q-28 -29 -72 -51t-104 -22q-54 0 -89.5 18.5t-52 53.5t-16.5 83v284
h-216v-302q0 -23 7 -33t30 -12l68 -8v-70h-330v69l36 6q20 4 25 14.5t5 35.5v301h-218v-304q0 -24 6.5 -33t29.5 -12l52 -8v-69h-320zM268 512h219v46q0 63 -25.5 95t-80.5 32q-31 0 -56.5 -11t-41 -38t-15.5 -75v-49z" />
    <glyph glyph-name="f_iacute" unicode="f&#xed;" horiz-adv-x="736" 
d="M518 579l-37 37l106 153q13 19 24.5 25.5t25.5 6.5q22 0 35.5 -11.5t20 -27t6.5 -28.5q0 -16 -9 -31.5t-29 -28.5zM37 0v70l42 7q21 4 25.5 15t4.5 36v297h-77v71l78 13v61q0 51 12.5 91t37.5 67t63 40.5t90 13.5q43 0 76 -15t51 -42t18 -63q0 -32 -17.5 -53t-52.5 -21
q-28 0 -43.5 13t-15.5 32q0 16 5.5 29.5t19.5 38.5q-7 6 -15.5 9t-18.5 3q-14 0 -26 -7.5t-19 -27.5t-7 -57v-109h355l15 -8v-379q0 -23 4.5 -33t23.5 -14l45 -9v-69h-299v69l38 7q19 3 24 13t5 38v236q0 34 -7 48t-38 14h-166v-302q0 -23 7 -32t30 -13l56 -8v-70h-324z" />
    <glyph glyph-name="T_h" unicode="Th" horiz-adv-x="1277" 
d="M187 0v71l70 10q22 2 27.5 15.5t5.5 35.5v486h-36q-30 0 -50.5 -6.5t-36 -22.5t-27 -45t-23.5 -75l-93 19l33 213h559q47 0 83.5 9t68 23.5t62.5 33.5l21 -11v-319h3q22 39 62.5 64t101.5 25q62 0 99 -23.5t53 -62.5t16 -85v-240q0 -20 5.5 -28t25.5 -12l36 -6v-69h-284
v68l30 6q19 3 23.5 12.5t4.5 30.5v197q0 32 -5.5 55.5t-21.5 36t-47 12.5q-26 0 -49.5 -10.5t-38 -36.5t-14.5 -71v-180q0 -21 4.5 -31t20.5 -14l35 -7v-68h-284v69l38 8q17 3 22 13t5 33v495h-235v-488q0 -24 6.5 -35t27.5 -14l64 -10v-71h-368z" />
    <glyph glyph-name=".notdef" horiz-adv-x="500" 
d="M50 700h400v-700h-400v700zM110 640v-580h280v580h-280z" />
    <glyph glyph-name=".null" horiz-adv-x="0" 
 />
    <glyph glyph-name="nonmarkingreturn" horiz-adv-x="333" 
 />
    <glyph glyph-name="CR" unicode="&#xd;" horiz-adv-x="0" 
 />
    <glyph glyph-name="space" unicode=" " horiz-adv-x="200" 
 />
    <glyph glyph-name="exclam" unicode="!" horiz-adv-x="337" 
d="M124 211v68q0 48 -5 90t-12 79t-14.5 70t-12.5 62t-5 54q0 29 13.5 46.5t36 26t47.5 8.5q43 0 68.5 -19t25.5 -60q0 -31 -8 -68.5t-18.5 -82t-18.5 -96t-8 -111.5v-67h-89zM169 -14q-41 0 -65.5 22t-24.5 58q0 37 24.5 59t65.5 22q42 0 65.5 -22t23.5 -59
q0 -35 -24 -57.5t-65 -22.5z" />
    <glyph glyph-name="quotedbl" unicode="&#x22;" horiz-adv-x="438" 
d="M100 525l-32 162q-2 11 -4 23t-2 23q0 26 18 43t51 17q25 0 44.5 -13t19.5 -38q0 -6 -1 -14t-4 -19l-41 -184h-49zM281 525l-32 162q-3 11 -4.5 23t-1.5 23q0 26 17.5 43t51.5 17q24 0 43.5 -13t19.5 -38q0 -6 -0.5 -14t-3.5 -19l-41 -184h-49z" />
    <glyph glyph-name="numbersign" unicode="#" horiz-adv-x="691" 
d="M140 -3l19 133l-125 -3l18 85h123l18 132l-126 -3l15 85l124 2l16 125l97 -2l-21 -125l134 2l17 125l96 1l-18 -125l130 3l-16 -86l-130 1l-17 -132l136 2l-15 -85l-133 -2l-18 -133l-97 2l21 133l-132 -2l-19 -133h-97zM268 212l134 3l17 132l-135 -3z" />
    <glyph glyph-name="dollar" unicode="$" horiz-adv-x="595" 
d="M268 -90v80q-38 7 -72.5 22t-58.5 36l-13 -54h-69l-16 219l77 12q15 -39 36.5 -69t51 -49t64.5 -25v199q-10 3 -18.5 6t-17.5 6q-48 18 -82 37.5t-55 43.5t-31 55t-10 72q0 33 12 68.5t37.5 66.5t66 52t98.5 26v86h67v-88q34 -4 62 -16t53 -31l13 50h62l22 -215l-77 -15
q-15 45 -36 73.5t-46 44.5t-53 20v-190q3 -1 8.5 -2.5t8.5 -2.5q48 -15 88 -33t68.5 -42.5t44 -59t15.5 -83.5q0 -52 -19 -92.5t-52 -69t-75 -44t-87 -18.5v-76h-67zM335 82q26 4 43.5 14.5t26 27.5t8.5 39t-8 38.5t-25 30.5t-45 25v-175zM268 460v161q-31 -5 -49 -25.5
t-18 -51.5q0 -18 7 -33t21.5 -27.5t38.5 -23.5z" />
    <glyph glyph-name="percent" unicode="%" horiz-adv-x="906" 
d="M206 -14l366 611h129l-364 -611h-131zM208 274q-53 0 -93.5 18t-63 52t-22.5 83q0 62 25 99t67.5 53t91.5 16t89 -15.5t63.5 -48.5t23.5 -88q0 -57 -24 -95t-64.5 -56t-92.5 -18zM211 341q22 0 33.5 21t11.5 74q0 52 -13 72.5t-37 20.5q-20 0 -33.5 -19t-13.5 -72
q0 -51 13.5 -74t38.5 -23zM696 -20q-53 0 -93.5 18t-63 52t-22.5 83q0 63 25 100t67.5 53t91.5 16t89 -15.5t63.5 -49t23.5 -87.5q0 -58 -24 -95.5t-64.5 -56t-92.5 -18.5zM699 47q22 0 33.5 21t11.5 74q0 35 -6 55.5t-17 29.5t-27 9q-20 0 -33.5 -19.5t-13.5 -71.5
q0 -51 13.5 -74.5t38.5 -23.5z" />
    <glyph glyph-name="ampersand" unicode="&#x26;" horiz-adv-x="836" 
d="M279 -14q-67 0 -121 21.5t-86 65t-32 108.5q0 35 11 64t31 53t49.5 42.5t65.5 32.5q-24 25 -43 51t-30 54.5t-11 61.5q0 44 17 77t47.5 55t68.5 32.5t79 10.5q84 0 132 -41t48 -107q0 -39 -17.5 -71t-47 -57t-66.5 -42l123 -130q18 64 41 108t50 71t55.5 39t56.5 12
q45 0 73 -24.5t28 -62.5q0 -20 -7 -39t-21.5 -31t-35.5 -12q-20 0 -32.5 9.5t-22 28t-19.5 43.5q-20 -10 -40.5 -34t-38 -64.5t-29.5 -102.5q38 -38 63.5 -59t45.5 -29.5t41 -8.5q17 0 36 8t43 25l25 -54q-23 -28 -46.5 -48t-49.5 -31.5t-57 -11.5q-27 0 -54 8t-54.5 25.5
t-57.5 44.5q-19 -25 -48.5 -45.5t-70 -33t-92.5 -12.5zM318 74q41 0 69 15t44 41l-188 193q-16 -12 -29 -28t-20.5 -37t-7.5 -50q0 -43 18 -73t48.5 -45.5t65.5 -15.5zM328 442q29 21 46 43.5t24.5 45.5t7.5 43q0 38 -23 56.5t-57 18.5q-38 0 -58 -21t-20 -53
q0 -25 10.5 -47t28.5 -42.5t41 -43.5z" />
    <glyph glyph-name="quotesingle" unicode="'" horiz-adv-x="257" 
d="M100 525l-32 162q-2 11 -4 23t-2 23q0 26 18 43t51 17q25 0 44.5 -13t19.5 -38q0 -6 -1 -14t-4 -19l-41 -184h-49z" />
    <glyph glyph-name="parenleft" unicode="(" horiz-adv-x="358" 
d="M267 -214q-48 52 -89 111t-70.5 126t-46 142.5t-16.5 157.5q0 81 18.5 153t50.5 135.5t72 118t84 97.5l59 -35q-38 -63 -65 -141.5t-41.5 -163t-14.5 -166.5q0 -90 14.5 -177t41.5 -168t63 -155z" />
    <glyph glyph-name="parenright" unicode=")" horiz-adv-x="358" 
d="M80 -214l-60 34q37 70 64 150.5t42.5 167t15.5 172.5q0 87 -14 171.5t-40.5 163.5t-64.5 147l59 35q44 -44 84.5 -98.5t71.5 -118t48.5 -135t17.5 -152.5q0 -83 -17 -158.5t-47.5 -142.5t-71 -126t-88.5 -110z" />
    <glyph glyph-name="asterisk" unicode="*" horiz-adv-x="450" 
d="M218 393q-30 0 -40.5 16t-2.5 44l25 99l-67 -65q-19 -22 -43 -22t-41 30q-15 26 -5.5 43t35.5 24l104 32l-93 29q-31 8 -41.5 28.5t5.5 48.5q15 26 35 27t39 -19l73 -73l-22 92q-8 31 5 50.5t46 19.5q28 0 39.5 -15.5t3.5 -43.5l-27 -104l71 66q22 21 45.5 20.5
t39.5 -29.5q15 -25 6.5 -41.5t-37.5 -24.5l-105 -32l94 -29q29 -9 40.5 -29.5t-5.5 -49.5q-14 -25 -33.5 -26t-39.5 20l-75 71l22 -87q7 -29 -5 -49.5t-46 -20.5z" />
    <glyph glyph-name="plus" unicode="+" horiz-adv-x="582" 
d="M232 83v171h-153v107h153v158h111v-158h160v-107h-160v-171h-111z" />
    <glyph glyph-name="comma" unicode="," horiz-adv-x="326" 
d="M112 -174l-39 51q27 20 45.5 39.5t29 39.5t12.5 41h-14q-20 0 -38.5 7t-30 23.5t-11.5 42.5q0 39 25.5 62.5t67.5 23.5q50 0 76 -29.5t26 -75.5q0 -37 -16 -79t-49 -80t-84 -66z" />
    <glyph glyph-name="hyphen" unicode="-" horiz-adv-x="339" 
d="M37 239v110h266v-110h-266z" />
    <glyph glyph-name="period" unicode="." horiz-adv-x="329" 
d="M164 -15q-44 0 -70 23.5t-26 63.5q0 38 26 62.5t70 24.5q46 0 71.5 -24t25.5 -63t-26.5 -63t-70.5 -24z" />
    <glyph glyph-name="slash" unicode="/" horiz-adv-x="488" 
d="M7 -110l338 912h117l-337 -912h-118z" />
    <glyph glyph-name="zero" unicode="0" horiz-adv-x="616" 
d="M308 -13q-95 0 -156.5 46t-90.5 126.5t-29 182.5q0 104 24 175.5t64 115t90.5 63t103.5 19.5q79 0 139.5 -37.5t95.5 -115t35 -197.5q0 -124 -34 -208t-96 -127t-146 -43zM315 74q26 0 45 15t31.5 47.5t18.5 85.5t6 130t-7 130t-20.5 85.5t-34 47t-48.5 14.5
q-24 0 -44 -12.5t-33.5 -42.5t-20.5 -82t-7 -132q0 -72 7 -126t21 -89t35.5 -53t50.5 -18z" />
    <glyph glyph-name="one" unicode="1" horiz-adv-x="415" 
d="M29 0v71l75 12q17 3 23 13t6 33v421q0 24 -5.5 34t-32.5 14l-72 8l9 71l247 35l21 -15v-571q0 -23 6.5 -32t23.5 -12l67 -11v-71h-368z" />
    <glyph glyph-name="two" unicode="2" horiz-adv-x="538" 
d="M35 0l-10 85q74 78 126 136t85.5 101t53 78t27.5 65.5t8 64.5q0 48 -23.5 74.5t-66.5 26.5q-26 0 -47.5 -7t-35.5 -19q10 -15 16 -26t9 -20.5t3 -18.5q0 -25 -20.5 -44t-57.5 -19q-43 0 -63.5 23.5t-20.5 59.5q0 41 31 76.5t86 57t128 21.5t125.5 -23.5t80 -66
t27.5 -100.5q0 -33 -8 -64t-28 -64t-55.5 -73.5t-90.5 -93t-133 -121.5h132q26 0 42.5 3.5t27.5 14.5t20 33t20 58h87l-20 -218h-455z" />
    <glyph glyph-name="three" unicode="3" horiz-adv-x="558" 
d="M259 -14q-51 0 -90.5 11.5t-69 28.5t-49.5 36.5t-32 34.5l56 76q22 -20 46.5 -36.5t54 -26.5t64.5 -10q39 0 64 14t36.5 38t11.5 54q0 59 -43.5 83.5t-133.5 20.5l8 83q58 6 93 24t51.5 47.5t16.5 67.5q0 49 -25.5 75t-68.5 26q-23 0 -45.5 -7.5t-36.5 -20.5
q15 -23 21 -38t6 -27t-8 -26t-25 -23.5t-44 -9.5t-44.5 11t-25.5 30t-8 39q0 39 27.5 74.5t81 57.5t128.5 22q69 0 118.5 -19.5t77 -57t27.5 -93.5q0 -42 -17.5 -75.5t-51.5 -57t-82 -36.5v-4q52 -8 90.5 -28.5t60 -56t21.5 -90.5q0 -51 -20 -90t-55.5 -66t-83 -41
t-102.5 -14z" />
    <glyph glyph-name="four" unicode="4" horiz-adv-x="603" 
d="M216 0v67l70 10q23 4 29 15t6 31v42h-299l-12 72l311 456l146 18l21 -14v-438h97v-94h-97v-49q0 -19 7.5 -28t27.5 -12l47 -7v-69h-354zM120 259h201v288l-2 4z" />
    <glyph glyph-name="five" unicode="5" horiz-adv-x="543" 
d="M249 -14q-46 0 -89 11.5t-80 36t-67 63.5l56 75q38 -37 79.5 -54.5t84.5 -17.5q36 0 61 15t38.5 44t13.5 72q0 57 -30.5 87.5t-85.5 30.5q-33 0 -63.5 -9t-60.5 -27l-49 50l34 338h393v-31l-26 -89h-279l-17 -161q28 16 62 24t72 8q67 0 116 -26t75.5 -74t26.5 -113
q0 -61 -17.5 -108.5t-51.5 -79.5t-83 -48.5t-113 -16.5z" />
    <glyph glyph-name="six" unicode="6" horiz-adv-x="584" 
d="M293 -14q-97 0 -154.5 40.5t-82 112t-24.5 161.5q0 76 16.5 149.5t54.5 134t101 96t155 35.5q47 0 92 -13.5t74 -40.5t29 -68q0 -21 -8.5 -40t-26.5 -31.5t-48 -12.5q-25 0 -41 8.5t-23.5 20t-7.5 22.5q0 8 2.5 16.5t8 19t14.5 24.5q-12 8 -29.5 12t-39.5 4
q-29 0 -52.5 -11.5t-42 -34t-31 -53.5t-20 -69t-10.5 -81q23 26 61.5 45.5t91.5 19.5q60 0 105 -24.5t70.5 -71.5t25.5 -117q0 -82 -33 -139t-91 -85.5t-136 -28.5zM298 71q31 0 52.5 15t33 49t11.5 88q0 51 -11.5 80.5t-32.5 43t-50 13.5q-27 0 -51 -12.5t-38.5 -38.5
t-14.5 -70q0 -51 9.5 -89t31.5 -58.5t60 -20.5z" />
    <glyph glyph-name="seven" unicode="7" horiz-adv-x="543" 
d="M185 -13l-21 12q-1 70 8.5 140.5t36.5 144.5t76.5 149.5t125.5 153.5h-198q-26 0 -42 -2.5t-26 -13t-18 -31t-17 -57.5h-90l17 218h489l11 -88q-54 -61 -94.5 -124.5t-66.5 -135t-37.5 -158t-6.5 -193.5z" />
    <glyph glyph-name="eight" unicode="8" horiz-adv-x="589" 
d="M277 -14q-76 0 -134 20t-90.5 60.5t-32.5 102.5q0 38 15 72.5t48.5 64t90.5 50.5q-44 24 -71 49t-39.5 55.5t-12.5 70.5q0 44 25.5 86t80.5 70t143 28q78 0 129.5 -20t77 -55t25.5 -80q0 -38 -14.5 -68t-41 -53t-62.5 -42q58 -27 90.5 -58t46 -65.5t13.5 -72.5
q0 -54 -22.5 -94t-62 -67t-91.5 -40.5t-111 -13.5zM291 76q34 0 58 12t37.5 35.5t13.5 57.5q0 25 -9.5 44t-28 34.5t-47 29.5t-66.5 27q-43 -28 -61 -62t-18 -69q0 -36 16 -60.5t43 -36.5t62 -12zM333 431q26 25 41 55.5t15 60.5t-13 48.5t-35 28t-48 9.5t-47 -9t-33 -26
t-12 -43q0 -23 10 -42.5t39 -38.5t83 -43z" />
    <glyph glyph-name="nine" unicode="9" horiz-adv-x="576" 
d="M259 -14q-66 0 -123.5 21.5t-102.5 63.5l48 83q35 -27 74.5 -41.5t84.5 -14.5q36 0 60.5 14.5t41 41.5t25.5 65.5t12 88.5q-25 -30 -61 -46.5t-79 -16.5q-67 0 -115 25.5t-74 74t-26 116.5q0 86 34.5 142.5t93.5 84t133 27.5q71 0 120.5 -23.5t80 -65.5t44.5 -99t14 -124
q0 -210 -69.5 -313.5t-215.5 -103.5zM277 338q20 0 38 7.5t32.5 23.5t23 43t8.5 66q0 44 -9.5 79t-30.5 55.5t-57 20.5q-22 0 -40 -8.5t-31 -26t-20 -46t-7 -67.5q0 -56 12 -88.5t32.5 -45.5t48.5 -13z" />
    <glyph glyph-name="colon" unicode=":" horiz-adv-x="329" 
d="M164 -15q-44 0 -70 23.5t-26 63.5q0 38 26 62.5t70 24.5q46 0 71.5 -24t25.5 -63t-26.5 -63t-70.5 -24zM164 352q-44 0 -70 24t-26 63t26 63t70 24q46 0 71.5 -23.5t25.5 -63.5q0 -39 -26.5 -63t-70.5 -24z" />
    <glyph glyph-name="semicolon" unicode=";" horiz-adv-x="326" 
d="M112 -174l-39 51q27 20 45.5 39.5t29 39.5t12.5 41h-14q-20 0 -38.5 7t-30 23.5t-11.5 42.5q0 39 25.5 62.5t67.5 23.5q50 0 76 -29.5t26 -75.5q0 -37 -16 -79t-49 -80t-84 -66zM161 352q-44 0 -70.5 24t-26.5 63t26 63t71 24q46 0 71.5 -23.5t25.5 -63.5
q0 -39 -26.5 -63t-70.5 -24z" />
    <glyph glyph-name="less" unicode="&#x3c;" horiz-adv-x="582" 
d="M434 37l-359 217v60l359 218l50 -85l-273 -162l273 -161z" />
    <glyph glyph-name="equal" unicode="=" horiz-adv-x="582" 
d="M83 346v107h416v-107h-416zM83 154v106h416v-106h-416z" />
    <glyph glyph-name="greater" unicode="&#x3e;" horiz-adv-x="582" 
d="M148 37l-50 87l273 161l-273 162l50 85l359 -218v-60z" />
    <glyph glyph-name="question" unicode="?" horiz-adv-x="559" 
d="M198 212v116q0 26 6 46t21.5 39.5t44.5 42.5q38 32 55 54.5t17 51.5q0 36 -25 57t-67 21q-30 0 -52 -8t-37 -21q12 -18 21 -35.5t9 -32.5q0 -20 -18 -36.5t-52 -16.5q-37 0 -56.5 20t-19.5 52q0 41 29.5 76t82 56t122.5 21q71 0 120.5 -20t75.5 -56.5t26 -86.5
q0 -37 -13.5 -67.5t-41 -58.5t-67.5 -58q-27 -23 -43 -38.5t-24 -27t-10.5 -21t-2.5 -19.5v-50h-101zM249 -14q-41 0 -65.5 22t-24.5 58q0 37 24.5 59t65.5 22q42 0 65.5 -22t23.5 -59q0 -35 -24.5 -57.5t-64.5 -22.5z" />
    <glyph glyph-name="at" unicode="@" horiz-adv-x="944" 
d="M403 -200q-68 0 -130.5 20.5t-111 63.5t-76.5 111t-28 162q0 92 28.5 171t84.5 138.5t139.5 93t192.5 33.5q91 0 163 -21t122.5 -63t77.5 -104.5t27 -144.5q0 -94 -30.5 -156t-82.5 -92.5t-116 -30.5q-39 0 -61.5 11.5t-31 35t-4.5 57.5l11 119h-6l-19 -69
q-11 -42 -27.5 -71.5t-36.5 -47.5t-42 -26.5t-46 -8.5q-43 0 -71.5 14t-45 37t-23.5 52t-7 59q0 94 30 153t79 87t105 28q34 0 67.5 -10.5t63.5 -28.5l69 26l17 -6l-25 -287q-2 -28 2 -42t29 -14q26 0 51 24t41 68.5t16 104.5q0 63 -17 113t-54 85t-94.5 53.5t-138.5 18.5
q-101 0 -177.5 -40.5t-120 -117t-43.5 -186.5q0 -82 22.5 -138t60.5 -89.5t86.5 -48.5t100.5 -15q71 0 119 18t87 46l40 -55q-43 -39 -111 -64.5t-155 -25.5zM423 55q19 0 34.5 13t30 42.5t29.5 77.5l47 141q-16 8 -34 12.5t-37 4.5q-26 0 -47.5 -16t-37 -44t-24 -64
t-8.5 -76q0 -27 4 -47t14.5 -32t28.5 -12z" />
    <glyph glyph-name="A" unicode="A" horiz-adv-x="755" 
d="M7 0v73l40 8q19 4 29 15t20 39l204 566h161l204 -570q11 -28 19 -38t28 -14l35 -7v-72h-323v73l47 6q18 3 22.5 15t-3.5 36l-27 82h-237l-27 -78q-7 -21 -5 -36t30 -20l44 -7v-71h-261zM253 293h186l-88 278h-4z" />
    <glyph glyph-name="B" unicode="B" horiz-adv-x="691" 
d="M49 0v71l43 8q19 3 25 12.5t6 38.5v446q0 25 -6.5 34.5t-26.5 12.5l-41 7v71h303q96 0 154 -19.5t85 -56t27 -87.5q0 -43 -19 -75.5t-51.5 -54t-72.5 -31.5v-5q86 -10 134.5 -51.5t48.5 -117.5q0 -63 -33 -109t-97 -70t-160 -24h-319zM347 84q45 0 75 14.5t46 42.5t16 68
q0 41 -16.5 66t-46.5 36.5t-74 11.5q-35 0 -57 -4v-230q12 -2 26 -3.5t31 -1.5zM334 402q37 0 62.5 13.5t39 40t13.5 62.5q0 35 -11 57t-36 33.5t-67 11.5h-45v-216q9 -1 19.5 -1.5t24.5 -0.5z" />
    <glyph glyph-name="C" unicode="C" horiz-adv-x="709" 
d="M382 -14q-103 0 -179.5 43.5t-118.5 124.5t-42 195q0 82 24 149.5t68.5 116t107 74.5t139.5 26q50 0 89.5 -14.5t70.5 -40.5l11 56h65l39 -245l-81 -16q-20 60 -46.5 96t-60 52t-75.5 16q-59 0 -98 -29.5t-58.5 -86t-19.5 -137.5q0 -71 16 -121.5t44 -83t65 -47.5t78 -15
q43 0 78.5 11.5t63.5 32.5t49 46l56 -64q-18 -26 -45 -50.5t-63 -44.5t-80.5 -32t-96.5 -12z" />
    <glyph glyph-name="D" unicode="D" horiz-adv-x="778" 
d="M49 0v71l43 8q19 3 25 12.5t6 38.5v446q0 25 -6.5 34.5t-26.5 12.5l-41 7v71h321q60 0 114.5 -11t100.5 -34.5t79.5 -62.5t52.5 -93.5t19 -128.5q0 -90 -26.5 -159t-79 -116.5t-130.5 -71.5t-181 -24h-270zM348 91q57 0 97 16t65.5 50t37.5 85.5t12 121.5
q0 84 -23.5 138.5t-68.5 81t-110 26.5h-68v-515q12 -2 27.5 -3t30.5 -1z" />
    <glyph glyph-name="E" unicode="E" 
d="M49 0v71l43 8q19 3 25 12.5t6 38.5v446q0 26 -6.5 35t-26.5 12l-41 7v71h526l35 -185l-89 -15q-11 35 -21.5 58t-25 36t-35.5 18.5t-53 5.5h-96v-222h57q25 0 37.5 5t19.5 21t14 48l67 6v-233l-67 -10q-5 33 -11.5 50t-20.5 22.5t-40 5.5h-56v-229h114q33 0 54.5 6.5
t35.5 20.5t23.5 39.5t19.5 63.5h90l-26 -213h-552z" />
    <glyph glyph-name="F" unicode="F" horiz-adv-x="638" 
d="M49 0v71l43 8q19 3 25 12.5t6 38.5v446q0 25 -6.5 34.5t-26.5 12.5l-41 7v71h528l32 -199l-85 -15q-13 40 -24.5 66t-26.5 40.5t-36.5 20t-54.5 5.5h-92v-242h56q28 0 41 5t19.5 21t13.5 49l68 5v-243l-69 -11q-5 39 -12 58t-21 25t-42 6h-54v-161q0 -27 6.5 -38
t32.5 -13l70 -8v-72h-350z" />
    <glyph glyph-name="G" unicode="G" horiz-adv-x="768" 
d="M362 -14q-102 0 -173 45.5t-109 126t-38 185.5q0 84 24.5 152.5t70 117.5t108.5 75.5t141 26.5q55 0 95.5 -14.5t70.5 -40.5l12 56h65l42 -245l-82 -16q-19 59 -45.5 95t-61.5 52.5t-83 16.5q-44 0 -78 -17t-57 -49.5t-35 -80t-12 -108.5q0 -67 14 -117t38.5 -83.5
t58 -50t72.5 -16.5q26 0 48.5 5t41 14t31.5 22v83q0 23 -5.5 35t-27.5 15l-48 7v72h304v-72l-39 -7q-20 -3 -25.5 -14.5t-5.5 -37.5v-221h-87l-24 59q-17 -14 -44.5 -30.5t-66.5 -28.5t-90 -12z" />
    <glyph glyph-name="H" unicode="H" horiz-adv-x="841" 
d="M49 0v71l43 8q19 3 25 12.5t6 38.5v445q0 26 -6.5 35.5t-26.5 12.5l-41 7v71h314v-71l-43 -8q-18 -3 -24 -13.5t-6 -37.5v-166h262v170q0 25 -6.5 34.5t-26.5 12.5l-40 8v71h313v-71l-42 -7q-19 -3 -25 -13t-6 -38v-446q0 -26 6.5 -34.5t26.5 -12.5l40 -8v-71h-313v71
l42 8q18 3 24.5 12.5t6.5 38.5v180h-262v-184q0 -27 6.5 -35t25.5 -12l41 -8v-71h-314z" />
    <glyph glyph-name="I" unicode="I" horiz-adv-x="417" 
d="M49 0v71l45 8q20 4 25.5 14t5.5 36v446q0 26 -6.5 35.5t-27.5 12.5l-42 7v71h319v-71l-46 -8q-17 -3 -23.5 -13t-6.5 -37v-446q0 -26 6 -34.5t26 -12.5l44 -8v-71h-319z" />
    <glyph glyph-name="J" unicode="J" horiz-adv-x="576" 
d="M232 -14q-58 0 -105.5 18t-76 50.5t-28.5 75.5q0 34 12 57t33.5 35.5t47.5 12.5q34 0 54.5 -15t20.5 -39q0 -19 -8 -38t-26 -47q12 -10 30 -16t38 -6q30 0 48.5 15t27 43.5t8.5 68.5v369q0 26 -6 36.5t-27 12.5l-63 8v74h339v-71l-46 -8q-17 -3 -23.5 -12.5t-6.5 -37.5
v-334q0 -124 -63.5 -188t-179.5 -64z" />
    <glyph glyph-name="K" unicode="K" horiz-adv-x="784" 
d="M644 -15q-32 0 -58 7t-47 20t-37.5 32.5t-31.5 45.5l-125 208l-53 -55v-115q0 -26 7 -36t25 -13l44 -8v-71h-319v71l45 8q19 3 25 12.5t6 38.5v445q0 27 -6.5 36t-26.5 12l-43 7v71h319v-71l-46 -8q-17 -3 -23.5 -12.5t-6.5 -38.5v-209l217 216q10 11 12.5 20.5t-3.5 16
t-19 8.5l-44 6l10 72h257v-74l-39 -8q-12 -2 -21.5 -6.5t-20 -13.5t-25.5 -25l-156 -161l156 -248q19 -30 34 -48.5t31.5 -26.5t38.5 -8q11 0 21 1.5t23 5.5l14 -60q-21 -18 -55.5 -31t-78.5 -13z" />
    <glyph glyph-name="L" unicode="L" horiz-adv-x="648" 
d="M49 0v71l44 8q18 3 24 12.5t6 38.5v446q0 25 -7 35t-26 12l-41 7v71h329v-71l-54 -8q-20 -3 -27 -12t-7 -34v-490h86q30 0 51 7.5t36.5 24.5t27.5 47t26 76h92l-27 -241h-533z" />
    <glyph glyph-name="M" unicode="M" horiz-adv-x="987" 
d="M42 0v71l42 7q20 4 25.5 13.5t6.5 31.5l28 457q1 23 -5 31.5t-27 11.5l-43 7v71h270l154 -407l4 5l165 402h254v-71l-47 -7q-16 -2 -23 -9.5t-5 -34.5l30 -453q2 -24 7 -33.5t26 -13.5l43 -8v-71h-318v71l54 8q16 3 22 11.5t4 30.5l-27 402l-2 4l-168 -414h-101l-167 414
l-2 -4l-23 -397q-1 -20 2 -31.5t27 -15.5l49 -8v-71h-255z" />
    <glyph glyph-name="N" unicode="N" horiz-adv-x="837" 
d="M49 0v71l43 8q18 3 24.5 13t6.5 38v445q0 26 -6.5 35.5t-26.5 12.5l-41 7v71h256l297 -496l2 4v366q0 25 -6.5 34.5t-26.5 12.5l-40 8v71h259v-71l-42 -7q-18 -3 -24.5 -13t-6.5 -38v-572h-173l-306 497l-2 -4v-367q0 -27 6.5 -35t25.5 -12l41 -8v-71h-260z" />
    <glyph glyph-name="O" unicode="O" horiz-adv-x="777" 
d="M383 -14q-111 0 -187 45t-115 125t-39 182q0 120 44.5 204t125 128.5t188.5 44.5q101 0 176 -41t116.5 -118.5t41.5 -188.5q0 -81 -23 -150.5t-67.5 -121.5t-110 -80.5t-150.5 -28.5zM396 84q39 0 69.5 14.5t50.5 46t30.5 82.5t10.5 123q0 67 -11.5 117t-33.5 84t-54 51
t-74 17q-40 0 -71 -15t-52.5 -47t-32 -81.5t-10.5 -117.5q0 -67 11.5 -118t34 -86t55.5 -52.5t77 -17.5z" />
    <glyph glyph-name="P" unicode="P" horiz-adv-x="653" 
d="M49 0v71l43 8q19 3 25 12.5t6 38.5v446q0 24 -6 34t-27 13l-41 7v71h302q49 0 92 -6.5t77.5 -21t59 -38.5t38 -58.5t13.5 -81.5q0 -52 -16.5 -91t-43.5 -66.5t-60.5 -44t-69.5 -24.5t-68 -8q-26 0 -49.5 1.5t-33.5 3.5v-135q0 -27 6.5 -38t32.5 -14l70 -8v-71h-350z
M335 350q62 0 93.5 35.5t31.5 106.5q0 44 -14 72t-42 41.5t-71 13.5h-43v-266q8 -1 19.5 -2t25.5 -1z" />
    <glyph glyph-name="Q" unicode="Q" horiz-adv-x="787" 
d="M710 -192q-46 0 -84.5 18.5t-74 60t-72.5 109.5q-21 -5 -44 -7.5t-47 -2.5q-111 0 -188.5 45t-117.5 125t-40 182q0 120 46 204t127.5 128.5t189.5 44.5q101 0 177 -41t119 -118.5t43 -188.5q0 -103 -37.5 -187t-109.5 -134q32 -47 57.5 -73t48.5 -36.5t47 -10.5
q34 0 61.5 9.5t59.5 30.5l33 -47q-29 -36 -59.5 -61t-63.5 -37.5t-71 -12.5zM398 80q11 0 20 0.5t14 2.5q-16 32 -30 55t-28 38t-27.5 22t-29.5 7q-21 0 -36.5 -7t-29.5 -22q14 -30 35.5 -51.5t49.5 -33t62 -11.5zM524 156q23 29 35 79.5t12 114.5q0 67 -12.5 117t-36 84
t-57 51t-75.5 17q-40 0 -72.5 -15t-55 -47t-34 -81.5t-11.5 -117.5q0 -36 4 -63t13 -54q23 22 50 33.5t61 11.5q33 0 63 -15t58.5 -44t57.5 -71z" />
    <glyph glyph-name="R" unicode="R" horiz-adv-x="744" 
d="M601 -14q-46 0 -77 15t-52 44t-35 71l-37 119q-9 23 -17.5 40.5t-22.5 27.5t-37 10q-9 0 -17 -0.5t-15 -1.5v-181q0 -23 6 -35t30 -17l47 -7v-71h-325v71l43 8q19 3 25 12.5t6 38.5v446q0 24 -6 34t-27 13l-41 7v71h304q61 0 112.5 -9.5t89 -30.5t58 -54.5t20.5 -82.5
q0 -36 -14 -63.5t-36.5 -48t-49.5 -34.5t-53 -22.5t-46 -11.5v-4q56 -9 88 -30.5t48 -67.5l26 -67q13 -31 22.5 -51.5t22.5 -30.5t34 -10q10 0 20 2t23 5l14 -60q-22 -19 -55 -31.5t-76 -12.5zM331 384q41 0 68.5 14.5t42 43t14.5 67.5q0 40 -15.5 64t-43 35t-64.5 11h-41
v-234q12 -1 22 -1h17z" />
    <glyph glyph-name="S" unicode="S" horiz-adv-x="613" 
d="M325 -14q-54 0 -102.5 17.5t-81.5 44.5l-14 -54h-68l-16 219l77 12q12 -34 30 -61t41.5 -46t52 -29t60.5 -10q36 0 59.5 10t35 29t11.5 44q0 30 -14.5 50.5t-47 36.5t-83.5 32q-45 14 -83 31.5t-65.5 42t-43 60.5t-15.5 86q0 28 8.5 57.5t26 57.5t46 50.5t68 35.5
t92.5 13q49 0 86 -13t68 -37l13 50h63l22 -215l-77 -15q-18 54 -44.5 84.5t-57.5 43.5t-64 13q-42 0 -69 -21.5t-27 -60.5q0 -29 15.5 -48.5t47 -34t77.5 -29.5q49 -15 89.5 -33.5t70 -43.5t45 -60t15.5 -85q0 -54 -20.5 -95.5t-55.5 -70.5t-79 -43.5t-92 -14.5z" />
    <glyph glyph-name="T" unicode="T" horiz-adv-x="746" 
d="M187 0v71l70 10q20 2 26.5 15t6.5 36v486h-36q-30 0 -50.5 -6.5t-35.5 -22.5t-27 -45t-24 -75l-93 19l33 213h633l32 -214l-93 -18q-12 46 -24 75.5t-27 45.5t-35 22t-48 6h-38v-488q0 -22 5.5 -34t28.5 -15l69 -10v-71h-373z" />
    <glyph glyph-name="U" unicode="U" horiz-adv-x="785" 
d="M396 -14q-80 0 -135 20t-87.5 56t-47 86t-14.5 110v316q0 26 -6.5 36t-27.5 13l-41 7v71h315v-71l-44 -8q-18 -3 -24 -13.5t-6 -36.5v-314q0 -55 15 -92t46.5 -55.5t84.5 -18.5q56 0 89 20t48 57.5t15 90.5v314q0 26 -6.5 36t-27.5 13l-40 7v71h248v-71l-42 -8
q-19 -3 -25.5 -13.5t-6.5 -38.5v-299q0 -96 -31.5 -159t-93.5 -94.5t-155 -31.5z" />
    <glyph glyph-name="V" unicode="V" horiz-adv-x="757" 
d="M295 0l-200 570q-10 29 -18 38t-27 13l-39 8v72h332v-73l-52 -7q-18 -2 -23.5 -11.5t3.5 -38.5l139 -427h5l142 421q9 27 4 39t-27 15l-49 9l4 73h258v-72l-45 -8q-17 -3 -25 -12.5t-20 -42.5l-197 -566h-165z" />
    <glyph glyph-name="W" unicode="W" horiz-adv-x="1108" 
d="M233 0l-136 572q-6 26 -14.5 35.5t-31.5 13.5l-40 8v72h329v-72l-47 -7q-19 -4 -24 -15t0 -37l91 -416h4l136 547h163l151 -551h4l88 421q5 26 1 36.5t-23 13.5l-49 10v70h263v-72l-49 -8q-12 -1 -21 -5t-15 -14t-11 -31l-132 -571h-184l-137 506h-3l-127 -506h-186z" />
    <glyph glyph-name="X" unicode="X" horiz-adv-x="756" 
d="M11 0v72l33 7q24 6 38 11.5t25.5 16.5t28.5 30l164 197l-180 238q-16 20 -32.5 31.5t-40.5 16.5l-37 8l14 73h320v-73l-38 -5q-17 -2 -19 -11.5t12 -28.5l103 -139l106 140q11 15 10.5 23t-21.5 13l-36 8l14 73h249v-74l-36 -5q-15 -2 -26.5 -6t-21.5 -12t-22 -24
l-162 -205l186 -247q16 -22 32 -34t41 -16l31 -5v-73h-335v72l41 5q20 2 23.5 13t-16.5 36l-104 139l-113 -146q-13 -17 -13 -27t20 -13l49 -7v-72h-287z" />
    <glyph glyph-name="Y" unicode="Y" horiz-adv-x="745" 
d="M200 0v71l59 8q19 2 25 12t6 39v137l-180 302q-13 22 -24.5 35t-35.5 17l-40 7v73h334v-72l-50 -7q-19 -2 -23 -14.5t10 -35.5l123 -202h5l115 196q14 24 10.5 37t-28.5 18l-47 9v71h276v-72l-50 -9q-17 -3 -28.5 -14.5t-28.5 -40.5l-174 -296v-143q0 -25 6 -35t26 -12
l59 -8v-71h-345z" />
    <glyph glyph-name="Z" unicode="Z" horiz-adv-x="686" 
d="M46 0v77l394 542h-164q-28 0 -47 -6.5t-32.5 -23.5t-25 -46.5t-25.5 -74.5l-92 -6l12 239h565v-78l-390 -539h153q32 0 54.5 6.5t39.5 23t32 47.5t32 80h89l-20 -241h-575z" />
    <glyph glyph-name="bracketleft" unicode="[" horiz-adv-x="353" 
d="M89 -212v1024h234l2 -71l-64 -6q-17 -1 -23.5 -10t-6.5 -32v-786q0 -23 6.5 -31.5t23.5 -10.5l64 -6l-2 -71h-234z" />
    <glyph glyph-name="backslash" unicode="\" horiz-adv-x="490" 
d="M344 -110l-337 912h117l337 -912h-117z" />
    <glyph glyph-name="bracketright" unicode="]" horiz-adv-x="353" 
d="M31 -212l-2 71l64 6q17 2 23.5 10.5t6.5 31.5v786q0 23 -6.5 32t-23.5 10l-64 6l2 71h233v-1024h-233z" />
    <glyph glyph-name="asciicircum" unicode="^" horiz-adv-x="582" 
d="M125 330l-94 59l217 324h85l218 -324l-95 -59l-167 238z" />
    <glyph glyph-name="underscore" unicode="_" horiz-adv-x="470" 
d="M0 -119v85h470v-85h-470z" />
    <glyph glyph-name="grave" unicode="`" horiz-adv-x="500" 
d="M299 575l-148 99q-19 13 -28.5 28.5t-9.5 31.5q0 13 6.5 28.5t20.5 27t35 11.5q15 0 26 -6.5t24 -25.5l109 -158z" />
    <glyph glyph-name="a" unicode="a" horiz-adv-x="578" 
d="M190 -14q-72 0 -112.5 37t-40.5 99q0 60 30.5 94t94.5 49.5t165 19.5v68q0 37 -8 60.5t-26 35t-51 11.5q-22 0 -44.5 -6.5t-36.5 -16.5q10 -15 15.5 -27t8.5 -20t3 -14q0 -22 -19.5 -37t-55.5 -15q-34 0 -51 16.5t-17 43.5q0 40 28.5 72t79 51t116.5 19q75 0 122.5 -20.5
t71 -63t23.5 -107.5v-210q0 -23 9 -34t29 -11q10 0 20 2t20 5l13 -56q-20 -18 -53 -31.5t-68 -13.5q-48 0 -76.5 23t-35.5 60q-14 -23 -35 -42t-50 -30t-69 -11zM252 73q23 0 39.5 9.5t26 27t9.5 40.5v70q-45 0 -75 -8.5t-44 -26.5t-14 -46q0 -30 14.5 -48t43.5 -18z" />
    <glyph glyph-name="b" unicode="b" horiz-adv-x="648" 
d="M163 -7l-76 4v619q0 33 -6 45t-34 16l-35 5l6 76l213 9l15 -11v-311l2 -4q19 28 43.5 47t54.5 28.5t64 9.5q63 0 108 -29t69.5 -84t24.5 -136q0 -90 -28.5 -155.5t-83.5 -100.5t-136 -35q-46 0 -83.5 13t-68.5 36zM338 79q36 0 59 19.5t35 60t12 102.5q0 58 -11 95
t-32.5 54.5t-54.5 17.5q-32 0 -54.5 -14t-34 -41t-11.5 -65v-196q17 -14 41 -23.5t51 -9.5z" />
    <glyph glyph-name="c" unicode="c" horiz-adv-x="543" 
d="M291 -14q-80 0 -137 32t-87 90.5t-30 137.5q0 84 32.5 147t94 98t147.5 35q63 0 108.5 -19t70 -50.5t24.5 -68.5q0 -22 -8.5 -40.5t-27 -30t-47.5 -11.5q-34 0 -53.5 15t-19.5 41q0 12 5.5 26.5t19.5 39.5q-16 10 -33 14t-41 4q-33 0 -57.5 -19.5t-38 -57t-13.5 -91.5
q0 -86 35 -131t103 -45q37 0 70 11t68 36l45 -59q-37 -45 -94 -74.5t-136 -29.5z" />
    <glyph glyph-name="d" unicode="d" horiz-adv-x="658" 
d="M251 -14q-70 0 -117.5 30.5t-72 87.5t-24.5 137q0 87 30 151t86 99t135 35q35 0 64.5 -8t51.5 -21v128q0 30 -7 41t-34 15l-39 6l7 73l218 7l14 -15v-632q0 -23 6 -31t27 -12l38 -8v-70l-204 -7l-12 80h-4q-16 -25 -38.5 -44t-53 -30.5t-71.5 -11.5zM305 83q31 0 53 15
t34 43t12 66v194q-20 15 -43.5 22.5t-50.5 7.5q-36 0 -59.5 -19t-35 -59t-11.5 -101q0 -56 11.5 -94t34 -56.5t55.5 -18.5z" />
    <glyph glyph-name="e" unicode="e" horiz-adv-x="565" 
d="M298 -14q-84 0 -142.5 32t-88.5 90.5t-30 135.5q0 90 35 153t97 96t142 33q66 0 114.5 -22.5t75 -65.5t26.5 -104q0 -24 -2.5 -49.5t-8.5 -48.5h-314q3 -44 20 -74.5t46.5 -45.5t68.5 -15q45 0 81 14t69 40l48 -55q-39 -51 -100 -82.5t-137 -31.5zM202 313h170
q2 12 2.5 24t0.5 24q0 43 -18.5 65.5t-54.5 22.5q-31 0 -52.5 -16.5t-33 -47t-14.5 -72.5z" />
    <glyph glyph-name="f" unicode="f" horiz-adv-x="427" 
d="M36 0v70l43 7q19 3 24.5 13t5.5 38v297h-77v71l78 13v36q0 50 12 93.5t37.5 75.5t67 50t100.5 18q57 0 96 -15.5t59 -42t20 -62.5q0 -33 -18.5 -53.5t-55.5 -20.5q-32 0 -50.5 13t-18.5 36q0 13 5.5 26t18.5 38q-9 5 -22 8.5t-26 3.5q-24 0 -39 -12t-21.5 -35.5
t-6.5 -61.5v-92h140v-87h-140v-302q0 -24 7.5 -33.5t29.5 -11.5l68 -8v-70h-337z" />
    <glyph glyph-name="g" unicode="g" horiz-adv-x="605" 
d="M264 -230q-64 0 -111 8.5t-77.5 24.5t-45.5 40t-15 56t14.5 53t39.5 35.5t55 25.5v3q-36 11 -53.5 34.5t-17.5 48.5q0 26 14 48t46 49v3q-36 21 -56 55.5t-20 83.5q0 63 32 105t87 63t123 21q19 0 42 -3t47.5 -9t45.5 -17q26 55 55 86t70 31q19 0 35.5 -7t27 -21.5
t10.5 -37.5q0 -27 -17.5 -48t-45.5 -21q-14 0 -25.5 8.5t-20.5 21.5l-11 18q-10 -12 -18 -26.5t-15 -31.5q24 -24 41 -54t17 -74q0 -52 -28.5 -93t-81.5 -65t-128 -24q-26 0 -49 3.5t-41 8.5q-10 -11 -15.5 -20t-5.5 -20q0 -14 8.5 -22.5t24 -11.5t36.5 -3h163
q92 0 136.5 -33t44.5 -96q0 -28 -9 -55.5t-29.5 -52.5t-56.5 -45t-91 -31.5t-131 -11.5zM280 -149q42 0 71.5 10.5t45 28.5t15.5 42t-17 36t-51 12h-146q-15 -13 -23.5 -29t-8.5 -36q0 -33 28 -48.5t86 -15.5zM278 244q38 0 58 25t20 73q0 54 -21 79.5t-60 25.5
q-41 0 -59 -28.5t-18 -74.5q0 -45 21 -72.5t59 -27.5z" />
    <glyph glyph-name="h" unicode="h" horiz-adv-x="689" 
d="M38 0v69l39 8q15 3 21 12t6 34v493q0 34 -7 45.5t-32 15.5l-36 5l7 76l212 9l15 -11v-315l2 -5q23 42 65.5 66t99.5 24q58 0 95 -21.5t55 -60t18 -89.5v-240q0 -20 5.5 -28t25.5 -12l36 -6v-69h-284v68l30 6q16 3 22 11t6 32v197q0 38 -7.5 60.5t-23.5 33t-44 10.5
q-29 0 -52 -12t-36 -38.5t-13 -67.5v-180q0 -22 4.5 -32t20.5 -13l35 -7v-68h-285z" />
    <glyph glyph-name="i" unicode="i" horiz-adv-x="364" 
d="M34 0v70l46 8q18 3 23 12.5t5 36.5v236q0 35 -6 47t-29 16l-39 6l7 75l211 11l15 -8v-385q0 -21 4.5 -32t24.5 -15l45 -9v-69h-307zM173 603q-45 0 -71 22.5t-26 62.5q0 38 25.5 61t71.5 23q48 0 73 -22.5t25 -61.5t-26.5 -62t-71.5 -23z" />
    <glyph glyph-name="j" unicode="j" horiz-adv-x="337" 
d="M69 -230l-49 65q22 20 37.5 41t24.5 45.5t13.5 54t4.5 64.5v325q0 34 -6.5 45.5t-28.5 15.5l-39 6l7 75l211 11l15 -8v-415q0 -68 -13 -119t-38 -88t-60 -65.5t-79 -52.5zM165 603q-45 0 -71.5 22.5t-26.5 62.5q0 38 25.5 61t72.5 23q48 0 73 -22.5t25 -61.5t-26.5 -62
t-71.5 -23z" />
    <glyph glyph-name="k" unicode="k" horiz-adv-x="671" 
d="M551 -11q-28 0 -51.5 7t-45 24.5t-44.5 49.5l-137 187v16l140 127q14 12 13 23t-16 13l-42 7l12 69h252v-71l-37 -7q-17 -3 -31.5 -11t-32.5 -24l-112 -100l127 -162q20 -27 36 -40.5t40 -13.5q7 0 15.5 2t21.5 5l14 -56q-21 -20 -54 -32.5t-68 -12.5zM32 0v70l44 7
q17 3 22.5 12t5.5 36v491q0 34 -6.5 45.5t-31.5 15.5l-36 5l6 76l213 9l14 -11v-632q0 -23 5 -33t24 -14l29 -7v-70h-289z" />
    <glyph glyph-name="l" unicode="l" horiz-adv-x="361" 
d="M31 0v70l45 8q18 3 23.5 12t5.5 37v489q0 34 -7 45.5t-33 14.5l-35 6l6 76l213 9l15 -12v-630q0 -24 5 -34t25 -14l44 -8v-69h-307z" />
    <glyph glyph-name="m" unicode="m" horiz-adv-x="997" 
d="M43 0v69l40 8q16 3 21 12t5 36v243q0 33 -6 44.5t-28 14.5l-40 6l8 74l188 13l15 -9l7 -91h4q17 33 42 56.5t57.5 36.5t70.5 13q61 0 98.5 -27t51.5 -75q24 47 68 74.5t100 27.5q55 0 90.5 -21.5t52.5 -60t17 -89.5v-239q0 -21 5.5 -29.5t24.5 -11.5l37 -6v-69h-276v68
l22 5q18 3 23 12t5 31v203q0 37 -7 59t-21.5 31t-37.5 9q-26 0 -47 -12t-33.5 -36.5t-12.5 -61.5v-189q0 -21 3.5 -31.5t20.5 -13.5l27 -6v-68h-260v68l22 5q17 3 22 12t5 31v203q0 39 -6.5 60.5t-21 30t-38.5 8.5q-25 0 -46.5 -12t-34 -36.5t-12.5 -61.5v-189
q0 -21 4 -31.5t21 -13.5l26 -6v-68h-276z" />
    <glyph glyph-name="n" unicode="n" horiz-adv-x="694" 
d="M43 0v69l40 8q16 3 21 12t5 36v243q0 33 -6 44.5t-28 14.5l-40 6l8 74l188 13l15 -9l7 -91h4q25 49 70.5 77.5t107.5 28.5q57 0 94 -21.5t55 -60t18 -89.5v-239q0 -21 6 -29.5t25 -11.5l37 -6v-69h-284v68l30 6q17 3 22 11.5t5 30.5v198q0 39 -7 61.5t-23.5 32.5
t-43.5 10q-29 0 -52 -12t-36 -38.5t-13 -67.5v-181q0 -22 4.5 -31.5t20.5 -12.5l35 -7v-68h-285z" />
    <glyph glyph-name="o" unicode="o" horiz-adv-x="624" 
d="M306 -14q-85 0 -145.5 30.5t-92 88.5t-31.5 142q0 93 35.5 155t100.5 93t151 31q79 0 138 -28t92.5 -85.5t33.5 -144.5q0 -90 -34 -153t-97 -96t-151 -33zM319 73q36 0 58 19t32 58t10 97q0 52 -7.5 89t-22 60t-35 34t-46.5 11q-32 0 -55.5 -16.5t-35.5 -52t-12 -94.5
q0 -68 12.5 -113.5t38 -68.5t63.5 -23z" />
    <glyph glyph-name="p" unicode="p" horiz-adv-x="660" 
d="M30 -216v70l38 6q15 2 21.5 12t6.5 36v456q0 37 -7 49t-27 15l-38 5l7 75l187 12l16 -9l7 -85h3q20 31 44.5 53t57 34.5t73.5 12.5q65 0 110 -29t69.5 -84.5t24.5 -137.5q0 -88 -27 -153t-81.5 -100.5t-136.5 -35.5q-35 0 -67.5 7.5t-55.5 21.5v-107q0 -24 7 -34.5
t27 -12.5l62 -9v-68h-321zM350 80q36 0 59 19.5t34.5 60t11.5 103.5q0 56 -11 92t-32.5 54t-53.5 18q-33 0 -56 -15.5t-35 -42.5t-12 -65v-192q16 -13 42.5 -22.5t52.5 -9.5z" />
    <glyph glyph-name="q" unicode="q" horiz-adv-x="641" 
d="M309 -216v69l61 8q21 3 27.5 13t6.5 35v151l-2 1q-18 -25 -42.5 -41.5t-52.5 -25t-58 -8.5q-70 0 -117.5 31t-71 88.5t-23.5 135.5q0 87 29.5 151t86 99t135.5 35q31 0 56.5 -5t48.5 -15.5t45 -27.5l56 48l69 -11v-606q0 -26 6.5 -36t21.5 -12l39 -7v-70h-321zM305 83
q30 0 52.5 15t34.5 42t12 63v198q-20 15 -43.5 23t-49.5 8q-37 0 -60.5 -19.5t-35 -59.5t-11.5 -100q0 -85 25.5 -127.5t75.5 -42.5z" />
    <glyph glyph-name="r" unicode="r" horiz-adv-x="541" 
d="M43 0v70l41 7q16 3 20.5 13t4.5 36v239q0 33 -5 45.5t-28 16.5l-41 6l8 74l185 13l16 -9l9 -92h4q24 50 65.5 78.5t92.5 28.5q54 0 85.5 -29.5t31.5 -79.5q0 -33 -9.5 -55t-29 -34t-47.5 -12q-37 0 -55 15.5t-18 37.5q0 8 1.5 15.5t5.5 18t10 25.5q-21 8 -42.5 1.5
t-39.5 -24.5t-29 -45t-11 -60v-176q0 -24 5.5 -33.5t22.5 -11.5l73 -10v-69h-326z" />
    <glyph glyph-name="s" unicode="s" horiz-adv-x="498" 
d="M56 -14l-14 178l80 5q15 -35 35.5 -58t46.5 -34.5t57 -11.5q39 0 59 16.5t20 46.5q0 18 -11 29.5t-35.5 21.5t-66.5 19q-35 9 -67.5 21t-57.5 30t-39.5 45.5t-14.5 67.5q0 53 24.5 89.5t68.5 55.5t102 19q39 0 71.5 -9.5t52.5 -23.5l8 33h66l11 -169l-79 5
q-16 47 -49 70.5t-73 23.5q-35 0 -54.5 -14t-19.5 -41q0 -18 10.5 -30t34.5 -21t64 -20q42 -11 76 -23.5t58 -30.5t37 -44.5t13 -65.5q0 -56 -25 -96.5t-70 -62t-106 -21.5q-45 0 -79.5 10t-58.5 25l-11 -35h-64z" />
    <glyph glyph-name="t" unicode="t" horiz-adv-x="438" 
d="M256 -14q-51 0 -86.5 17t-53.5 52t-18 86v284h-72v74q44 6 70 26t39 57.5t18 94.5l87 11l17 -8v-168h142v-87h-142v-257q0 -36 13 -55.5t46 -19.5q22 0 42.5 7t40.5 20l34 -61q-32 -32 -76 -52.5t-101 -20.5z" />
    <glyph glyph-name="u" unicode="u" horiz-adv-x="676" 
d="M255 -14q-80 0 -121.5 44.5t-41.5 126.5v208q0 32 -5 45t-29 17l-37 6l7 74l207 13l16 -9v-315q0 -38 7 -60.5t22.5 -32t41.5 -9.5q31 0 53 13.5t33.5 40.5t11.5 65v153q0 36 -6 46.5t-28 14.5l-34 6l11 74l200 13l16 -9v-378q0 -29 6.5 -40t24.5 -15l40 -7v-71l-205 -8
l-14 87h-4q-19 -27 -41.5 -48t-53.5 -33t-77 -12z" />
    <glyph glyph-name="v" unicode="v" horiz-adv-x="622" 
d="M237 0l-148 376q-6 18 -11.5 28t-12.5 16t-20 9l-37 8l12 75h286v-72l-40 -6q-15 -3 -18.5 -13.5t5.5 -35.5l94 -256h4l89 250q9 24 5 36.5t-26 16.5l-38 8l12 72h221v-73l-34 -7q-18 -4 -26.5 -13t-19.5 -39l-145 -380h-152z" />
    <glyph glyph-name="w" unicode="w" horiz-adv-x="900" 
d="M203 0l-117 376q-6 18 -11.5 28.5t-13 16t-20.5 8.5l-35 8l10 75h280v-72l-40 -6q-14 -3 -17 -13t4 -36l67 -238h5l91 365h164l94 -364h4l65 230q8 27 1.5 38.5t-25.5 15.5l-33 8l11 72h208v-72l-34 -7q-19 -4 -31 -16t-22 -48l-110 -369h-144l-96 367h-4l-91 -367h-160z
" />
    <glyph glyph-name="x" unicode="x" horiz-adv-x="603" 
d="M12 0v69l31 6q10 3 17 5.5t15.5 10t21.5 20.5l119 135l-112 133q-20 24 -33 36t-32 16l-34 6l12 75h287v-71l-32 -5q-13 -2 -15 -11.5t12 -26.5l60 -71l60 71q13 17 13.5 25t-17.5 12l-29 6l12 71h211v-71l-31 -6q-13 -3 -21 -7t-16.5 -11.5t-19.5 -21.5l-110 -126
l127 -148q12 -14 22 -23.5t21 -15t24 -8.5l25 -4v-70h-309v69l32 5q18 2 20.5 12.5t-12.5 27.5l-63 75l-60 -75q-8 -10 -12 -18t-0.5 -13t14.5 -8l30 -6v-69h-228z" />
    <glyph glyph-name="y" unicode="y" horiz-adv-x="611" 
d="M138 -230q-57 0 -92.5 26t-35.5 71q0 33 20.5 56t54.5 23q31 0 46 -13t16 -32q0 -9 -3.5 -24.5t-8.5 -36.5q25 -3 44 8t34.5 36.5t32.5 65.5l17 39l-175 392q-11 24 -18 34t-25 15l-33 7l10 75h286v-72l-38 -5q-20 -3 -25 -14.5t6 -39.5l93 -228h5l89 222q10 24 6 38.5
t-27 18.5l-38 8l12 72h217v-73l-35 -7q-17 -4 -25.5 -14t-22.5 -42l-169 -403q-22 -52 -43.5 -90t-46 -63t-55.5 -37.5t-73 -12.5z" />
    <glyph glyph-name="z" unicode="z" horiz-adv-x="533" 
d="M37 0v65l275 368h-90q-34 0 -52.5 -8t-30.5 -33t-26 -74l-74 -5l12 199h439v-64l-270 -367h93q27 0 44.5 4.5t30 17.5t23 36.5t24.5 61.5h71l-14 -201h-455z" />
    <glyph glyph-name="braceleft" unicode="{" horiz-adv-x="369" 
d="M242 -230q-69 0 -106.5 35t-37.5 94q0 21 3 55.5t7 75.5t7 82t3 75q0 38 -11.5 54.5t-30.5 21.5t-44 5v74q25 1 44.5 5t31.5 21t12 55q0 29 -3.5 66.5t-8 76.5t-8 73.5t-3.5 56.5q0 59 38 93t106 34q25 0 49.5 -3t45.5 -9l-13 -69q-9 2 -19.5 3t-22.5 1q-11 0 -19.5 -4.5
t-13 -16.5t-4.5 -34q0 -21 3 -55.5t7 -72.5t6.5 -72.5t2.5 -55.5q0 -42 -14 -67t-38 -39t-52 -23q29 -9 52.5 -24t38 -40t14.5 -66q0 -21 -3 -57t-7 -76.5t-6.5 -77t-2.5 -60.5q0 -21 5 -34t14.5 -18t23.5 -5q9 0 20.5 1.5t19.5 2.5l12 -69q-21 -6 -46.5 -9.5t-51.5 -3.5z
" />
    <glyph glyph-name="bar" unicode="|" horiz-adv-x="441" 
d="M162 -110v912h117v-912h-117z" />
    <glyph glyph-name="braceright" unicode="}" horiz-adv-x="369" 
d="M127 -230q-26 0 -51 3.5t-47 9.5l12 69q9 -1 20 -2.5t20 -1.5q15 0 24 5t14 18t5 34q0 24 -2.5 60.5t-6.5 77t-7 76.5t-3 57q0 41 14.5 66t38.5 40t52 24q-28 9 -52 23t-38 39t-14 67q0 21 2.5 55.5t6.5 72.5t7 72.5t3 55.5q0 22 -4.5 34t-13 16.5t-19.5 4.5
q-12 0 -22 -1t-20 -3l-13 69q22 6 46 9t49 3q68 0 106 -34t38 -93q0 -22 -3.5 -56.5t-8 -73.5t-8 -76.5t-3.5 -66.5q0 -38 12 -55t32 -21t44 -5v-74q-24 0 -43.5 -5t-31 -21.5t-11.5 -54.5q0 -34 3 -75t7 -82t7 -75.5t3 -55.5q0 -59 -37.5 -94t-106.5 -35z" />
    <glyph glyph-name="asciitilde" unicode="~" horiz-adv-x="582" 
d="M121 226l-64 24q15 40 29.5 68.5t33.5 44.5t47 16q24 0 59 -6.5t73 -16.5q38 -8 68 -14t50 -6q15 0 24 11t21 33l64 -22q-16 -42 -30.5 -71t-33 -44t-46.5 -15q-26 0 -60.5 6.5t-79.5 17.5q-34 8 -60.5 13t-47.5 5q-16 0 -24.5 -10t-22.5 -34z" />
    <glyph glyph-name="uni00A0" unicode="&#xa0;" horiz-adv-x="200" 
 />
    <glyph glyph-name="exclamdown" unicode="&#xa1;" horiz-adv-x="343" 
d="M213 301v-68q0 -48 5 -90t12 -79t14.5 -70t12.5 -62t5 -54q0 -29 -13.5 -46.5t-36 -26t-47.5 -8.5q-43 0 -68.5 19t-25.5 60q0 31 8 68.5t18.5 82t18.5 96t8 111.5v67h89zM168 526q41 0 65.5 -22t24.5 -58q0 -37 -24.5 -59t-65.5 -22q-42 0 -65.5 22t-23.5 59
q0 35 24 57.5t65 22.5z" />
    <glyph glyph-name="cent" unicode="&#xa2;" horiz-adv-x="545" 
d="M157 -31l136 679h104l-136 -679h-104zM292 33q-81 0 -138 32.5t-87 91t-30 136.5q0 84 32.5 147t94 98.5t147.5 35.5q63 0 109 -19.5t70.5 -50.5t24.5 -68q0 -23 -9 -41.5t-27 -29.5t-47 -11q-34 0 -54 14.5t-20 41.5q0 11 5.5 25.5t20.5 39.5q-16 11 -33.5 15t-41.5 4
q-32 0 -57 -19.5t-38.5 -57.5t-13.5 -92q0 -85 35.5 -130.5t102.5 -45.5q37 0 70.5 11.5t67.5 36.5l45 -59q-37 -46 -93.5 -75.5t-135.5 -29.5z" />
    <glyph glyph-name="sterling" unicode="&#xa3;" horiz-adv-x="602" 
d="M61 0l-13 70q43 19 68.5 40.5t37 50.5t11.5 67q0 21 -5.5 40t-13.5 37h-127l9 80h77q-12 26 -21 57.5t-9 70.5q0 60 31.5 105.5t89 71t137.5 25.5q68 0 115.5 -18.5t72.5 -50.5t25 -72q0 -35 -22 -57.5t-63 -22.5q-37 0 -57.5 16.5t-20.5 41.5q0 9 2 18.5t8.5 22
t17.5 30.5q-14 8 -34 13t-40 5q-48 0 -73.5 -28t-25.5 -84q0 -29 6.5 -54t16.5 -46.5t21 -43.5h185v-80h-155q3 -12 5.5 -24t2.5 -26q0 -42 -19 -78.5t-64 -68.5l2 -5h127q28 0 46 3.5t30 14t22 32t21 56.5h87l-22 -209h-489z" />
    <glyph glyph-name="currency" unicode="&#xa4;" horiz-adv-x="557" 
d="M464 85l-87 70q-24 -10 -51.5 -15t-52.5 -5q-24 0 -50 5t-49 13l-85 -68l-53 52l56 81q-13 21 -19.5 46.5t-6.5 52.5q0 30 7 55t23 50l-57 81l54 52l85 -68q24 10 51.5 15t50.5 5q25 0 52.5 -4.5t50.5 -13.5l85 67l54 -52l-59 -86q11 -19 17 -41.5t6 -50.5q0 -31 -7 -58
t-20 -47l58 -83zM274 206q24 0 39 13.5t21.5 39.5t6.5 63q0 58 -15.5 84.5t-47.5 26.5t-49 -27.5t-17 -85.5q0 -55 15.5 -84.5t46.5 -29.5z" />
    <glyph glyph-name="yen" unicode="&#xa5;" horiz-adv-x="746" 
d="M211 0v71l59 8q19 2 25 12t6 39v86h-222l6 67h199v14l-28 47h-174l6 67h129l-96 158q-13 22 -24.5 35t-35.5 17l-40 7v73h334v-72l-50 -7q-19 -2 -22.5 -14.5t9.5 -35.5l123 -202h5l115 196q14 24 10.5 37t-28.5 18l-47 9v71h276v-72l-50 -9q-17 -3 -28.5 -14.5
t-28.5 -40.5l-91 -154h103v-69h-144l-27 -45v-14h171v-67h-186v-90q0 -25 6 -35t26 -12l59 -8v-71h-345z" />
    <glyph glyph-name="brokenbar" unicode="&#xa6;" horiz-adv-x="441" 
d="M162 -110v412h115l1 -412h-116zM162 416v387h115l1 -387h-116z" />
    <glyph glyph-name="section" unicode="&#xa7;" horiz-adv-x="621" 
d="M288 -158q-51 -1 -89 11.5t-59.5 37t-21.5 59.5q0 19 8 36t25 28t43 10q30 0 49.5 -13.5t19.5 -35.5q0 -8 -3 -18t-8 -21t-14 -24q6 -3 13.5 -5t17 -2.5t19.5 0.5q21 0 36 8.5t23.5 23t9.5 33.5q0 29 -16.5 54t-49 51t-82.5 56q-52 33 -86 60.5t-52.5 52t-25.5 48
t-7 46.5q0 44 26 80t80 69q-5 15 -7.5 32.5t-2.5 35.5q0 48 25 84t68.5 56.5t99.5 21.5q49 0 86.5 -12.5t58.5 -36.5t21 -59q0 -18 -7.5 -35.5t-24.5 -28.5t-44 -10q-29 0 -49 14t-20 35q0 8 3 18t9 21t13 24q-5 3 -13 5t-16 2.5t-16 -0.5q-29 0 -46 -17t-17 -46
q-1 -30 16 -56t50.5 -52t83.5 -56q51 -30 84 -57.5t51.5 -52t26 -48t7.5 -46.5q-1 -44 -27.5 -81t-80.5 -71q6 -15 9 -32t3 -35q0 -47 -26 -83.5t-70.5 -57t-103.5 -21.5zM437 123q14 11 20.5 26t6.5 30q0 20 -16 41.5t-45 45t-68 49.5q-34 24 -62 43.5t-49.5 39t-40.5 37.5
q-13 -12 -19 -25t-6 -29q0 -15 9.5 -32t27 -34.5t42.5 -36t55 -39.5q50 -33 85 -61t60 -55z" />
    <glyph glyph-name="dieresis" unicode="&#xa8;" horiz-adv-x="500" 
d="M363 608q-37 0 -61 21.5t-24 58.5q0 35 24 56.5t61 21.5q42 0 64 -21.5t22 -56.5q0 -36 -24 -58t-62 -22zM135 608q-38 0 -61.5 21.5t-23.5 58.5q0 35 23.5 56.5t61.5 21.5q42 0 63.5 -21.5t21.5 -56.5q0 -36 -24 -58t-61 -22z" />
    <glyph glyph-name="copyright" unicode="&#xa9;" horiz-adv-x="837" 
d="M419 -17q-118 0 -198 44t-120.5 121.5t-40.5 177.5q0 79 29 143t79 109t115 69t137 24q77 0 142 -24t113.5 -68.5t75.5 -106.5t27 -139q0 -79 -24.5 -143t-71 -110.5t-113 -71.5t-150.5 -25zM420 49q72 0 124.5 22t86 61t50 89t16.5 105q0 86 -34.5 149t-96.5 97t-146 34
q-83 0 -146 -35t-98 -98.5t-35 -150.5q0 -55 16.5 -104t50.5 -87.5t86 -60t126 -21.5zM425 114q-63 0 -108 26t-68.5 72.5t-23.5 105.5q0 67 25 113.5t68 71.5t96 25q32 0 58 -10t41 -22l5 32h43l24 -145l-54 -9q-15 43 -38 66.5t-59 23.5q-28 0 -48 -15t-31.5 -45.5
t-11.5 -75.5q0 -31 7.5 -57.5t21 -45.5t33 -29t45.5 -10q36 0 60 14.5t46 35.5l35 -45q-22 -22 -45.5 -40t-52.5 -27.5t-68 -9.5z" />
    <glyph glyph-name="ordfeminine" unicode="&#xaa;" horiz-adv-x="447" 
d="M143 362q-33 0 -58.5 10.5t-40.5 32.5t-15 55q0 47 31.5 72t89.5 33q23 4 48.5 6t53.5 3v31q0 26 -6 43t-19.5 24.5t-36.5 7.5q-18 0 -32.5 -3t-25.5 -9q8 -12 11.5 -22t3.5 -15q0 -15 -13.5 -26.5t-41.5 -11.5q-27 0 -39 14t-12 36q0 28 21 50t59 35.5t88 13.5
q55 0 92 -13t56 -42.5t19 -79.5v-139q0 -16 6.5 -24.5t21.5 -8.5q7 0 14.5 1.5t15.5 4.5l10 -47q-15 -14 -38.5 -23t-54.5 -9q-35 0 -57.5 15t-27.5 40q-15 -24 -46 -39.5t-77 -15.5zM199 434q13 0 25 5.5t20 16.5t8 28v40q-28 0 -49 -4.5t-32.5 -15.5t-11.5 -30
q0 -17 11.5 -28.5t28.5 -11.5z" />
    <glyph glyph-name="guillemotleft" unicode="&#xab;" horiz-adv-x="542" 
d="M465 39l-179 163q-17 15 -24 30t-7 33q0 20 9 34.5t27 32.5l172 159l53 -40l-116 -182l119 -190zM248 39l-179 163q-17 15 -24 30t-7 33q0 20 9 34.5t27 32.5l172 159l53 -40l-116 -182l119 -190z" />
    <glyph glyph-name="logicalnot" unicode="&#xac;" horiz-adv-x="582" 
d="M394 140v140h-317v107h428v-247h-111z" />
    <glyph glyph-name="uni00AD" unicode="&#xad;" horiz-adv-x="339" 
d="M37 239v110h266v-110h-266z" />
    <glyph glyph-name="registered" unicode="&#xae;" horiz-adv-x="490" 
d="M245 389q-65 0 -109 25t-66.5 68t-22.5 97q0 61 27 105.5t72 68t100 23.5q91 0 144 -52t53 -138q0 -58 -25.5 -102.5t-70 -69.5t-102.5 -25zM331 465q13 0 23 3.5t18 9.5l-4 19q-3 -1 -6.5 -1.5t-6.5 -0.5q-8 0 -13 5.5t-10 15.5l-12 27q-6 16 -17 26.5t-32 13.5v2
q14 2 28 8.5t23 19t9 32.5q0 31 -25 44.5t-64 13.5h-102l-2 -21l17 -3q7 -1 10 -4.5t3 -10.5v-154q0 -7 -1.5 -11.5t-9.5 -5.5l-19 -3v-21h110v21l-16 3q-7 1 -9.5 5t-2.5 12v63h13q9 0 16 -6.5t14 -24.5l14 -37q9 -20 21.5 -30t32.5 -10zM220 598v81h14q21 0 31.5 -10
t10.5 -29q0 -18 -9 -30t-34 -12h-13z" />
    <glyph glyph-name="macron" unicode="&#xaf;" horiz-adv-x="500" 
d="M91 625v107h318v-107h-318z" />
    <glyph glyph-name="degree" unicode="&#xb0;" horiz-adv-x="370" 
d="M184 545q-72 0 -106.5 34.5t-34.5 85.5q0 52 36 89.5t109 37.5q68 0 103.5 -33.5t35.5 -87.5q0 -52 -37 -89t-106 -37zM186 610q24 0 40.5 14t16.5 44t-16.5 44t-40.5 14q-23 0 -38.5 -15t-15.5 -44q0 -28 15 -42.5t39 -14.5z" />
    <glyph glyph-name="plusminus" unicode="&#xb1;" horiz-adv-x="582" 
d="M232 172v142h-153v106h153v134h111v-134h160v-106h-160v-142h-111zM78 1v107h426v-107h-426z" />
    <glyph glyph-name="uni00B2" unicode="&#xb2;" horiz-adv-x="412" 
d="M38 374l-9 75q67 61 109 101t64.5 66.5t30.5 47t8 42.5q0 31 -17.5 49.5t-48.5 18.5q-20 0 -35.5 -4t-24.5 -12q7 -14 12.5 -24.5t5.5 -20.5q0 -16 -14.5 -30t-39.5 -14q-30 0 -45.5 14.5t-15.5 41.5q0 34 23.5 60t64 40t91.5 14q50 0 89 -13t61.5 -41t22.5 -71
q0 -27 -11 -52t-36 -52.5t-68.5 -62.5t-110.5 -82h89q30 0 44.5 4.5t23 18t19.5 40.5h65l-13 -154h-334z" />
    <glyph glyph-name="uni00B3" unicode="&#xb3;" horiz-adv-x="423" 
d="M199 361q-47 0 -81.5 11.5t-58 29t-38.5 33.5l45 59q14 -12 30.5 -22.5t36 -17t43.5 -6.5q26 0 42.5 7.5t25 21.5t8.5 31q0 24 -13 38t-39 20t-66 4l6 61q53 5 78.5 26.5t25.5 58.5q0 27 -17.5 44t-47.5 17q-17 0 -32 -5t-22 -13q7 -12 13 -22.5t6 -19.5
q0 -18 -14.5 -29.5t-39.5 -11.5q-29 0 -44.5 14t-15.5 38q0 33 23 58t62.5 39t87.5 14q49 0 87 -13t59.5 -38t21.5 -61q0 -41 -31.5 -71t-81.5 -42v-5q58 -6 91.5 -32t33.5 -79q0 -41 -25 -72.5t-66.5 -48t-92.5 -16.5z" />
    <glyph glyph-name="acute" unicode="&#xb4;" horiz-adv-x="500" 
d="M202 575l-35 36l110 158q12 19 23.5 25.5t25.5 6.5q22 0 35.5 -11.5t20 -27t6.5 -28.5q0 -16 -9 -31.5t-29 -28.5z" />
    <glyph glyph-name="uni00B5" unicode="&#xb5;" horiz-adv-x="666" 
d="M98 -225l-16 9q-3 44 -5 93t-3.5 100t-1.5 99v50t-0.5 77t-0.5 90.5v90t-0.5 77t-0.5 49.5l150 10l15 -9q-3 -58 -5.5 -111t-3.5 -102.5t-1.5 -97t-0.5 -92.5q12 -11 31.5 -17.5t43.5 -6.5q48 0 74 31t26 88v30v50t-0.5 62t-0.5 64.5t-0.5 58t-0.5 42.5l151 10l15 -9
q-3 -41 -5 -78.5t-3.5 -73t-2.5 -68.5t-1.5 -62.5t-0.5 -56.5q0 -34 5 -54.5t15.5 -29t28.5 -8.5q9 0 18.5 2t20.5 5l13 -56q-23 -20 -57 -32.5t-66 -12.5q-27 0 -51 12t-40.5 35t-23.5 55h-1q-12 -46 -44 -74t-74 -28q-19 0 -36.5 7t-31.5 19h-2q3 -38 6.5 -75.5t8.5 -74.5
t13 -77z" />
    <glyph glyph-name="paragraph" unicode="&#xb6;" horiz-adv-x="629" 
d="M271 -143v71l84 6q18 2 24.5 12.5t6.5 37.5v717h210v-71l-38 -5q-19 -2 -25.5 -13t-6.5 -37v-718h-255zM293 240q-74 0 -129 24.5t-85 75t-30 126.5q0 77 27 129t82 79t139 27h28v-461h-32z" />
    <glyph glyph-name="periodcentered" unicode="&#xb7;" horiz-adv-x="329" 
d="M164 220q-44 0 -70 23.5t-26 63.5q0 38 26 62.5t70 24.5q46 0 71.5 -24t25.5 -63t-26.5 -63t-70.5 -24z" />
    <glyph glyph-name="cedilla" unicode="&#xb8;" horiz-adv-x="500" 
d="M254 -243q-45 0 -78.5 13.5t-47.5 25.5l21 51q18 -10 37 -14.5t35 -4.5q21 0 33.5 10t12.5 29q0 17 -11 26t-35 9q-10 0 -18.5 -1t-16.5 -3l-12 32l33 83h73l-23 -62q37 5 63.5 -5t40.5 -31.5t14 -51.5q0 -34 -15 -58t-42.5 -36t-63.5 -12z" />
    <glyph glyph-name="uni00B9" unicode="&#xb9;" horiz-adv-x="337" 
d="M34 374v60l55 8q15 2 19.5 10t4.5 22v230q0 21 -4.5 28.5t-26.5 10.5l-57 4l6 61l199 27l15 -12v-351q0 -15 4.5 -21.5t20.5 -8.5l52 -8v-60h-288z" />
    <glyph glyph-name="ordmasculine" unicode="&#xba;" horiz-adv-x="456" 
d="M223 361q-62 0 -105.5 22t-67 63.5t-23.5 98.5q0 71 28.5 114.5t76.5 63t105 19.5q54 0 97.5 -19t69 -59t25.5 -104q0 -65 -25.5 -109.5t-71.5 -67t-109 -22.5zM233 427q25 0 39.5 13t21.5 39.5t7 66.5q0 47 -9 76t-26 42.5t-41 13.5q-21 0 -37 -10.5t-24.5 -34.5
t-8.5 -65q0 -47 8 -78.5t25.5 -47t44.5 -15.5z" />
    <glyph glyph-name="guillemotright" unicode="&#xbb;" horiz-adv-x="542" 
d="M76 39l-53 40l118 189l-118 182l54 41l174 -160q17 -15 26 -30t9 -35q0 -18 -7 -32.5t-26 -32.5zM295 39l-53 40l118 189l-118 182l54 41l174 -160q17 -15 26 -30t9 -35q0 -18 -7 -32.5t-26 -32.5z" />
    <glyph glyph-name="onequarter" unicode="&#xbc;" horiz-adv-x="1000" 
d="M34 259v60l55 8q15 2 19.5 10t4.5 22v230q0 21 -4.5 28.5t-26.5 10.5l-57 4l6 61l199 27l15 -12v-351q0 -15 4.5 -21.5t20.5 -8.5l52 -8v-60h-288zM238 -14l417 728h120l-416 -728h-121zM787 0v86h-203l-10 60l210 309l118 11l14 -10v-298h67v-72h-67v-86h-129zM658 158
h129v177v12z" />
    <glyph glyph-name="onehalf" unicode="&#xbd;" horiz-adv-x="1051" 
d="M34 259v60l55 8q15 2 19.5 10t4.5 22v230q0 21 -4.5 28.5t-26.5 10.5l-57 4l6 61l199 27l15 -12v-351q0 -15 4.5 -21.5t20.5 -8.5l52 -8v-60h-288zM237 -14l417 728h120l-416 -728h-121zM677 13l-9 75q67 61 109 101t64.5 66.5t30.5 47t8 42.5q0 31 -17.5 49.5
t-48.5 18.5q-20 0 -35.5 -4t-24.5 -12q7 -14 12.5 -24.5t5.5 -20.5q0 -16 -14.5 -30t-39.5 -14q-30 0 -45.5 14.5t-15.5 41.5q0 34 23.5 60t64 40t91.5 14q50 0 89 -13t61.5 -41t22.5 -71q0 -27 -11 -52t-36 -52.5t-68.5 -62.5t-110.5 -82h89q30 0 44.5 4.5t23 18t19.5 40.5
h65l-13 -154h-334z" />
    <glyph glyph-name="threequarters" unicode="&#xbe;" horiz-adv-x="1042" 
d="M279 -14l417 728h120l-416 -728h-121zM829 0v86h-203l-10 60l210 309l118 11l14 -10v-298h67v-72h-67v-86h-129zM700 158h129v177v12zM199 236q-47 0 -81.5 11.5t-58 29t-38.5 33.5l45 59q14 -12 30.5 -22.5t36 -17t43.5 -6.5q26 0 42.5 7.5t25 21.5t8.5 31q0 24 -13 38
t-39 20t-66 4l6 61q53 5 78.5 26.5t25.5 58.5q0 27 -17.5 44t-47.5 17q-17 0 -32 -5t-22 -13q7 -12 13 -22.5t6 -19.5q0 -18 -14.5 -29.5t-39.5 -11.5q-29 0 -44.5 14t-15.5 38q0 33 23 58t62.5 39t87.5 14q49 0 87 -13t59.5 -38t21.5 -61q0 -41 -31.5 -71t-81.5 -42v-5
q58 -6 91.5 -32t33.5 -79q0 -41 -25 -72.5t-66.5 -48t-92.5 -16.5z" />
    <glyph glyph-name="questiondown" unicode="&#xbf;" horiz-adv-x="559" 
d="M361 301v-116q0 -26 -6 -46t-21.5 -39.5t-44.5 -42.5q-38 -32 -55 -54.5t-17 -51.5q0 -36 25 -57t67 -21q30 0 52 8t37 21q-12 18 -21 35.5t-9 32.5q0 20 18 36.5t52 16.5q37 0 56.5 -20t19.5 -52q0 -41 -29.5 -76t-82 -56t-122.5 -21q-71 0 -120.5 20t-75.5 56.5
t-26 86.5q0 37 13.5 67.5t41 58.5t67.5 58q27 23 43 38.5t24 27t10.5 21t2.5 19.5v50h101zM310 527q41 0 65.5 -22t24.5 -58q0 -37 -24.5 -59t-65.5 -22q-42 0 -65.5 22t-23.5 59q0 35 24.5 57.5t64.5 22.5z" />
    <glyph glyph-name="Agrave" unicode="&#xc0;" horiz-adv-x="755" 
d="M7 0v73l40 8q19 4 29 15t20 39l204 566h161l204 -570q11 -28 19 -38t28 -14l35 -7v-72h-323v73l47 6q18 3 22.5 15t-3.5 36l-27 82h-237l-27 -78q-7 -21 -5 -36t30 -20l44 -7v-71h-261zM253 293h186l-88 278h-4zM454 743l-169 70q-27 11 -39.5 27.5t-12.5 38.5
q0 25 15.5 46t44.5 21q11 0 21.5 -5.5t25.5 -19.5l142 -135z" />
    <glyph glyph-name="Aacute" unicode="&#xc1;" horiz-adv-x="755" 
d="M7 0v73l40 8q19 4 29 15t20 39l204 566h161l204 -570q11 -28 19 -38t28 -14l35 -7v-72h-323v73l47 6q18 3 22.5 15t-3.5 36l-27 82h-237l-27 -78q-7 -21 -5 -36t30 -20l44 -7v-71h-261zM253 293h186l-88 278h-4zM303 743l-28 43l143 135q15 14 25.5 19.5t21.5 5.5
q28 0 44 -21t16 -46q0 -22 -12.5 -38.5t-40.5 -27.5z" />
    <glyph glyph-name="Acircumflex" unicode="&#xc2;" horiz-adv-x="755" 
d="M7 0v73l40 8q19 4 29 15t20 39l204 566h161l204 -570q11 -28 19 -38t28 -14l35 -7v-72h-323v73l47 6q18 3 22.5 15t-3.5 36l-27 82h-237l-27 -78q-7 -21 -5 -36t30 -20l44 -7v-71h-261zM253 293h186l-88 278h-4zM234 739l-36 43l121 138q17 20 31 28t32 8q17 0 31.5 -8
t32.5 -30l114 -135l-35 -44l-145 89z" />
    <glyph glyph-name="Atilde" unicode="&#xc3;" horiz-adv-x="742" 
d="M7 0v73l40 8q19 4 29 15t20 39l204 566h161l204 -570q11 -28 19 -38t28 -14l35 -7v-72h-323v73l47 6q18 3 22.5 15t-3.5 36l-27 82h-237l-27 -78q-7 -21 -5 -36t30 -20l44 -7v-71h-261zM253 293h186l-88 278h-4zM453 768q-24 0 -46 6t-48 17q-17 8 -31.5 13.5t-26 8.5
t-20.5 3q-12 0 -22.5 -8t-22.5 -31l-50 29q19 46 35.5 72t35.5 37t45 11q22 0 43 -7t48 -19q26 -11 43.5 -17t33.5 -6q14 0 23.5 8t21.5 31l50 -28q-18 -45 -34.5 -71t-35 -37.5t-42.5 -11.5z" />
    <glyph glyph-name="Adieresis" unicode="&#xc4;" horiz-adv-x="755" 
d="M7 0v73l40 8q19 4 29 15t20 39l204 566h161l204 -570q11 -28 19 -38t28 -14l35 -7v-72h-323v73l47 6q18 3 22.5 15t-3.5 36l-27 82h-237l-27 -78q-7 -21 -5 -36t30 -20l44 -7v-71h-261zM253 293h186l-88 278h-4zM493 772q-37 0 -61 22t-24 59q0 35 24 57t61 22
q43 0 64.5 -21.5t21.5 -57.5q0 -37 -24 -59t-62 -22zM263 772q-38 0 -62 22t-24 59q0 35 24 57t62 22q42 0 64 -21.5t22 -57.5q0 -37 -24 -59t-62 -22z" />
    <glyph glyph-name="Aring" unicode="&#xc5;" horiz-adv-x="755" 
d="M7 0v73l40 8q19 4 29 15t20 39l204 566h161l204 -570q11 -28 19 -38t28 -14l35 -7v-72h-323v73l47 6q18 3 22.5 15t-3.5 36l-27 82h-237l-27 -78q-7 -21 -5 -36t30 -20l44 -7v-71h-261zM253 293h186l-88 278h-4zM374 744q-66 0 -101 31t-35 83q0 35 17.5 60t50 38.5
t77.5 13.5q69 0 103.5 -29t34.5 -82q0 -35 -18 -61t-51 -40t-78 -14zM379 798q23 0 33 15.5t10 44.5q0 20 -5 33t-15 19.5t-24 6.5q-23 0 -33 -15.5t-10 -43.5q0 -20 4.5 -33.5t14 -20t25.5 -6.5z" />
    <glyph glyph-name="AE" unicode="&#xc6;" horiz-adv-x="1035" 
d="M7 0v73l39 8q12 3 20 7.5t15.5 15t16.5 30.5l234 486l-71 10v71h686l34 -185l-89 -15q-10 35 -21 58t-25 36t-35 18.5t-53 5.5h-96v-234h57q20 0 32 3t18.5 10.5t11 22.5t9.5 38l67 6v-230l-68 -11q-5 34 -10.5 50.5t-19 22.5t-41.5 6h-56v-220h114q33 0 54 6.5t35 20.5
t24 39.5t19 63.5h90l-25 -213h-552v71l43 8q20 4 26 14t6 37v172h-208l-77 -162q-6 -13 -8.5 -24t-1 -18.5t8 -12t18.5 -6.5l49 -8l-1 -71h-269zM326 384h170v235h-64z" />
    <glyph glyph-name="Ccedilla" unicode="&#xc7;" horiz-adv-x="709" 
d="M384 -243q-45 0 -78.5 13.5t-48.5 25.5l22 51q18 -10 37 -14.5t35 -4.5q21 0 33 10t12 29q0 17 -10.5 26t-34.5 9q-11 0 -19.5 -1t-16.5 -3l-11 32l23 59q-88 11 -151.5 57t-98.5 123t-35 180q0 82 24 149.5t68.5 116t107 74.5t139.5 26q50 0 89.5 -14.5t70.5 -40.5
l11 56h65l39 -245l-81 -16q-20 60 -46.5 96t-60 52t-75.5 16q-59 0 -98 -29.5t-58.5 -86t-19.5 -137.5q0 -71 16 -121.5t44 -83t65 -47.5t78 -15q43 0 78.5 11.5t63.5 32.5t49 46l56 -64q-17 -24 -41 -46.5t-54.5 -41.5t-67.5 -31t-80 -16l-12 -2t-12 -1l-14 -36
q38 5 64.5 -5t40.5 -31.5t14 -51.5q0 -34 -15 -58t-42.5 -36t-63.5 -12z" />
    <glyph glyph-name="Egrave" unicode="&#xc8;" 
d="M49 0v71l43 8q19 3 25 12.5t6 38.5v446q0 26 -6.5 35t-26.5 12l-41 7v71h526l35 -185l-89 -15q-11 35 -21.5 58t-25 36t-35.5 18.5t-53 5.5h-96v-222h57q25 0 37.5 5t19.5 21t14 48l67 6v-233l-67 -10q-5 33 -11.5 50t-20.5 22.5t-40 5.5h-56v-229h114q33 0 54.5 6.5
t35.5 20.5t23.5 39.5t19.5 63.5h90l-26 -213h-552zM410 743l-169 70q-27 11 -39.5 27.5t-12.5 38.5q0 25 15.5 46t44.5 21q11 0 21.5 -5.5t25.5 -19.5l142 -135z" />
    <glyph glyph-name="Eacute" unicode="&#xc9;" 
d="M49 0v71l43 8q19 3 25 12.5t6 38.5v446q0 26 -6.5 35t-26.5 12l-41 7v71h526l35 -185l-89 -15q-11 35 -21.5 58t-25 36t-35.5 18.5t-53 5.5h-96v-222h57q25 0 37.5 5t19.5 21t14 48l67 6v-233l-67 -10q-5 33 -11.5 50t-20.5 22.5t-40 5.5h-56v-229h114q33 0 54.5 6.5
t35.5 20.5t23.5 39.5t19.5 63.5h90l-26 -213h-552zM259 743l-28 43l143 135q15 14 25.5 19.5t21.5 5.5q28 0 44 -21t16 -46q0 -22 -12.5 -38.5t-40.5 -27.5z" />
    <glyph glyph-name="Ecircumflex" unicode="&#xca;" 
d="M49 0v71l43 8q19 3 25 12.5t6 38.5v446q0 26 -6.5 35t-26.5 12l-41 7v71h526l35 -185l-89 -15q-11 35 -21.5 58t-25 36t-35.5 18.5t-53 5.5h-96v-222h57q25 0 37.5 5t19.5 21t14 48l67 6v-233l-67 -10q-5 33 -11.5 50t-20.5 22.5t-40 5.5h-56v-229h114q33 0 54.5 6.5
t35.5 20.5t23.5 39.5t19.5 63.5h90l-26 -213h-552zM190 739l-36 43l121 138q17 20 31 28t32 8q17 0 31.5 -8t32.5 -30l114 -135l-35 -44l-145 89z" />
    <glyph glyph-name="Edieresis" unicode="&#xcb;" 
d="M49 0v71l43 8q19 3 25 12.5t6 38.5v446q0 26 -6.5 35t-26.5 12l-41 7v71h526l35 -185l-89 -15q-11 35 -21.5 58t-25 36t-35.5 18.5t-53 5.5h-96v-222h57q25 0 37.5 5t19.5 21t14 48l67 6v-233l-67 -10q-5 33 -11.5 50t-20.5 22.5t-40 5.5h-56v-229h114q33 0 54.5 6.5
t35.5 20.5t23.5 39.5t19.5 63.5h90l-26 -213h-552zM449 772q-37 0 -61 22t-24 59q0 35 24 57t61 22q43 0 64.5 -21.5t21.5 -57.5q0 -37 -24 -59t-62 -22zM219 772q-38 0 -62 22t-24 59q0 35 24 57t62 22q42 0 64 -21.5t22 -57.5q0 -37 -24 -59t-62 -22z" />
    <glyph glyph-name="Igrave" unicode="&#xcc;" horiz-adv-x="417" 
d="M49 0v71l45 8q20 4 25.5 14t5.5 36v446q0 26 -6.5 35.5t-27.5 12.5l-42 7v71h319v-71l-46 -8q-17 -3 -23.5 -13t-6.5 -37v-446q0 -26 6 -34.5t26 -12.5l44 -8v-71h-319zM284 743l-169 70q-27 11 -39.5 27.5t-12.5 38.5q0 25 15.5 46t44.5 21q11 0 21.5 -5.5t25.5 -19.5
l142 -135z" />
    <glyph glyph-name="Iacute" unicode="&#xcd;" horiz-adv-x="417" 
d="M49 0v71l45 8q20 4 25.5 14t5.5 36v446q0 26 -6.5 35.5t-27.5 12.5l-42 7v71h319v-71l-46 -8q-17 -3 -23.5 -13t-6.5 -37v-446q0 -26 6 -34.5t26 -12.5l44 -8v-71h-319zM133 743l-28 43l143 135q15 14 25.5 19.5t21.5 5.5q28 0 44 -21t16 -46q0 -22 -12.5 -38.5
t-40.5 -27.5z" />
    <glyph glyph-name="Icircumflex" unicode="&#xce;" horiz-adv-x="417" 
d="M49 0v71l45 8q20 4 25.5 14t5.5 36v446q0 26 -6.5 35.5t-27.5 12.5l-42 7v71h319v-71l-46 -8q-17 -3 -23.5 -13t-6.5 -37v-446q0 -26 6 -34.5t26 -12.5l44 -8v-71h-319zM64 739l-36 43l121 138q17 20 31 28t32 8q17 0 31.5 -8t32.5 -30l114 -135l-35 -44l-145 89z" />
    <glyph glyph-name="Idieresis" unicode="&#xcf;" horiz-adv-x="417" 
d="M49 0v71l45 8q20 4 25.5 14t5.5 36v446q0 26 -6.5 35.5t-27.5 12.5l-42 7v71h319v-71l-46 -8q-17 -3 -23.5 -13t-6.5 -37v-446q0 -26 6 -34.5t26 -12.5l44 -8v-71h-319zM323 772q-37 0 -61 22t-24 59q0 35 24 57t61 22q43 0 64.5 -21.5t21.5 -57.5q0 -37 -24 -59t-62 -22
zM93 772q-38 0 -62 22t-24 59q0 35 24 57t62 22q42 0 64 -21.5t22 -57.5q0 -37 -24 -59t-62 -22z" />
    <glyph glyph-name="Eth" unicode="&#xd0;" horiz-adv-x="778" 
d="M370 701q60 0 114.5 -11t100.5 -34.5t79.5 -62.5t52.5 -93.5t19 -128.5q0 -90 -26.5 -159t-79 -116.5t-130.5 -71.5t-181 -24h-270v71l43 8q19 3 25 12.5t6 38.5v183h-107l10 94h97v169q0 25 -6.5 34.5t-26.5 12.5l-41 7v71h321zM348 91q57 0 97 16t65.5 50t37.5 85.5
t12 121.5q0 84 -23.5 138.5t-68.5 81t-110 26.5h-68v-203h142v-94h-142v-218q12 -2 27.5 -3t30.5 -1z" />
    <glyph glyph-name="Ntilde" unicode="&#xd1;" horiz-adv-x="837" 
d="M49 0v71l43 8q18 3 24.5 13t6.5 38v445q0 26 -6.5 35.5t-26.5 12.5l-41 7v71h256l297 -496l2 4v366q0 25 -6.5 34.5t-26.5 12.5l-40 8v71h259v-71l-42 -7q-18 -3 -24.5 -13t-6.5 -38v-572h-173l-306 497l-2 -4v-367q0 -27 6.5 -35t25.5 -12l41 -8v-71h-260zM492 768
q-24 0 -46 6t-48 17q-17 8 -31.5 13.5t-26 8.5t-20.5 3q-12 0 -22.5 -8t-22.5 -31l-50 29q19 46 35.5 72t35.5 37t45 11q22 0 43 -7t48 -19q26 -11 43.5 -17t33.5 -6q14 0 23.5 8t21.5 31l50 -28q-18 -45 -34.5 -71t-35 -37.5t-42.5 -11.5z" />
    <glyph glyph-name="Ograve" unicode="&#xd2;" horiz-adv-x="777" 
d="M383 -14q-111 0 -187 45t-115 125t-39 182q0 120 44.5 204t125 128.5t188.5 44.5q101 0 176 -41t116.5 -118.5t41.5 -188.5q0 -81 -23 -150.5t-67.5 -121.5t-110 -80.5t-150.5 -28.5zM396 84q39 0 69.5 14.5t50.5 46t30.5 82.5t10.5 123q0 67 -11.5 117t-33.5 84t-54 51
t-74 17q-40 0 -71 -15t-52.5 -47t-32 -81.5t-10.5 -117.5q0 -67 11.5 -118t34 -86t55.5 -52.5t77 -17.5zM465 743l-169 70q-27 11 -39.5 27.5t-12.5 38.5q0 25 15.5 46t44.5 21q11 0 21.5 -5.5t25.5 -19.5l142 -135z" />
    <glyph glyph-name="Oacute" unicode="&#xd3;" horiz-adv-x="777" 
d="M383 -14q-111 0 -187 45t-115 125t-39 182q0 120 44.5 204t125 128.5t188.5 44.5q101 0 176 -41t116.5 -118.5t41.5 -188.5q0 -81 -23 -150.5t-67.5 -121.5t-110 -80.5t-150.5 -28.5zM396 84q39 0 69.5 14.5t50.5 46t30.5 82.5t10.5 123q0 67 -11.5 117t-33.5 84t-54 51
t-74 17q-40 0 -71 -15t-52.5 -47t-32 -81.5t-10.5 -117.5q0 -67 11.5 -118t34 -86t55.5 -52.5t77 -17.5zM314 743l-28 43l143 135q15 14 25.5 19.5t21.5 5.5q28 0 44 -21t16 -46q0 -22 -12.5 -38.5t-40.5 -27.5z" />
    <glyph glyph-name="Ocircumflex" unicode="&#xd4;" horiz-adv-x="777" 
d="M383 -14q-111 0 -187 45t-115 125t-39 182q0 120 44.5 204t125 128.5t188.5 44.5q101 0 176 -41t116.5 -118.5t41.5 -188.5q0 -81 -23 -150.5t-67.5 -121.5t-110 -80.5t-150.5 -28.5zM396 84q39 0 69.5 14.5t50.5 46t30.5 82.5t10.5 123q0 67 -11.5 117t-33.5 84t-54 51
t-74 17q-40 0 -71 -15t-52.5 -47t-32 -81.5t-10.5 -117.5q0 -67 11.5 -118t34 -86t55.5 -52.5t77 -17.5zM245 739l-36 43l121 138q17 20 31 28t32 8q17 0 31.5 -8t32.5 -30l114 -135l-35 -44l-145 89z" />
    <glyph glyph-name="Otilde" unicode="&#xd5;" horiz-adv-x="777" 
d="M383 -14q-111 0 -187 45t-115 125t-39 182q0 120 44.5 204t125 128.5t188.5 44.5q101 0 176 -41t116.5 -118.5t41.5 -188.5q0 -81 -23 -150.5t-67.5 -121.5t-110 -80.5t-150.5 -28.5zM396 84q39 0 69.5 14.5t50.5 46t30.5 82.5t10.5 123q0 67 -11.5 117t-33.5 84t-54 51
t-74 17q-40 0 -71 -15t-52.5 -47t-32 -81.5t-10.5 -117.5q0 -67 11.5 -118t34 -86t55.5 -52.5t77 -17.5zM468 768q-24 0 -46 6t-48 17q-17 8 -31.5 13.5t-26 8.5t-20.5 3q-12 0 -22.5 -8t-22.5 -31l-50 29q19 46 35.5 72t35.5 37t45 11q22 0 43 -7t48 -19q26 -11 43.5 -17
t33.5 -6q14 0 23.5 8t21.5 31l50 -28q-18 -45 -34.5 -71t-35 -37.5t-42.5 -11.5z" />
    <glyph glyph-name="Odieresis" unicode="&#xd6;" horiz-adv-x="777" 
d="M383 -14q-111 0 -187 45t-115 125t-39 182q0 120 44.5 204t125 128.5t188.5 44.5q101 0 176 -41t116.5 -118.5t41.5 -188.5q0 -81 -23 -150.5t-67.5 -121.5t-110 -80.5t-150.5 -28.5zM396 84q39 0 69.5 14.5t50.5 46t30.5 82.5t10.5 123q0 67 -11.5 117t-33.5 84t-54 51
t-74 17q-40 0 -71 -15t-52.5 -47t-32 -81.5t-10.5 -117.5q0 -67 11.5 -118t34 -86t55.5 -52.5t77 -17.5zM504 772q-37 0 -61 22t-24 59q0 35 24 57t61 22q43 0 64.5 -21.5t21.5 -57.5q0 -37 -24 -59t-62 -22zM274 772q-38 0 -62 22t-24 59q0 35 24 57t62 22q42 0 64 -21.5
t22 -57.5q0 -37 -24 -59t-62 -22z" />
    <glyph glyph-name="multiply" unicode="&#xd7;" horiz-adv-x="582" 
d="M410 110l-120 121l-120 -119l-73 73l119 121l-118 116l73 73l118 -117l121 122l73 -75l-121 -121l121 -121z" />
    <glyph glyph-name="Oslash" unicode="&#xd8;" horiz-adv-x="777" 
d="M29 -14l91 109q-39 46 -58.5 108t-19.5 135q0 120 44.5 204t125 128.5t188.5 44.5q57 0 106 -13.5t88 -40.5l45 54h110l-91 -108q37 -44 56.5 -104.5t19.5 -135.5q0 -81 -23 -150.5t-67.5 -121.5t-110 -80.5t-150.5 -28.5q-59 0 -109 14t-90 40l-45 -54h-110zM396 84
q39 0 69.5 14.5t50.5 46t30.5 82.5t10.5 123q0 33 -4 62.5t-13 53.5l-269 -322q15 -20 34 -33t41.5 -20t49.5 -7zM238 235l269 323q-14 20 -33 33.5t-41.5 20.5t-48.5 7q-40 0 -71 -15t-52.5 -47t-32 -81.5t-10.5 -117.5q0 -36 5 -66.5t15 -56.5z" />
    <glyph glyph-name="Ugrave" unicode="&#xd9;" horiz-adv-x="785" 
d="M396 -14q-80 0 -135 20t-87.5 56t-47 86t-14.5 110v316q0 26 -6.5 36t-27.5 13l-41 7v71h315v-71l-44 -8q-18 -3 -24 -13.5t-6 -36.5v-314q0 -55 15 -92t46.5 -55.5t84.5 -18.5q56 0 89 20t48 57.5t15 90.5v314q0 26 -6.5 36t-27.5 13l-40 7v71h248v-71l-42 -8
q-19 -3 -25.5 -13.5t-6.5 -38.5v-299q0 -96 -31.5 -159t-93.5 -94.5t-155 -31.5zM493 743l-169 70q-27 11 -39.5 27.5t-12.5 38.5q0 25 15.5 46t44.5 21q11 0 21.5 -5.5t25.5 -19.5l142 -135z" />
    <glyph glyph-name="Uacute" unicode="&#xda;" horiz-adv-x="785" 
d="M396 -14q-80 0 -135 20t-87.5 56t-47 86t-14.5 110v316q0 26 -6.5 36t-27.5 13l-41 7v71h315v-71l-44 -8q-18 -3 -24 -13.5t-6 -36.5v-314q0 -55 15 -92t46.5 -55.5t84.5 -18.5q56 0 89 20t48 57.5t15 90.5v314q0 26 -6.5 36t-27.5 13l-40 7v71h248v-71l-42 -8
q-19 -3 -25.5 -13.5t-6.5 -38.5v-299q0 -96 -31.5 -159t-93.5 -94.5t-155 -31.5zM342 743l-28 43l143 135q15 14 25.5 19.5t21.5 5.5q28 0 44 -21t16 -46q0 -22 -12.5 -38.5t-40.5 -27.5z" />
    <glyph glyph-name="Ucircumflex" unicode="&#xdb;" horiz-adv-x="785" 
d="M396 -14q-80 0 -135 20t-87.5 56t-47 86t-14.5 110v316q0 26 -6.5 36t-27.5 13l-41 7v71h315v-71l-44 -8q-18 -3 -24 -13.5t-6 -36.5v-314q0 -55 15 -92t46.5 -55.5t84.5 -18.5q56 0 89 20t48 57.5t15 90.5v314q0 26 -6.5 36t-27.5 13l-40 7v71h248v-71l-42 -8
q-19 -3 -25.5 -13.5t-6.5 -38.5v-299q0 -96 -31.5 -159t-93.5 -94.5t-155 -31.5zM273 739l-36 43l121 138q17 20 31 28t32 8q17 0 31.5 -8t32.5 -30l114 -135l-35 -44l-145 89z" />
    <glyph glyph-name="Udieresis" unicode="&#xdc;" horiz-adv-x="785" 
d="M396 -14q-80 0 -135 20t-87.5 56t-47 86t-14.5 110v316q0 26 -6.5 36t-27.5 13l-41 7v71h315v-71l-44 -8q-18 -3 -24 -13.5t-6 -36.5v-314q0 -55 15 -92t46.5 -55.5t84.5 -18.5q56 0 89 20t48 57.5t15 90.5v314q0 26 -6.5 36t-27.5 13l-40 7v71h248v-71l-42 -8
q-19 -3 -25.5 -13.5t-6.5 -38.5v-299q0 -96 -31.5 -159t-93.5 -94.5t-155 -31.5zM532 772q-37 0 -61 22t-24 59q0 35 24 57t61 22q43 0 64.5 -21.5t21.5 -57.5q0 -37 -24 -59t-62 -22zM302 772q-38 0 -62 22t-24 59q0 35 24 57t62 22q42 0 64 -21.5t22 -57.5q0 -37 -24 -59
t-62 -22z" />
    <glyph glyph-name="Yacute" unicode="&#xdd;" horiz-adv-x="745" 
d="M200 0v71l59 8q19 2 25 12t6 39v137l-180 302q-13 22 -24.5 35t-35.5 17l-40 7v73h334v-72l-50 -7q-19 -2 -23 -14.5t10 -35.5l123 -202h5l115 196q14 24 10.5 37t-28.5 18l-47 9v71h276v-72l-50 -9q-17 -3 -28.5 -14.5t-28.5 -40.5l-174 -296v-143q0 -25 6 -35t26 -12
l59 -8v-71h-345zM321 743l-28 43l143 135q15 14 25.5 19.5t21.5 5.5q28 0 44 -21t16 -46q0 -22 -12.5 -38.5t-40.5 -27.5z" />
    <glyph glyph-name="Thorn" unicode="&#xde;" horiz-adv-x="658" 
d="M49 0v71l43 8q19 3 25 12.5t6 38.5v439q0 25 -6 36.5t-25 14.5l-43 8v71h350v-71l-71 -8q-22 -3 -30 -11t-8 -30v-30h65q52 0 95 -6t77.5 -19t58.5 -34.5t37 -53.5t13 -75q0 -44 -16 -78t-42.5 -58t-60 -39.5t-70 -22.5t-69.5 -7q-15 0 -31.5 0.5t-31.5 1t-25 1.5v-39
q0 -20 6.5 -29t31.5 -12l71 -8v-71h-350zM290 241q11 -1 24.5 -1h25.5q31 0 54.5 8t39 24t23.5 39t8 53q0 37 -14 60.5t-42 35t-71 11.5h-48v-230z" />
    <glyph glyph-name="germandbls" unicode="&#xdf;" horiz-adv-x="763" 
d="M332 -14l-15 179l81 4q8 -24 21 -43t30 -33t38.5 -21t45.5 -7q22 0 39.5 7.5t27.5 22t10 35.5q0 26 -17 41.5t-43.5 26.5t-56.5 22t-56.5 27.5t-44 42.5t-17.5 69q0 35 11.5 60.5t27.5 47l32 43t27 48t11 62.5q0 37 -14.5 56.5t-37.5 27.5t-47 8q-27 0 -49 -8
t-37.5 -24.5t-24 -42t-8.5 -61.5v-576h-234v69l44 8q21 4 26 15t5 36v297h-75v71l76 14v26q0 58 19.5 103.5t56.5 77.5t90 48.5t121 16.5q66 0 119 -15t83.5 -45.5t30.5 -77.5q0 -31 -12.5 -55.5t-32 -44.5t-38.5 -39t-32 -38t-13 -42q0 -27 17.5 -44t45.5 -29t58.5 -25
t58.5 -31.5t45.5 -48t17.5 -75.5q0 -53 -26 -95.5t-71 -66.5t-103 -24q-53 0 -85.5 14t-50.5 26l-11 -40h-64z" />
    <glyph glyph-name="agrave" unicode="&#xe0;" horiz-adv-x="578" 
d="M190 -14q-72 0 -112.5 37t-40.5 99q0 60 30.5 94t94.5 49.5t165 19.5v68q0 37 -8 60.5t-26 35t-51 11.5q-22 0 -44.5 -6.5t-36.5 -16.5q10 -15 15.5 -27t8.5 -20t3 -14q0 -22 -19.5 -37t-55.5 -15q-34 0 -51 16.5t-17 43.5q0 40 28.5 72t79 51t116.5 19q75 0 122.5 -20.5
t71 -63t23.5 -107.5v-210q0 -23 9 -34t29 -11q10 0 20 2t20 5l13 -56q-20 -18 -53 -31.5t-68 -13.5q-48 0 -76.5 23t-35.5 60q-14 -23 -35 -42t-50 -30t-69 -11zM252 73q23 0 39.5 9.5t26 27t9.5 40.5v70q-45 0 -75 -8.5t-44 -26.5t-14 -46q0 -30 14.5 -48t43.5 -18z
M321 575l-148 99q-19 13 -28.5 28.5t-9.5 31.5q0 13 6.5 28.5t20.5 27t35 11.5q15 0 26 -6.5t24 -25.5l109 -158z" />
    <glyph glyph-name="aacute" unicode="&#xe1;" horiz-adv-x="578" 
d="M190 -14q-72 0 -112.5 37t-40.5 99q0 60 30.5 94t94.5 49.5t165 19.5v68q0 37 -8 60.5t-26 35t-51 11.5q-22 0 -44.5 -6.5t-36.5 -16.5q10 -15 15.5 -27t8.5 -20t3 -14q0 -22 -19.5 -37t-55.5 -15q-34 0 -51 16.5t-17 43.5q0 40 28.5 72t79 51t116.5 19q75 0 122.5 -20.5
t71 -63t23.5 -107.5v-210q0 -23 9 -34t29 -11q10 0 20 2t20 5l13 -56q-20 -18 -53 -31.5t-68 -13.5q-48 0 -76.5 23t-35.5 60q-14 -23 -35 -42t-50 -30t-69 -11zM252 73q23 0 39.5 9.5t26 27t9.5 40.5v70q-45 0 -75 -8.5t-44 -26.5t-14 -46q0 -30 14.5 -48t43.5 -18z
M224 575l-35 36l110 158q12 19 23.5 25.5t25.5 6.5q22 0 35.5 -11.5t20 -27t6.5 -28.5q0 -16 -9 -31.5t-29 -28.5z" />
    <glyph glyph-name="acircumflex" unicode="&#xe2;" horiz-adv-x="578" 
d="M190 -14q-72 0 -112.5 37t-40.5 99q0 60 30.5 94t94.5 49.5t165 19.5v68q0 37 -8 60.5t-26 35t-51 11.5q-22 0 -44.5 -6.5t-36.5 -16.5q10 -15 15.5 -27t8.5 -20t3 -14q0 -22 -19.5 -37t-55.5 -15q-34 0 -51 16.5t-17 43.5q0 40 28.5 72t79 51t116.5 19q75 0 122.5 -20.5
t71 -63t23.5 -107.5v-210q0 -23 9 -34t29 -11q10 0 20 2t20 5l13 -56q-20 -18 -53 -31.5t-68 -13.5q-48 0 -76.5 23t-35.5 60q-14 -23 -35 -42t-50 -30t-69 -11zM252 73q23 0 39.5 9.5t26 27t9.5 40.5v70q-45 0 -75 -8.5t-44 -26.5t-14 -46q0 -30 14.5 -48t43.5 -18z
M133 575l-40 38l112 152q17 23 32.5 30.5t35.5 7.5q19 0 30.5 -4.5t21.5 -15t22 -27.5l105 -142l-40 -39l-139 105z" />
    <glyph glyph-name="atilde" unicode="&#xe3;" horiz-adv-x="578" 
d="M190 -14q-72 0 -112.5 37t-40.5 99q0 60 30.5 94t94.5 49.5t165 19.5v68q0 37 -8 60.5t-26 35t-51 11.5q-22 0 -44.5 -6.5t-36.5 -16.5q10 -15 15.5 -27t8.5 -20t3 -14q0 -22 -19.5 -37t-55.5 -15q-34 0 -51 16.5t-17 43.5q0 40 28.5 72t79 51t116.5 19q75 0 122.5 -20.5
t71 -63t23.5 -107.5v-210q0 -23 9 -34t29 -11q10 0 20 2t20 5l13 -56q-20 -18 -53 -31.5t-68 -13.5q-48 0 -76.5 23t-35.5 60q-14 -23 -35 -42t-50 -30t-69 -11zM252 73q23 0 39.5 9.5t26 27t9.5 40.5v70q-45 0 -75 -8.5t-44 -26.5t-14 -46q0 -30 14.5 -48t43.5 -18z
M348 607q-23 0 -44.5 6t-47.5 17q-21 10 -34.5 15t-23.5 7.5t-19 2.5q-12 0 -22.5 -8t-22.5 -31l-50 29q19 46 35.5 71.5t35.5 36t45 10.5q23 0 43 -6.5t46 -18.5q27 -10 44.5 -16.5t31.5 -6.5q15 0 24.5 8.5t20.5 30.5l50 -28q-18 -44 -34 -70t-34.5 -37.5t-43.5 -11.5z
" />
    <glyph glyph-name="adieresis" unicode="&#xe4;" horiz-adv-x="578" 
d="M190 -14q-72 0 -112.5 37t-40.5 99q0 60 30.5 94t94.5 49.5t165 19.5v68q0 37 -8 60.5t-26 35t-51 11.5q-22 0 -44.5 -6.5t-36.5 -16.5q10 -15 15.5 -27t8.5 -20t3 -14q0 -22 -19.5 -37t-55.5 -15q-34 0 -51 16.5t-17 43.5q0 40 28.5 72t79 51t116.5 19q75 0 122.5 -20.5
t71 -63t23.5 -107.5v-210q0 -23 9 -34t29 -11q10 0 20 2t20 5l13 -56q-20 -18 -53 -31.5t-68 -13.5q-48 0 -76.5 23t-35.5 60q-14 -23 -35 -42t-50 -30t-69 -11zM252 73q23 0 39.5 9.5t26 27t9.5 40.5v70q-45 0 -75 -8.5t-44 -26.5t-14 -46q0 -30 14.5 -48t43.5 -18z
M390 608q-37 0 -61 21.5t-24 58.5q0 35 24 56.5t61 21.5q42 0 64 -21.5t22 -56.5q0 -36 -24 -58t-62 -22zM162 608q-38 0 -61.5 21.5t-23.5 58.5q0 35 23.5 56.5t61.5 21.5q42 0 63.5 -21.5t21.5 -56.5q0 -36 -24 -58t-61 -22z" />
    <glyph glyph-name="aring" unicode="&#xe5;" horiz-adv-x="578" 
d="M190 -14q-72 0 -112.5 37t-40.5 99q0 60 30.5 94t94.5 49.5t165 19.5v68q0 37 -8 60.5t-26 35t-51 11.5q-22 0 -44.5 -6.5t-36.5 -16.5q10 -15 15.5 -27t8.5 -20t3 -14q0 -22 -19.5 -37t-55.5 -15q-34 0 -51 16.5t-17 43.5q0 40 28.5 72t79 51t116.5 19q75 0 122.5 -20.5
t71 -63t23.5 -107.5v-210q0 -23 9 -34t29 -11q10 0 20 2t20 5l13 -56q-20 -18 -53 -31.5t-68 -13.5q-48 0 -76.5 23t-35.5 60q-14 -23 -35 -42t-50 -30t-69 -11zM252 73q23 0 39.5 9.5t26 27t9.5 40.5v70q-45 0 -75 -8.5t-44 -26.5t-14 -46q0 -30 14.5 -48t43.5 -18z
M267 580q-65 0 -100 31t-35 82q0 35 17.5 60t49.5 38.5t77 13.5q69 0 103 -29t34 -82q0 -35 -18 -60.5t-50.5 -39.5t-77.5 -14zM272 634q16 0 24.5 7t13 20t4.5 32q0 21 -5 33.5t-14.5 18.5t-23.5 6q-15 0 -24 -6.5t-13.5 -19.5t-4.5 -32q0 -20 4.5 -33t14 -19.5t24.5 -6.5z
" />
    <glyph glyph-name="ae" unicode="&#xe6;" horiz-adv-x="849" 
d="M190 -14q-43 0 -77.5 15t-55 45.5t-20.5 76.5q0 65 38.5 101t109.5 48q31 6 68 9t74 4v68q0 39 -8.5 62.5t-27 34t-49.5 10.5q-25 0 -46.5 -7t-34.5 -16q10 -16 15.5 -27.5t8.5 -19.5t3 -14q0 -21 -19 -36.5t-56 -15.5q-36 0 -52 17.5t-16 42.5q0 40 28.5 72.5t79.5 51
t116 18.5q50 0 90.5 -13.5t69.5 -46.5q34 30 76 45t90 15q65 0 113.5 -22t76 -65t27.5 -105q0 -25 -3 -50.5t-9 -48.5h-313q2 -42 18.5 -72.5t46 -46t69.5 -15.5q51 0 86.5 16.5t64.5 37.5l47 -55q-36 -46 -95.5 -80t-140.5 -34q-71 0 -122.5 23.5t-80.5 64.5
q-21 -33 -51 -52.5t-65 -27.5t-74 -8zM252 73q17 0 34.5 7.5t29 25t11.5 46.5v68q-20 0 -38.5 -2.5t-31.5 -5.5q-36 -8 -49.5 -28.5t-13.5 -44.5q0 -33 16 -49.5t42 -16.5zM486 313h170q2 12 3 24t1 24q0 43 -19 65.5t-55 22.5t-57 -19.5t-30.5 -50.5t-12.5 -66z" />
    <glyph glyph-name="ccedilla" unicode="&#xe7;" horiz-adv-x="543" 
d="M304 -243q-45 0 -78.5 13.5t-47.5 25.5l22 51q18 -10 36.5 -14.5t34.5 -4.5q21 0 33.5 10t12.5 29q0 17 -11 26t-35 9q-10 0 -18.5 -1t-16.5 -3l-11 32l23 59q-67 8 -114.5 42t-72 89t-24.5 126q0 84 32.5 147t94 98t147.5 35q63 0 108.5 -19t70 -50.5t24.5 -68.5
q0 -22 -8.5 -40.5t-27 -30t-47.5 -11.5q-34 0 -53.5 15t-19.5 41q0 12 5.5 26.5t19.5 39.5q-16 10 -33 14t-41 4q-33 0 -57.5 -19.5t-38 -57t-13.5 -91.5q0 -86 35 -131t103 -45q37 0 70 11t68 36l45 -59q-34 -42 -84 -70t-116 -33l-14 -36q38 5 64.5 -5t40 -31.5
t13.5 -51.5q0 -34 -15 -58t-42 -36t-64 -12z" />
    <glyph glyph-name="egrave" unicode="&#xe8;" horiz-adv-x="565" 
d="M298 -14q-84 0 -142.5 32t-88.5 90.5t-30 135.5q0 90 35 153t97 96t142 33q66 0 114.5 -22.5t75 -65.5t26.5 -104q0 -24 -2.5 -49.5t-8.5 -48.5h-314q3 -44 20 -74.5t46.5 -45.5t68.5 -15q45 0 81 14t69 40l48 -55q-39 -51 -100 -82.5t-137 -31.5zM202 313h170
q2 12 2.5 24t0.5 24q0 43 -18.5 65.5t-54.5 22.5q-31 0 -52.5 -16.5t-33 -47t-14.5 -72.5zM349 575l-148 99q-19 13 -28.5 28.5t-9.5 31.5q0 13 6.5 28.5t20.5 27t35 11.5q15 0 26 -6.5t24 -25.5l109 -158z" />
    <glyph glyph-name="eacute" unicode="&#xe9;" horiz-adv-x="565" 
d="M298 -14q-84 0 -142.5 32t-88.5 90.5t-30 135.5q0 90 35 153t97 96t142 33q66 0 114.5 -22.5t75 -65.5t26.5 -104q0 -24 -2.5 -49.5t-8.5 -48.5h-314q3 -44 20 -74.5t46.5 -45.5t68.5 -15q45 0 81 14t69 40l48 -55q-39 -51 -100 -82.5t-137 -31.5zM202 313h170
q2 12 2.5 24t0.5 24q0 43 -18.5 65.5t-54.5 22.5q-31 0 -52.5 -16.5t-33 -47t-14.5 -72.5zM252 575l-35 36l110 158q12 19 23.5 25.5t25.5 6.5q22 0 35.5 -11.5t20 -27t6.5 -28.5q0 -16 -9 -31.5t-29 -28.5z" />
    <glyph glyph-name="ecircumflex" unicode="&#xea;" horiz-adv-x="565" 
d="M298 -14q-84 0 -142.5 32t-88.5 90.5t-30 135.5q0 90 35 153t97 96t142 33q66 0 114.5 -22.5t75 -65.5t26.5 -104q0 -24 -2.5 -49.5t-8.5 -48.5h-314q3 -44 20 -74.5t46.5 -45.5t68.5 -15q45 0 81 14t69 40l48 -55q-39 -51 -100 -82.5t-137 -31.5zM202 313h170
q2 12 2.5 24t0.5 24q0 43 -18.5 65.5t-54.5 22.5q-31 0 -52.5 -16.5t-33 -47t-14.5 -72.5zM161 575l-40 38l112 152q17 23 32.5 30.5t35.5 7.5q19 0 30.5 -4.5t21.5 -15t22 -27.5l105 -142l-40 -39l-139 105z" />
    <glyph glyph-name="edieresis" unicode="&#xeb;" horiz-adv-x="565" 
d="M298 -14q-84 0 -142.5 32t-88.5 90.5t-30 135.5q0 90 35 153t97 96t142 33q66 0 114.5 -22.5t75 -65.5t26.5 -104q0 -24 -2.5 -49.5t-8.5 -48.5h-314q3 -44 20 -74.5t46.5 -45.5t68.5 -15q45 0 81 14t69 40l48 -55q-39 -51 -100 -82.5t-137 -31.5zM202 313h170
q2 12 2.5 24t0.5 24q0 43 -18.5 65.5t-54.5 22.5q-31 0 -52.5 -16.5t-33 -47t-14.5 -72.5zM418 608q-37 0 -61 21.5t-24 58.5q0 35 24 56.5t61 21.5q42 0 64 -21.5t22 -56.5q0 -36 -24 -58t-62 -22zM190 608q-38 0 -61.5 21.5t-23.5 58.5q0 35 23.5 56.5t61.5 21.5
q42 0 63.5 -21.5t21.5 -56.5q0 -36 -24 -58t-61 -22z" />
    <glyph glyph-name="igrave" unicode="&#xec;" horiz-adv-x="364" 
d="M34 0v70l46 8q18 3 23 12.5t5 36.5v236q0 36 -6 47.5t-29 15.5l-39 6l7 75l211 11l15 -8v-385q0 -25 5.5 -34.5t23.5 -12.5l45 -9v-69h-307zM200 575l-148 99q-19 13 -28.5 28.5t-9.5 31.5q0 13 6.5 28.5t20.5 27t35 11.5q15 0 26 -6.5t24 -25.5l109 -158z" />
    <glyph glyph-name="iacute" unicode="&#xed;" horiz-adv-x="364" 
d="M34 0v70l46 8q18 3 23 12.5t5 36.5v236q0 36 -6 47.5t-29 15.5l-39 6l7 75l211 11l15 -8v-385q0 -25 5.5 -34.5t23.5 -12.5l45 -9v-69h-307zM103 575l-35 36l110 158q12 19 23.5 25.5t25.5 6.5q22 0 35.5 -11.5t20 -27t6.5 -28.5q0 -16 -9 -31.5t-29 -28.5z" />
    <glyph glyph-name="icircumflex" unicode="&#xee;" horiz-adv-x="364" 
d="M34 0v70l46 8q18 3 23 12.5t5 36.5v236q0 36 -6 47.5t-29 15.5l-39 6l7 75l211 11l15 -8v-385q0 -25 5.5 -34.5t23.5 -12.5l45 -9v-69h-307zM12 575l-40 38l112 152q17 23 32.5 30.5t35.5 7.5q19 0 30.5 -4.5t21.5 -15t22 -27.5l105 -142l-40 -39l-139 105z" />
    <glyph glyph-name="idieresis" unicode="&#xef;" horiz-adv-x="364" 
d="M34 0v70l46 8q18 3 23 12.5t5 36.5v236q0 36 -6 47.5t-29 15.5l-39 6l7 75l211 11l15 -8v-385q0 -25 5.5 -34.5t23.5 -12.5l45 -9v-69h-307zM269 608q-37 0 -61 21.5t-24 58.5q0 35 24 56.5t61 21.5q42 0 64 -21.5t22 -56.5q0 -36 -24 -58t-62 -22zM41 608
q-38 0 -61.5 21.5t-23.5 58.5q0 35 23.5 56.5t61.5 21.5q42 0 63.5 -21.5t21.5 -56.5q0 -36 -24 -58t-61 -22z" />
    <glyph glyph-name="eth" unicode="&#xf0;" horiz-adv-x="601" 
d="M286 -14q-114 0 -181.5 66.5t-67.5 187.5q0 68 20 117t54 79.5t75 45t83 14.5q45 0 80.5 -18t58.5 -49l4 1q-5 34 -17.5 70.5t-29.5 68t-36 52.5l-106 -77l-44 71l78 52q-28 16 -63.5 28t-77.5 17l12 71q61 -2 118 -13t105 -36l124 91l41 -73l-90 -62q44 -35 75 -84.5
t48 -113.5t17 -142q0 -85 -16.5 -152.5t-51 -114.5t-87 -72t-125.5 -25zM306 69q32 0 53.5 19t32.5 58.5t11 99.5q0 26 -1.5 48t-5 40t-10.5 32q-10 21 -32.5 34t-50.5 13q-32 0 -54.5 -20t-34.5 -58t-12 -91q0 -42 6 -74t18.5 -55t32.5 -34.5t47 -11.5z" />
    <glyph glyph-name="ntilde" unicode="&#xf1;" horiz-adv-x="694" 
d="M43 0v69l40 8q16 3 21 12t5 36v243q0 33 -6 44.5t-28 14.5l-40 6l8 74l188 13l15 -9l7 -91h4q25 49 70.5 77.5t107.5 28.5q57 0 94 -21.5t55 -60t18 -89.5v-239q0 -21 6 -29.5t25 -11.5l37 -6v-69h-284v68l30 6q17 3 22 11.5t5 30.5v198q0 39 -7 61.5t-23.5 32.5
t-43.5 10q-29 0 -52 -12t-36 -38.5t-13 -67.5v-181q0 -22 4.5 -31.5t20.5 -12.5l35 -7v-68h-285zM429 607q-23 0 -44.5 6t-47.5 17q-21 10 -34.5 15t-23.5 7.5t-19 2.5q-12 0 -22.5 -8t-22.5 -31l-50 29q19 46 35.5 71.5t35.5 36t45 10.5q23 0 43 -6.5t46 -18.5
q27 -10 44.5 -16.5t31.5 -6.5q15 0 24.5 8.5t20.5 30.5l50 -28q-18 -44 -34 -70t-34.5 -37.5t-43.5 -11.5z" />
    <glyph glyph-name="ograve" unicode="&#xf2;" horiz-adv-x="624" 
d="M306 -14q-85 0 -145.5 30.5t-92 88.5t-31.5 142q0 93 35.5 155t100.5 93t151 31q79 0 138 -28t92.5 -85.5t33.5 -144.5q0 -90 -34 -153t-97 -96t-151 -33zM319 73q36 0 58 19t32 58t10 97q0 52 -7.5 89t-22 60t-35 34t-46.5 11q-32 0 -55.5 -16.5t-35.5 -52t-12 -94.5
q0 -68 12.5 -113.5t38 -68.5t63.5 -23zM362 575l-148 99q-19 13 -28.5 28.5t-9.5 31.5q0 13 6.5 28.5t20.5 27t35 11.5q15 0 26 -6.5t24 -25.5l109 -158z" />
    <glyph glyph-name="oacute" unicode="&#xf3;" horiz-adv-x="624" 
d="M306 -14q-85 0 -145.5 30.5t-92 88.5t-31.5 142q0 93 35.5 155t100.5 93t151 31q79 0 138 -28t92.5 -85.5t33.5 -144.5q0 -90 -34 -153t-97 -96t-151 -33zM319 73q36 0 58 19t32 58t10 97q0 52 -7.5 89t-22 60t-35 34t-46.5 11q-32 0 -55.5 -16.5t-35.5 -52t-12 -94.5
q0 -68 12.5 -113.5t38 -68.5t63.5 -23zM265 575l-35 36l110 158q12 19 23.5 25.5t25.5 6.5q22 0 35.5 -11.5t20 -27t6.5 -28.5q0 -16 -9 -31.5t-29 -28.5z" />
    <glyph glyph-name="ocircumflex" unicode="&#xf4;" horiz-adv-x="624" 
d="M306 -14q-85 0 -145.5 30.5t-92 88.5t-31.5 142q0 93 35.5 155t100.5 93t151 31q79 0 138 -28t92.5 -85.5t33.5 -144.5q0 -90 -34 -153t-97 -96t-151 -33zM319 73q36 0 58 19t32 58t10 97q0 52 -7.5 89t-22 60t-35 34t-46.5 11q-32 0 -55.5 -16.5t-35.5 -52t-12 -94.5
q0 -68 12.5 -113.5t38 -68.5t63.5 -23zM174 575l-40 38l112 152q17 23 32.5 30.5t35.5 7.5q19 0 30.5 -4.5t21.5 -15t22 -27.5l105 -142l-40 -39l-139 105z" />
    <glyph glyph-name="otilde" unicode="&#xf5;" horiz-adv-x="624" 
d="M306 -14q-85 0 -145.5 30.5t-92 88.5t-31.5 142q0 93 35.5 155t100.5 93t151 31q79 0 138 -28t92.5 -85.5t33.5 -144.5q0 -90 -34 -153t-97 -96t-151 -33zM319 73q36 0 58 19t32 58t10 97q0 52 -7.5 89t-22 60t-35 34t-46.5 11q-32 0 -55.5 -16.5t-35.5 -52t-12 -94.5
q0 -68 12.5 -113.5t38 -68.5t63.5 -23zM389 607q-23 0 -44.5 6t-47.5 17q-21 10 -34.5 15t-23.5 7.5t-19 2.5q-12 0 -22.5 -8t-22.5 -31l-50 29q19 46 35.5 71.5t35.5 36t45 10.5q23 0 43 -6.5t46 -18.5q27 -10 44.5 -16.5t31.5 -6.5q15 0 24.5 8.5t20.5 30.5l50 -28
q-18 -44 -34 -70t-34.5 -37.5t-43.5 -11.5z" />
    <glyph glyph-name="odieresis" unicode="&#xf6;" horiz-adv-x="624" 
d="M306 -14q-85 0 -145.5 30.5t-92 88.5t-31.5 142q0 93 35.5 155t100.5 93t151 31q79 0 138 -28t92.5 -85.5t33.5 -144.5q0 -90 -34 -153t-97 -96t-151 -33zM319 73q36 0 58 19t32 58t10 97q0 52 -7.5 89t-22 60t-35 34t-46.5 11q-32 0 -55.5 -16.5t-35.5 -52t-12 -94.5
q0 -68 12.5 -113.5t38 -68.5t63.5 -23zM431 608q-37 0 -61 21.5t-24 58.5q0 35 24 56.5t61 21.5q42 0 64 -21.5t22 -56.5q0 -36 -24 -58t-62 -22zM203 608q-38 0 -61.5 21.5t-23.5 58.5q0 35 23.5 56.5t61.5 21.5q42 0 63.5 -21.5t21.5 -56.5q0 -36 -24 -58t-61 -22z" />
    <glyph glyph-name="divide" unicode="&#xf7;" horiz-adv-x="582" 
d="M72 253v107h438v-107h-438zM290 50q-32 0 -56 21.5t-24 53.5t24 54t56 22q34 0 58 -21t24 -54q0 -32 -24 -54t-58 -22zM290 410q-32 0 -56 21.5t-24 53.5t24 54t56 22q34 0 58 -21t24 -54q0 -32 -24 -54t-58 -22z" />
    <glyph glyph-name="oslash" unicode="&#xf8;" horiz-adv-x="624" 
d="M23 -19l75 86q-30 32 -45.5 77t-15.5 103q0 93 35.5 155t100.5 93t151 31q39 0 74 -7.5t64 -22.5l32 38h95l-67 -80q31 -31 48.5 -77.5t17.5 -108.5q0 -90 -34 -153t-97 -96t-151 -33q-45 0 -82.5 10t-67.5 28l-38 -43h-95zM319 73q36 0 58 19t32 58t10 97q0 20 -2.5 38
t-7.5 33l-173 -199q10 -15 22 -25.5t27.5 -15.5t33.5 -5zM212 205l171 197q-9 14 -20.5 22.5t-25 12.5t-29.5 4q-32 0 -55.5 -16.5t-35.5 -52t-12 -94.5q0 -20 1.5 -38.5t5.5 -34.5z" />
    <glyph glyph-name="ugrave" unicode="&#xf9;" horiz-adv-x="676" 
d="M255 -14q-80 0 -121.5 44.5t-41.5 126.5v208q0 32 -5 45t-29 17l-37 6l7 74l207 13l16 -9v-315q0 -38 7 -60.5t22.5 -32t41.5 -9.5q31 0 53 13.5t33.5 40.5t11.5 65v153q0 36 -6 46.5t-28 14.5l-34 6l11 74l200 13l16 -9v-378q0 -29 6.5 -40t24.5 -15l40 -7v-71l-205 -8
l-14 87h-4q-19 -27 -41.5 -48t-53.5 -33t-77 -12zM368 575l-148 99q-19 13 -28.5 28.5t-9.5 31.5q0 13 6.5 28.5t20.5 27t35 11.5q15 0 26 -6.5t24 -25.5l109 -158z" />
    <glyph glyph-name="uacute" unicode="&#xfa;" horiz-adv-x="676" 
d="M255 -14q-80 0 -121.5 44.5t-41.5 126.5v208q0 32 -5 45t-29 17l-37 6l7 74l207 13l16 -9v-315q0 -38 7 -60.5t22.5 -32t41.5 -9.5q31 0 53 13.5t33.5 40.5t11.5 65v153q0 36 -6 46.5t-28 14.5l-34 6l11 74l200 13l16 -9v-378q0 -29 6.5 -40t24.5 -15l40 -7v-71l-205 -8
l-14 87h-4q-19 -27 -41.5 -48t-53.5 -33t-77 -12zM271 575l-35 36l110 158q12 19 23.5 25.5t25.5 6.5q22 0 35.5 -11.5t20 -27t6.5 -28.5q0 -16 -9 -31.5t-29 -28.5z" />
    <glyph glyph-name="ucircumflex" unicode="&#xfb;" horiz-adv-x="676" 
d="M255 -14q-80 0 -121.5 44.5t-41.5 126.5v208q0 32 -5 45t-29 17l-37 6l7 74l207 13l16 -9v-315q0 -38 7 -60.5t22.5 -32t41.5 -9.5q31 0 53 13.5t33.5 40.5t11.5 65v153q0 36 -6 46.5t-28 14.5l-34 6l11 74l200 13l16 -9v-378q0 -29 6.5 -40t24.5 -15l40 -7v-71l-205 -8
l-14 87h-4q-19 -27 -41.5 -48t-53.5 -33t-77 -12zM180 575l-40 38l112 152q17 23 32.5 30.5t35.5 7.5q19 0 30.5 -4.5t21.5 -15t22 -27.5l105 -142l-40 -39l-139 105z" />
    <glyph glyph-name="udieresis" unicode="&#xfc;" horiz-adv-x="676" 
d="M255 -14q-80 0 -121.5 44.5t-41.5 126.5v208q0 32 -5 45t-29 17l-37 6l7 74l207 13l16 -9v-315q0 -38 7 -60.5t22.5 -32t41.5 -9.5q31 0 53 13.5t33.5 40.5t11.5 65v153q0 36 -6 46.5t-28 14.5l-34 6l11 74l200 13l16 -9v-378q0 -29 6.5 -40t24.5 -15l40 -7v-71l-205 -8
l-14 87h-4q-19 -27 -41.5 -48t-53.5 -33t-77 -12zM437 608q-37 0 -61 21.5t-24 58.5q0 35 24 56.5t61 21.5q42 0 64 -21.5t22 -56.5q0 -36 -24 -58t-62 -22zM209 608q-38 0 -61.5 21.5t-23.5 58.5q0 35 23.5 56.5t61.5 21.5q42 0 63.5 -21.5t21.5 -56.5q0 -36 -24 -58
t-61 -22z" />
    <glyph glyph-name="yacute" unicode="&#xfd;" horiz-adv-x="611" 
d="M138 -230q-57 0 -92.5 26t-35.5 71q0 33 20.5 56t54.5 23q31 0 46 -13t16 -32q0 -9 -3.5 -24.5t-8.5 -36.5q25 -3 44 8t34.5 36.5t32.5 65.5l17 39l-175 392q-11 24 -18 34t-25 15l-33 7l10 75h286v-72l-38 -5q-20 -3 -25 -14.5t6 -39.5l93 -228h5l89 222q10 24 6 38.5
t-27 18.5l-38 8l12 72h217v-73l-35 -7q-17 -4 -25.5 -14t-22.5 -42l-169 -403q-22 -52 -43.5 -90t-46 -63t-55.5 -37.5t-73 -12.5zM278 575l-35 36l110 158q12 19 23.5 25.5t25.5 6.5q22 0 35.5 -11.5t20 -27t6.5 -28.5q0 -16 -9 -31.5t-29 -28.5z" />
    <glyph glyph-name="thorn" unicode="&#xfe;" horiz-adv-x="646" 
d="M18 -217v69l39 7q16 3 22 13t6 35v709q0 22 -2.5 34t-10.5 18t-27 9l-35 5l6 76l213 9l14 -11v-310l2 -5q18 24 39.5 43.5t51.5 30.5t72 11q64 0 109 -28.5t69 -84t24 -137.5q0 -90 -27 -154.5t-81.5 -99.5t-135.5 -35q-40 0 -71 8.5t-51 20.5v-109q0 -25 6.5 -35
t26.5 -13l62 -8v-68h-321zM338 82q38 0 60.5 20t33 60.5t10.5 101.5q0 53 -10 89t-31 55t-55 19q-28 0 -51.5 -13t-37 -40t-13.5 -70v-191q17 -14 44 -22.5t50 -8.5z" />
    <glyph glyph-name="ydieresis" unicode="&#xff;" horiz-adv-x="611" 
d="M138 -230q-57 0 -92.5 26t-35.5 71q0 33 20.5 56t54.5 23q31 0 46 -13t16 -32q0 -9 -3.5 -24.5t-8.5 -36.5q25 -3 44 8t34.5 36.5t32.5 65.5l17 39l-175 392q-11 24 -18 34t-25 15l-33 7l10 75h286v-72l-38 -5q-20 -3 -25 -14.5t6 -39.5l93 -228h5l89 222q10 24 6 38.5
t-27 18.5l-38 8l12 72h217v-73l-35 -7q-17 -4 -25.5 -14t-22.5 -42l-169 -403q-22 -52 -43.5 -90t-46 -63t-55.5 -37.5t-73 -12.5zM444 608q-37 0 -61 21.5t-24 58.5q0 35 24 56.5t61 21.5q42 0 64 -21.5t22 -56.5q0 -36 -24 -58t-62 -22zM216 608q-38 0 -61.5 21.5
t-23.5 58.5q0 35 23.5 56.5t61.5 21.5q42 0 63.5 -21.5t21.5 -56.5q0 -36 -24 -58t-61 -22z" />
    <glyph glyph-name="Amacron" unicode="&#x100;" horiz-adv-x="755" 
d="M7 0v73l40 8q19 4 29 15t20 39l204 566h161l204 -570q11 -28 19 -38t28 -14l35 -7v-72h-323v73l47 6q18 3 22.5 15t-3.5 36l-27 82h-237l-27 -78q-7 -21 -5 -36t30 -20l44 -7v-71h-261zM253 293h186l-88 278h-4zM216 790v108h326v-108h-326z" />
    <glyph glyph-name="amacron" unicode="&#x101;" horiz-adv-x="578" 
d="M190 -14q-72 0 -112.5 37t-40.5 99q0 60 30.5 94t94.5 49.5t165 19.5v68q0 37 -8 60.5t-26 35t-51 11.5q-22 0 -44.5 -6.5t-36.5 -16.5q10 -15 15.5 -27t8.5 -20t3 -14q0 -22 -19.5 -37t-55.5 -15q-34 0 -51 16.5t-17 43.5q0 40 28.5 72t79 51t116.5 19q75 0 122.5 -20.5
t71 -63t23.5 -107.5v-210q0 -23 9 -34t29 -11q10 0 20 2t20 5l13 -56q-20 -18 -53 -31.5t-68 -13.5q-48 0 -76.5 23t-35.5 60q-14 -23 -35 -42t-50 -30t-69 -11zM252 73q23 0 39.5 9.5t26 27t9.5 40.5v70q-45 0 -75 -8.5t-44 -26.5t-14 -46q0 -30 14.5 -48t43.5 -18z
M113 625v107h318v-107h-318z" />
    <glyph glyph-name="Abreve" unicode="&#x102;" horiz-adv-x="755" 
d="M7 0v73l40 8q19 4 29 15t20 39l204 566h161l204 -570q11 -28 19 -38t28 -14l35 -7v-72h-323v73l47 6q18 3 22.5 15t-3.5 36l-27 82h-237l-27 -78q-7 -21 -5 -36t30 -20l44 -7v-71h-261zM253 293h186l-88 278h-4zM377 751q-57 0 -95 24.5t-58 68.5t-26 101l59 12
q14 -51 44 -74t78 -23t78 24.5t42 70.5l59 -11q-5 -55 -26.5 -98.5t-60 -69t-94.5 -25.5z" />
    <glyph glyph-name="abreve" unicode="&#x103;" horiz-adv-x="578" 
d="M190 -14q-72 0 -112.5 37t-40.5 99q0 60 30.5 94t94.5 49.5t165 19.5v68q0 37 -8 60.5t-26 35t-51 11.5q-22 0 -44.5 -6.5t-36.5 -16.5q10 -15 15.5 -27t8.5 -20t3 -14q0 -22 -19.5 -37t-55.5 -15q-34 0 -51 16.5t-17 43.5q0 40 28.5 72t79 51t116.5 19q75 0 122.5 -20.5
t71 -63t23.5 -107.5v-210q0 -23 9 -34t29 -11q10 0 20 2t20 5l13 -56q-20 -18 -53 -31.5t-68 -13.5q-48 0 -76.5 23t-35.5 60q-14 -23 -35 -42t-50 -30t-69 -11zM252 73q23 0 39.5 9.5t26 27t9.5 40.5v70q-45 0 -75 -8.5t-44 -26.5t-14 -46q0 -30 14.5 -48t43.5 -18z
M270 585q-53 0 -90 25t-57.5 69.5t-25.5 103.5l60 14q14 -52 42.5 -78.5t74.5 -26.5q50 0 76 29.5t39 75.5l59 -13q-7 -57 -28.5 -102t-58.5 -71t-91 -26z" />
    <glyph glyph-name="Aogonek" unicode="&#x104;" horiz-adv-x="755" 
d="M566 -242q-43 0 -68 13.5t-35.5 34.5t-10.5 43q0 35 17.5 62t46 49t60.5 40h-152v73l47 6q18 3 22.5 15t-3.5 36l-27 82h-237l-27 -78q-7 -21 -5 -36t30 -20l44 -7v-71h-261v73l40 8q19 4 29 15t20 39l204 566h161l204 -570q11 -28 19 -38t28 -14l35 -7v-72h-93
q-38 -34 -58 -62.5t-20 -56.5q0 -20 10 -29t28 -9q13 0 28.5 3.5t31.5 10.5l22 -48q-15 -13 -34.5 -24.5t-43.5 -19t-52 -7.5zM253 293h186l-88 278h-4z" />
    <glyph glyph-name="aogonek" unicode="&#x105;" horiz-adv-x="578" 
d="M424 -242q-53 0 -83 25.5t-30 65.5q0 24 13.5 47.5t39.5 46.5t63 46q-33 6 -55 26.5t-28 53.5q-23 -40 -63 -61.5t-91 -21.5q-71 0 -112 36.5t-41 99.5q0 56 28 90.5t91 51.5t171 21v68q0 59 -19.5 83t-65.5 24q-23 0 -45 -6.5t-36 -16.5q14 -23 20.5 -37.5t6.5 -23.5
q0 -23 -20.5 -37.5t-54.5 -14.5q-32 0 -50 16t-18 44q0 41 29.5 73t80 50.5t114.5 18.5q111 0 164 -46t53 -145v-210q0 -24 9.5 -34.5t28.5 -10.5q9 0 18.5 2t21.5 5l13 -56q-27 -15 -52.5 -31.5t-45.5 -34.5t-31.5 -38.5t-11.5 -43.5q0 -21 9.5 -30.5t27.5 -9.5q14 0 29 4
t28 10l22 -48q-26 -23 -58.5 -37t-69.5 -14zM252 73q23 0 39.5 10t26 27t9.5 40v70q-45 0 -74.5 -8.5t-44 -26.5t-14.5 -46q0 -32 15.5 -49t42.5 -17z" />
    <glyph glyph-name="Cacute" unicode="&#x106;" horiz-adv-x="709" 
d="M382 -14q-103 0 -179.5 43.5t-118.5 124.5t-42 195q0 82 24 149.5t68.5 116t107 74.5t139.5 26q50 0 89.5 -14.5t70.5 -40.5l11 56h65l39 -245l-81 -16q-20 60 -46.5 96t-60 52t-75.5 16q-59 0 -98 -29.5t-58.5 -86t-19.5 -137.5q0 -71 16 -121.5t44 -83t65 -47.5t78 -15
q43 0 78.5 11.5t63.5 32.5t49 46l56 -64q-18 -26 -45 -50.5t-63 -44.5t-80.5 -32t-96.5 -12zM297 743l-28 43l143 135q15 14 25.5 19.5t21.5 5.5q28 0 44 -21t16 -46q0 -22 -12.5 -38.5t-40.5 -27.5z" />
    <glyph glyph-name="cacute" unicode="&#x107;" horiz-adv-x="543" 
d="M291 -14q-80 0 -137 32t-87 90.5t-30 137.5q0 84 32.5 147t94 98t147.5 35q63 0 108.5 -19t70 -50.5t24.5 -68.5q0 -22 -8.5 -40.5t-27 -30t-47.5 -11.5q-34 0 -53.5 15t-19.5 41q0 12 5.5 26.5t19.5 39.5q-16 10 -33 14t-41 4q-33 0 -57.5 -19.5t-38 -57t-13.5 -91.5
q0 -86 35 -131t103 -45q37 0 70 11t68 36l45 -59q-37 -45 -94 -74.5t-136 -29.5zM252 575l-35 36l110 158q12 19 23.5 25.5t25.5 6.5q22 0 35.5 -11.5t20 -27t6.5 -28.5q0 -16 -9 -31.5t-29 -28.5z" />
    <glyph glyph-name="Ccircumflex" unicode="&#x108;" horiz-adv-x="709" 
d="M382 -14q-103 0 -179.5 43.5t-118.5 124.5t-42 195q0 82 24 149.5t68.5 116t107 74.5t139.5 26q50 0 89.5 -14.5t70.5 -40.5l11 56h65l39 -245l-81 -16q-20 60 -46.5 96t-60 52t-75.5 16q-59 0 -98 -29.5t-58.5 -86t-19.5 -137.5q0 -71 16 -121.5t44 -83t65 -47.5t78 -15
q43 0 78.5 11.5t63.5 32.5t49 46l56 -64q-18 -26 -45 -50.5t-63 -44.5t-80.5 -32t-96.5 -12zM228 739l-36 43l121 138q17 20 31 28t32 8q17 0 31.5 -8t32.5 -30l114 -135l-35 -44l-145 89z" />
    <glyph glyph-name="ccircumflex" unicode="&#x109;" horiz-adv-x="543" 
d="M291 -14q-80 0 -137 32t-87 90.5t-30 137.5q0 84 32.5 147t94 98t147.5 35q63 0 108.5 -19t70 -50.5t24.5 -68.5q0 -22 -8.5 -40.5t-27 -30t-47.5 -11.5q-34 0 -53.5 15t-19.5 41q0 12 5.5 26.5t19.5 39.5q-16 10 -33 14t-41 4q-33 0 -57.5 -19.5t-38 -57t-13.5 -91.5
q0 -86 35 -131t103 -45q37 0 70 11t68 36l45 -59q-37 -45 -94 -74.5t-136 -29.5zM161 575l-40 38l112 152q17 23 32.5 30.5t35.5 7.5q19 0 30.5 -4.5t21.5 -15t22 -27.5l105 -142l-40 -39l-139 105z" />
    <glyph glyph-name="Cdotaccent" unicode="&#x10a;" horiz-adv-x="709" 
d="M382 -14q-103 0 -179.5 43.5t-118.5 124.5t-42 195q0 82 24 149.5t68.5 116t107 74.5t139.5 26q50 0 89.5 -14.5t70.5 -40.5l11 56h65l39 -245l-81 -16q-20 60 -46.5 96t-60 52t-75.5 16q-59 0 -98 -29.5t-58.5 -86t-19.5 -137.5q0 -71 16 -121.5t44 -83t65 -47.5t78 -15
q43 0 78.5 11.5t63.5 32.5t49 46l56 -64q-18 -26 -45 -50.5t-63 -44.5t-80.5 -32t-96.5 -12zM373 767q-46 0 -72 22.5t-26 61.5t25.5 61.5t72.5 22.5t72 -22t25 -62q0 -39 -26.5 -61.5t-70.5 -22.5z" />
    <glyph glyph-name="cdotaccent" unicode="&#x10b;" horiz-adv-x="543" 
d="M291 -14q-80 0 -137 32t-87 90.5t-30 137.5q0 84 32.5 147t94 98t147.5 35q63 0 108.5 -19t70 -50.5t24.5 -68.5q0 -22 -8.5 -40.5t-27 -30t-47.5 -11.5q-34 0 -53.5 15t-19.5 41q0 12 5.5 26.5t19.5 39.5q-16 10 -33 14t-41 4q-33 0 -57.5 -19.5t-38 -57t-13.5 -91.5
q0 -86 35 -131t103 -45q37 0 70 11t68 36l45 -59q-37 -45 -94 -74.5t-136 -29.5zM300 603q-46 0 -72 22.5t-26 62.5q0 38 25.5 61t72.5 23t72 -22.5t25 -61.5t-26.5 -62t-70.5 -23z" />
    <glyph glyph-name="Ccaron" unicode="&#x10c;" horiz-adv-x="709" 
d="M382 -14q-103 0 -179.5 43.5t-118.5 124.5t-42 195q0 82 24 149.5t68.5 116t107 74.5t139.5 26q50 0 89.5 -14.5t70.5 -40.5l11 56h65l39 -245l-81 -16q-20 60 -46.5 96t-60 52t-75.5 16q-59 0 -98 -29.5t-58.5 -86t-19.5 -137.5q0 -71 16 -121.5t44 -83t65 -47.5t78 -15
q43 0 78.5 11.5t63.5 32.5t49 46l56 -64q-18 -26 -45 -50.5t-63 -44.5t-80.5 -32t-96.5 -12zM372 750q-15 0 -29.5 8t-33.5 30l-123 137l37 44l151 -92l153 91l33 -43l-126 -139q-17 -19 -30 -27.5t-32 -8.5z" />
    <glyph glyph-name="ccaron" unicode="&#x10d;" horiz-adv-x="543" 
d="M291 -14q-80 0 -137 32t-87 90.5t-30 137.5q0 84 32.5 147t94 98t147.5 35q63 0 108.5 -19t70 -50.5t24.5 -68.5q0 -22 -8.5 -40.5t-27 -30t-47.5 -11.5q-34 0 -53.5 15t-19.5 41q0 12 5.5 26.5t19.5 39.5q-16 10 -33 14t-41 4q-33 0 -57.5 -19.5t-38 -57t-13.5 -91.5
q0 -86 35 -131t103 -45q37 0 70 11t68 36l45 -59q-37 -45 -94 -74.5t-136 -29.5zM300 579q-18 0 -29.5 4.5t-21.5 15t-23 26.5l-106 143l41 41l139 -107l140 106l40 -39l-114 -153q-17 -22 -32 -29.5t-34 -7.5z" />
    <glyph glyph-name="Dcaron" unicode="&#x10e;" horiz-adv-x="778" 
d="M49 0v71l43 8q19 3 25 12.5t6 38.5v446q0 25 -6.5 34.5t-26.5 12.5l-41 7v71h321q60 0 114.5 -11t100.5 -34.5t79.5 -62.5t52.5 -93.5t19 -128.5q0 -90 -26.5 -159t-79 -116.5t-130.5 -71.5t-181 -24h-270zM348 91q57 0 97 16t65.5 50t37.5 85.5t12 121.5
q0 84 -23.5 138.5t-68.5 81t-110 26.5h-68v-515q12 -2 27.5 -3t30.5 -1zM360 750q-15 0 -29.5 8t-33.5 30l-123 137l37 44l151 -92l153 91l33 -43l-126 -139q-17 -19 -30 -27.5t-32 -8.5z" />
    <glyph glyph-name="dcaron" unicode="&#x10f;" horiz-adv-x="770" 
d="M251 -14q-70 0 -117.5 30.5t-72 87.5t-24.5 137q0 87 30 151t86 99t135 35q35 0 64.5 -8t51.5 -21v128q0 30 -7 41t-34 15l-39 6l7 73l218 7l14 -15v-632q0 -23 6 -31t27 -12l38 -8v-70l-204 -7l-12 80h-4q-16 -25 -38.5 -44t-53 -30.5t-71.5 -11.5zM305 83q31 0 53 15
t34 43t12 66v194q-20 15 -43.5 22.5t-50.5 7.5q-36 0 -59.5 -19t-35 -59t-11.5 -101q0 -56 11.5 -94t34 -56.5t55.5 -18.5zM650 496l-43 34q25 36 35.5 59t10.5 41q0 13 -5 21.5t-17 18.5q-10 10 -17.5 20t-7.5 27q0 29 21.5 44t49.5 15q36 0 57.5 -25t21.5 -60
q0 -24 -10 -55t-33.5 -66.5t-62.5 -73.5z" />
    <glyph glyph-name="Dcroat" unicode="&#x110;" horiz-adv-x="778" 
d="M49 0v71l43 8q19 3 25 12.5t6 38.5v183h-108l11 94h97v169q0 25 -6.5 34.5t-26.5 12.5l-41 7v71h321q60 0 114.5 -11t100.5 -34.5t79.5 -62.5t52.5 -93.5t19 -128.5q0 -90 -26.5 -159t-79 -116.5t-130.5 -71.5t-181 -24h-270zM348 91q57 0 97 16t65.5 50t37.5 85.5
t12 121.5q0 84 -23.5 138.5t-68.5 81t-110 26.5h-68v-203h142v-94h-142v-218q12 -2 27.5 -3t30.5 -1z" />
    <glyph glyph-name="dcroat" unicode="&#x111;" horiz-adv-x="648" 
d="M251 -14q-70 0 -117.5 30.5t-72 87.5t-24.5 137q0 87 30 151t86 99t135 35q35 0 64.5 -8t51.5 -21v63h-176l9 68h167v12q0 23 -7 31t-34 12l-39 6l7 71l218 7l14 -15v-124h91v-68h-91v-440q0 -23 6 -31t27 -12l38 -8v-70l-204 -7l-12 80h-4q-16 -25 -38.5 -44t-53 -30.5
t-71.5 -11.5zM305 83q31 0 53 15t34 43t12 66v194q-20 15 -43.5 22.5t-50.5 7.5q-36 0 -59.5 -19t-35 -59t-11.5 -101q0 -56 11.5 -94t34 -56.5t55.5 -18.5z" />
    <glyph glyph-name="Emacron" unicode="&#x112;" 
d="M49 0v71l43 8q19 3 25 12.5t6 38.5v446q0 26 -6.5 35t-26.5 12l-41 7v71h526l35 -185l-89 -15q-11 35 -21.5 58t-25 36t-35.5 18.5t-53 5.5h-96v-222h57q25 0 37.5 5t19.5 21t14 48l67 6v-233l-67 -10q-5 33 -11.5 50t-20.5 22.5t-40 5.5h-56v-229h114q33 0 54.5 6.5
t35.5 20.5t23.5 39.5t19.5 63.5h90l-26 -213h-552zM172 790v108h326v-108h-326z" />
    <glyph glyph-name="emacron" unicode="&#x113;" horiz-adv-x="565" 
d="M298 -14q-84 0 -142.5 32t-88.5 90.5t-30 135.5q0 90 35 153t97 96t142 33q66 0 114.5 -22.5t75 -65.5t26.5 -104q0 -24 -2.5 -49.5t-8.5 -48.5h-314q3 -44 20 -74.5t46.5 -45.5t68.5 -15q45 0 81 14t69 40l48 -55q-39 -51 -100 -82.5t-137 -31.5zM202 313h170
q2 12 2.5 24t0.5 24q0 43 -18.5 65.5t-54.5 22.5q-31 0 -52.5 -16.5t-33 -47t-14.5 -72.5zM141 625v107h318v-107h-318z" />
    <glyph glyph-name="Ebreve" unicode="&#x114;" 
d="M49 0v71l43 8q19 3 25 12.5t6 38.5v446q0 26 -6.5 35t-26.5 12l-41 7v71h526l35 -185l-89 -15q-11 35 -21.5 58t-25 36t-35.5 18.5t-53 5.5h-96v-222h57q25 0 37.5 5t19.5 21t14 48l67 6v-233l-67 -10q-5 33 -11.5 50t-20.5 22.5t-40 5.5h-56v-229h114q33 0 54.5 6.5
t35.5 20.5t23.5 39.5t19.5 63.5h90l-26 -213h-552zM333 751q-57 0 -95 24.5t-58 68.5t-26 101l59 12q14 -51 44 -74t78 -23t78 24.5t42 70.5l59 -11q-5 -55 -26.5 -98.5t-60 -69t-94.5 -25.5z" />
    <glyph glyph-name="ebreve" unicode="&#x115;" horiz-adv-x="565" 
d="M298 -14q-84 0 -142.5 32t-88.5 90.5t-30 135.5q0 90 35 153t97 96t142 33q66 0 114.5 -22.5t75 -65.5t26.5 -104q0 -24 -2.5 -49.5t-8.5 -48.5h-314q3 -44 20 -74.5t46.5 -45.5t68.5 -15q45 0 81 14t69 40l48 -55q-39 -51 -100 -82.5t-137 -31.5zM202 313h170
q2 12 2.5 24t0.5 24q0 43 -18.5 65.5t-54.5 22.5q-31 0 -52.5 -16.5t-33 -47t-14.5 -72.5zM298 585q-53 0 -90 25t-57.5 69.5t-25.5 103.5l60 14q14 -52 42.5 -78.5t74.5 -26.5q50 0 76 29.5t39 75.5l59 -13q-7 -57 -28.5 -102t-58.5 -71t-91 -26z" />
    <glyph glyph-name="Edotaccent" unicode="&#x116;" 
d="M49 0v71l43 8q19 3 25 12.5t6 38.5v446q0 26 -6.5 35t-26.5 12l-41 7v71h526l35 -185l-89 -15q-11 35 -21.5 58t-25 36t-35.5 18.5t-53 5.5h-96v-222h57q25 0 37.5 5t19.5 21t14 48l67 6v-233l-67 -10q-5 33 -11.5 50t-20.5 22.5t-40 5.5h-56v-229h114q33 0 54.5 6.5
t35.5 20.5t23.5 39.5t19.5 63.5h90l-26 -213h-552zM335 767q-46 0 -72 22.5t-26 61.5t25.5 61.5t72.5 22.5t72 -22t25 -62q0 -39 -26.5 -61.5t-70.5 -22.5z" />
    <glyph glyph-name="edotaccent" unicode="&#x117;" horiz-adv-x="565" 
d="M298 -14q-84 0 -142.5 32t-88.5 90.5t-30 135.5q0 90 35 153t97 96t142 33q66 0 114.5 -22.5t75 -65.5t26.5 -104q0 -24 -2.5 -49.5t-8.5 -48.5h-314q3 -44 20 -74.5t46.5 -45.5t68.5 -15q45 0 81 14t69 40l48 -55q-39 -51 -100 -82.5t-137 -31.5zM202 313h170
q2 12 2.5 24t0.5 24q0 43 -18.5 65.5t-54.5 22.5q-31 0 -52.5 -16.5t-33 -47t-14.5 -72.5zM300 603q-46 0 -72 22.5t-26 62.5q0 38 25.5 61t72.5 23t72 -22.5t25 -61.5t-26.5 -62t-70.5 -23z" />
    <glyph glyph-name="Eogonek" unicode="&#x118;" 
d="M476 -242q-42 0 -66.5 13.5t-35.5 34.5t-11 43q0 35 19.5 63t52 50t70.5 38h-456v71l43 8q19 3 25 12.5t6 38.5v446q0 26 -6.5 35t-26.5 12l-41 7v71h526l35 -185l-89 -15q-11 35 -21.5 58t-25 36t-35.5 18.5t-53 5.5h-96v-222h57q25 0 37.5 5t19.5 21t14 48l67 6v-233
l-67 -10q-5 33 -11.5 50t-20.5 22.5t-40 5.5h-56v-229h114q33 0 54.5 6.5t35.5 20.5t23.5 39.5t19.5 63.5h90l-26 -213q-32 -14 -57.5 -34.5t-40.5 -42t-15 -42.5q0 -20 9.5 -29t26.5 -9q12 0 27 3.5t31 10.5l22 -48q-15 -14 -34.5 -25t-42.5 -18.5t-51 -7.5z" />
    <glyph glyph-name="eogonek" unicode="&#x119;" horiz-adv-x="565" 
d="M341 -242q-42 0 -66.5 13.5t-35 34.5t-10.5 43q0 37 27.5 72t71.5 66q-7 -1 -14.5 -1h-15.5q-84 0 -142.5 32t-88.5 90.5t-30 135.5q0 90 35 153t97 96t142 33q66 0 114.5 -22.5t75 -65.5t26.5 -104q0 -24 -2.5 -49.5t-8.5 -48.5h-314q3 -44 20 -74.5t46.5 -45.5
t68.5 -15q45 0 81 14t69 40l48 -55q-17 -22 -37.5 -40.5t-44.5 -32.5q-35 -29 -57 -53.5t-32.5 -47t-10.5 -44.5q0 -20 9.5 -29.5t28.5 -9.5q11 0 25.5 3.5t30.5 10.5l22 -48q-14 -14 -34 -25t-43 -18.5t-51 -7.5zM202 313h170q2 12 2.5 24t0.5 24q0 43 -18.5 65.5
t-54.5 22.5q-31 0 -52.5 -16.5t-33 -47t-14.5 -72.5z" />
    <glyph glyph-name="Ecaron" unicode="&#x11a;" 
d="M49 0v71l43 8q19 3 25 12.5t6 38.5v446q0 26 -6.5 35t-26.5 12l-41 7v71h526l35 -185l-89 -15q-11 35 -21.5 58t-25 36t-35.5 18.5t-53 5.5h-96v-222h57q25 0 37.5 5t19.5 21t14 48l67 6v-233l-67 -10q-5 33 -11.5 50t-20.5 22.5t-40 5.5h-56v-229h114q33 0 54.5 6.5
t35.5 20.5t23.5 39.5t19.5 63.5h90l-26 -213h-552zM334 750q-15 0 -29.5 8t-33.5 30l-123 137l37 44l151 -92l153 91l33 -43l-126 -139q-17 -19 -30 -27.5t-32 -8.5z" />
    <glyph glyph-name="ecaron" unicode="&#x11b;" horiz-adv-x="565" 
d="M298 -14q-84 0 -142.5 32t-88.5 90.5t-30 135.5q0 90 35 153t97 96t142 33q66 0 114.5 -22.5t75 -65.5t26.5 -104q0 -24 -2.5 -49.5t-8.5 -48.5h-314q3 -44 20 -74.5t46.5 -45.5t68.5 -15q45 0 81 14t69 40l48 -55q-39 -51 -100 -82.5t-137 -31.5zM202 313h170
q2 12 2.5 24t0.5 24q0 43 -18.5 65.5t-54.5 22.5q-31 0 -52.5 -16.5t-33 -47t-14.5 -72.5zM300 579q-18 0 -29.5 4.5t-21.5 15t-23 26.5l-106 143l41 41l139 -107l140 106l40 -39l-114 -153q-17 -22 -32 -29.5t-34 -7.5z" />
    <glyph glyph-name="Gcircumflex" unicode="&#x11c;" horiz-adv-x="768" 
d="M362 -14q-102 0 -173 45.5t-109 126t-38 185.5q0 84 24.5 152.5t70 117.5t108.5 75.5t141 26.5q55 0 95.5 -14.5t70.5 -40.5l12 56h65l42 -245l-82 -16q-19 59 -45.5 95t-61.5 52.5t-83 16.5q-44 0 -78 -17t-57 -49.5t-35 -80t-12 -108.5q0 -67 14 -117t38.5 -83.5
t58 -50t72.5 -16.5q26 0 48.5 5t41 14t31.5 22v83q0 23 -5.5 35t-27.5 15l-48 7v72h304v-72l-39 -7q-20 -3 -25.5 -14.5t-5.5 -37.5v-221h-87l-24 59q-17 -14 -44.5 -30.5t-66.5 -28.5t-90 -12zM240 739l-36 43l121 138q17 20 31 28t32 8q17 0 31.5 -8t32.5 -30l114 -135
l-35 -44l-145 89z" />
    <glyph glyph-name="gcircumflex" unicode="&#x11d;" horiz-adv-x="588" 
d="M128 575l-36 36l115 154q17 23 31.5 30t31.5 7q25 0 38.5 -10.5t31.5 -35.5l99 -133l-39 -40l-130 100zM264 -230q-64 0 -111 8.5t-77.5 24.5t-45.5 40t-15 56t14.5 53t39.5 35.5t55 25.5v3q-36 11 -53.5 34.5t-17.5 48.5q0 26 14 48t46 49v3q-36 21 -56 55.5t-20 83.5
q0 63 32 105t87 63t123 21q19 0 42 -3t47.5 -9t45.5 -17q26 55 55 86t70 31q19 0 35.5 -7t27 -21.5t10.5 -37.5q0 -27 -17.5 -48t-45.5 -21q-14 0 -25.5 8.5t-20.5 21.5l-11 18q-10 -12 -18 -26.5t-15 -31.5q24 -24 41 -54t17 -74q0 -52 -28.5 -93t-81.5 -65t-128 -24
q-26 0 -49 3.5t-41 8.5q-10 -11 -15.5 -20t-5.5 -20q0 -14 8.5 -22.5t24 -11.5t36.5 -3h163q92 0 136.5 -33t44.5 -96q0 -28 -9 -55.5t-29.5 -52.5t-56.5 -45t-91 -31.5t-131 -11.5zM280 -149q42 0 71.5 10.5t45 28.5t15.5 42t-17 36t-51 12h-146q-15 -13 -23.5 -29
t-8.5 -36q0 -33 28 -48.5t86 -15.5zM278 244q38 0 58 25t20 73q0 54 -21 79.5t-60 25.5q-41 0 -59 -28.5t-18 -74.5q0 -45 21 -72.5t59 -27.5z" />
    <glyph glyph-name="Gbreve" unicode="&#x11e;" horiz-adv-x="768" 
d="M362 -14q-102 0 -173 45.5t-109 126t-38 185.5q0 84 24.5 152.5t70 117.5t108.5 75.5t141 26.5q55 0 95.5 -14.5t70.5 -40.5l12 56h65l42 -245l-82 -16q-19 59 -45.5 95t-61.5 52.5t-83 16.5q-44 0 -78 -17t-57 -49.5t-35 -80t-12 -108.5q0 -67 14 -117t38.5 -83.5
t58 -50t72.5 -16.5q26 0 48.5 5t41 14t31.5 22v83q0 23 -5.5 35t-27.5 15l-48 7v72h304v-72l-39 -7q-20 -3 -25.5 -14.5t-5.5 -37.5v-221h-87l-24 59q-17 -14 -44.5 -30.5t-66.5 -28.5t-90 -12zM383 751q-57 0 -95 24.5t-58 68.5t-26 101l59 12q14 -51 44 -74t78 -23
t78 24.5t42 70.5l59 -11q-5 -55 -26.5 -98.5t-60 -69t-94.5 -25.5z" />
    <glyph glyph-name="gbreve" unicode="&#x11f;" horiz-adv-x="605" 
d="M264 -230q-64 0 -111 8.5t-77.5 24.5t-45.5 40t-15 56t14.5 53t39.5 35.5t55 25.5v3q-36 11 -53.5 34.5t-17.5 48.5q0 26 14 48t46 49v3q-36 21 -56 55.5t-20 83.5q0 63 32 105t87 63t123 21q19 0 42 -3t47.5 -9t45.5 -17q26 55 55 86t70 31q19 0 35.5 -7t27 -21.5
t10.5 -37.5q0 -27 -17.5 -48t-45.5 -21q-14 0 -25.5 8.5t-20.5 21.5l-11 18q-10 -12 -18 -26.5t-15 -31.5q24 -24 41 -54t17 -74q0 -52 -28.5 -93t-81.5 -65t-128 -24q-26 0 -49 3.5t-41 8.5q-10 -11 -15.5 -20t-5.5 -20q0 -14 8.5 -22.5t24 -11.5t36.5 -3h163
q92 0 136.5 -33t44.5 -96q0 -28 -9 -55.5t-29.5 -52.5t-56.5 -45t-91 -31.5t-131 -11.5zM280 -149q42 0 71.5 10.5t45 28.5t15.5 42t-17 36t-51 12h-146q-15 -13 -23.5 -29t-8.5 -36q0 -33 28 -48.5t86 -15.5zM278 244q38 0 58 25t20 73q0 54 -21 79.5t-60 25.5
q-41 0 -59 -28.5t-18 -74.5q0 -45 21 -72.5t59 -27.5zM277 585q-53 0 -90 25t-57.5 69.5t-25.5 103.5l60 14q14 -52 42.5 -78.5t74.5 -26.5q50 0 76 29.5t39 75.5l59 -13q-7 -57 -28.5 -102t-58.5 -71t-91 -26z" />
    <glyph glyph-name="Gdotaccent" unicode="&#x120;" horiz-adv-x="768" 
d="M362 -14q-102 0 -173 45.5t-109 126t-38 185.5q0 84 24.5 152.5t70 117.5t108.5 75.5t141 26.5q55 0 95.5 -14.5t70.5 -40.5l12 56h65l42 -245l-82 -16q-19 59 -45.5 95t-61.5 52.5t-83 16.5q-44 0 -78 -17t-57 -49.5t-35 -80t-12 -108.5q0 -67 14 -117t38.5 -83.5
t58 -50t72.5 -16.5q26 0 48.5 5t41 14t31.5 22v83q0 23 -5.5 35t-27.5 15l-48 7v72h304v-72l-39 -7q-20 -3 -25.5 -14.5t-5.5 -37.5v-221h-87l-24 59q-17 -14 -44.5 -30.5t-66.5 -28.5t-90 -12zM385 767q-46 0 -72 22.5t-26 61.5t25.5 61.5t72.5 22.5t72 -22t25 -62
q0 -39 -26.5 -61.5t-70.5 -22.5z" />
    <glyph glyph-name="gdotaccent" unicode="&#x121;" horiz-adv-x="605" 
d="M264 -230q-64 0 -111 8.5t-77.5 24.5t-45.5 40t-15 56t14.5 53t39.5 35.5t55 25.5v3q-36 11 -53.5 34.5t-17.5 48.5q0 26 14 48t46 49v3q-36 21 -56 55.5t-20 83.5q0 63 32 105t87 63t123 21q19 0 42 -3t47.5 -9t45.5 -17q26 55 55 86t70 31q19 0 35.5 -7t27 -21.5
t10.5 -37.5q0 -27 -17.5 -48t-45.5 -21q-14 0 -25.5 8.5t-20.5 21.5l-11 18q-10 -12 -18 -26.5t-15 -31.5q24 -24 41 -54t17 -74q0 -52 -28.5 -93t-81.5 -65t-128 -24q-26 0 -49 3.5t-41 8.5q-10 -11 -15.5 -20t-5.5 -20q0 -14 8.5 -22.5t24 -11.5t36.5 -3h163
q92 0 136.5 -33t44.5 -96q0 -28 -9 -55.5t-29.5 -52.5t-56.5 -45t-91 -31.5t-131 -11.5zM280 -149q42 0 71.5 10.5t45 28.5t15.5 42t-17 36t-51 12h-146q-15 -13 -23.5 -29t-8.5 -36q0 -33 28 -48.5t86 -15.5zM278 244q38 0 58 25t20 73q0 54 -21 79.5t-60 25.5
q-41 0 -59 -28.5t-18 -74.5q0 -45 21 -72.5t59 -27.5zM279 603q-46 0 -72 22.5t-26 62.5q0 38 25.5 61t72.5 23t72 -22.5t25 -61.5t-26.5 -62t-70.5 -23z" />
    <glyph glyph-name="uni0122" unicode="&#x122;" horiz-adv-x="768" 
d="M362 -14q-102 0 -173 45.5t-109 126t-38 185.5q0 84 24.5 152.5t70 117.5t108.5 75.5t141 26.5q55 0 95.5 -14.5t70.5 -40.5l12 56h65l42 -245l-82 -16q-19 59 -45.5 95t-61.5 52.5t-83 16.5q-44 0 -78 -17t-57 -49.5t-35 -80t-12 -108.5q0 -67 14 -117t38.5 -83.5
t58 -50t72.5 -16.5q26 0 48.5 5t41 14t31.5 22v83q0 23 -5.5 35t-27.5 15l-48 7v72h304v-72l-39 -7q-20 -3 -25.5 -14.5t-5.5 -37.5v-221h-87l-24 59q-17 -14 -44.5 -30.5t-66.5 -28.5t-90 -12zM345 -310l-36 42q21 17 32.5 31t16.5 27.5t6 28.5h-10q-27 0 -39.5 16
t-12.5 38q0 26 11 41t29 22.5t40 7.5q24 0 42.5 -9.5t29 -28.5t10.5 -48q0 -26 -11 -56t-37 -58.5t-71 -53.5z" />
    <glyph glyph-name="uni0123" unicode="&#x123;" horiz-adv-x="605" 
d="M264 -230q-64 0 -111 8.5t-77.5 24.5t-45.5 40t-15 56t14.5 53t39.5 35.5t55 25.5v3q-36 11 -53.5 34.5t-17.5 48.5q0 26 14 48t46 49v3q-36 21 -56 55.5t-20 83.5q0 63 32 105t87 63t123 21q19 0 42 -3t47.5 -9t45.5 -17q26 55 55 86t70 31q19 0 35.5 -7t27 -21.5
t10.5 -37.5q0 -27 -17.5 -48t-45.5 -21q-14 0 -25.5 8.5t-20.5 21.5l-11 18q-10 -12 -18 -26.5t-15 -31.5q24 -24 41 -54t17 -74q0 -52 -28.5 -93t-81.5 -65t-128 -24q-26 0 -49 3.5t-41 8.5q-10 -11 -15.5 -20t-5.5 -20q0 -14 8.5 -22.5t24 -11.5t36.5 -3h163
q92 0 136.5 -33t44.5 -96q0 -28 -9 -55.5t-29.5 -52.5t-56.5 -45t-91 -31.5t-131 -11.5zM280 -149q42 0 71.5 10.5t45 28.5t15.5 42t-17 36t-51 12h-146q-15 -13 -23.5 -29t-8.5 -36q0 -33 28 -48.5t86 -15.5zM278 244q38 0 58 25t20 73q0 54 -21 79.5t-60 25.5
q-41 0 -59 -28.5t-18 -74.5q0 -45 21 -72.5t59 -27.5zM280 577q-36 0 -58.5 21.5t-22.5 58.5q0 25 10.5 53t34.5 55t67 50l33 -40q-18 -16 -29 -30t-15.5 -27.5t-5.5 -26.5h7q28 0 40 -13.5t12 -34.5t-10.5 -36t-27 -22.5t-35.5 -7.5z" />
    <glyph glyph-name="Hcircumflex" unicode="&#x124;" horiz-adv-x="841" 
d="M49 0v71l43 8q19 3 25 12.5t6 38.5v445q0 26 -6.5 35.5t-26.5 12.5l-41 7v71h314v-71l-43 -8q-18 -3 -24 -13.5t-6 -37.5v-166h262v170q0 25 -6.5 34.5t-26.5 12.5l-40 8v71h313v-71l-42 -7q-19 -3 -25 -13t-6 -38v-446q0 -26 6.5 -34.5t26.5 -12.5l40 -8v-71h-313v71
l42 8q18 3 24.5 12.5t6.5 38.5v180h-262v-184q0 -27 6.5 -35t25.5 -12l41 -8v-71h-314zM277 739l-36 43l121 138q17 20 31 28t32 8q17 0 31.5 -8t32.5 -30l114 -135l-35 -44l-145 89z" />
    <glyph glyph-name="hcircumflex" unicode="&#x125;" horiz-adv-x="689" 
d="M38 0v69l39 8q15 3 21 12t6 34v493q0 34 -7 45.5t-32 15.5l-36 5l7 76l212 9l15 -11v-315l2 -5q23 42 65.5 66t99.5 24q58 0 95 -21.5t55 -60t18 -89.5v-240q0 -20 5.5 -28t25.5 -12l36 -6v-69h-284v68l30 6q16 3 22 11t6 32v197q0 38 -7.5 60.5t-23.5 33t-44 10.5
q-29 0 -52 -12t-36 -38.5t-13 -67.5v-180q0 -22 4.5 -32t20.5 -13l35 -7v-68h-285zM7 788l-36 43l121 138q17 20 31 28t32 8q17 0 31.5 -8t32.5 -30l114 -135l-35 -44l-145 89z" />
    <glyph glyph-name="Hbar" unicode="&#x126;" horiz-adv-x="816" 
d="M36 0v71l43 8q19 3 25 12.5t6 38.5v337h-88l11 74h77v36q0 27 -6.5 36t-26.5 13l-41 6v69h314v-69l-43 -7q-18 -4 -24 -14t-6 -37v-33h262v37q0 26 -6.5 34.5t-26.5 12.5l-40 7v69h313v-69l-42 -6q-18 -3 -24.5 -13t-6.5 -38v-34h84v-74h-84v-341q0 -27 7 -35t26 -12
l40 -8v-71h-313v71l42 8q19 3 25 12.5t6 38.5v170h-262v-174q0 -27 6.5 -35t25.5 -12l41 -8v-71h-314zM277 383h262v84h-262v-84z" />
    <glyph glyph-name="hbar" unicode="&#x127;" horiz-adv-x="689" 
d="M38 0v69l39 8q15 3 21 12t6 34v438h-101l9 67h92v11q0 22 -7 28.5t-32 10.5l-36 5l7 75l212 9l15 -11v-128h130v-67h-130v-125h2q24 42 66 66t99 24q58 0 95 -21.5t55 -60t18 -89.5v-240q0 -20 5.5 -28t25.5 -12l36 -6v-69h-284v68l30 6q16 3 22 11t6 32v197
q0 38 -7.5 60.5t-23.5 33t-44 10.5q-29 0 -52 -12t-36 -38.5t-13 -67.5v-180q0 -22 4.5 -32t20.5 -13l35 -7v-68h-285z" />
    <glyph glyph-name="Itilde" unicode="&#x128;" horiz-adv-x="417" 
d="M49 0v71l45 8q20 4 25.5 14t5.5 36v446q0 26 -6.5 35.5t-27.5 12.5l-42 7v71h319v-71l-46 -8q-17 -3 -23.5 -13t-6.5 -37v-446q0 -26 6 -34.5t26 -12.5l44 -8v-71h-319zM287 768q-24 0 -46 6t-48 17q-17 8 -31.5 13.5t-26 8.5t-20.5 3q-12 0 -22.5 -8t-22.5 -31l-50 29
q19 46 35.5 72t35.5 37t45 11q22 0 43 -7t48 -19q26 -11 43.5 -17t33.5 -6q14 0 23.5 8t21.5 31l50 -28q-18 -45 -34.5 -71t-35 -37.5t-42.5 -11.5z" />
    <glyph glyph-name="itilde" unicode="&#x129;" horiz-adv-x="364" 
d="M34 0v70l46 8q18 3 23 12.5t5 36.5v236q0 36 -6 47.5t-29 15.5l-39 6l7 75l211 11l15 -8v-385q0 -25 5.5 -34.5t23.5 -12.5l45 -9v-69h-307zM227 607q-23 0 -44.5 6t-47.5 17q-21 10 -34.5 15t-23.5 7.5t-19 2.5q-12 0 -22.5 -8t-22.5 -31l-50 29q19 46 35.5 71.5
t35.5 36t45 10.5q23 0 43 -6.5t46 -18.5q27 -10 44.5 -16.5t31.5 -6.5q15 0 24.5 8.5t20.5 30.5l50 -28q-18 -44 -34 -70t-34.5 -37.5t-43.5 -11.5z" />
    <glyph glyph-name="Imacron" unicode="&#x12a;" horiz-adv-x="417" 
d="M49 0v71l45 8q20 4 25.5 14t5.5 36v446q0 26 -6.5 35.5t-27.5 12.5l-42 7v71h319v-71l-46 -8q-17 -3 -23.5 -13t-6.5 -37v-446q0 -26 6 -34.5t26 -12.5l44 -8v-71h-319zM46 790v108h326v-108h-326z" />
    <glyph glyph-name="imacron" unicode="&#x12b;" horiz-adv-x="364" 
d="M34 0v70l46 8q18 3 23 12.5t5 36.5v236q0 36 -6 47.5t-29 15.5l-39 6l7 75l211 11l15 -8v-385q0 -25 5.5 -34.5t23.5 -12.5l45 -9v-69h-307zM-8 625v107h318v-107h-318z" />
    <glyph glyph-name="Ibreve" unicode="&#x12c;" horiz-adv-x="417" 
d="M49 0v71l45 8q20 4 25.5 14t5.5 36v446q0 26 -6.5 35.5t-27.5 12.5l-42 7v71h319v-71l-46 -8q-17 -3 -23.5 -13t-6.5 -37v-446q0 -26 6 -34.5t26 -12.5l44 -8v-71h-319zM207 751q-57 0 -95 24.5t-58 68.5t-26 101l59 12q14 -51 44 -74t78 -23t78 24.5t42 70.5l59 -11
q-5 -55 -26.5 -98.5t-60 -69t-94.5 -25.5z" />
    <glyph glyph-name="ibreve" unicode="&#x12d;" horiz-adv-x="364" 
d="M34 0v70l46 8q18 3 23 12.5t5 36.5v236q0 36 -6 47.5t-29 15.5l-39 6l7 75l211 11l15 -8v-385q0 -25 5.5 -34.5t23.5 -12.5l45 -9v-69h-307zM149 585q-53 0 -89.5 24t-57 68.5t-26.5 105.5l55 12q19 -56 49.5 -79.5t72.5 -23.5q49 0 76 26t41 76l57 -10
q-7 -57 -28.5 -102t-59 -71t-90.5 -26z" />
    <glyph glyph-name="Iogonek" unicode="&#x12e;" horiz-adv-x="392" 
d="M199 -242q-43 0 -68 13.5t-35.5 34.5t-10.5 43q0 35 17.5 62t46 49t60.5 40h-160v71l45 8q20 4 25.5 14t5.5 36v446q0 26 -6.5 35.5t-27.5 12.5l-42 7v71h319v-71l-46 -8q-17 -3 -23.5 -13t-6.5 -37v-446q0 -26 6 -34.5t26 -12.5l44 -8v-71h-81q-38 -34 -58 -62.5
t-20 -56.5q0 -20 10 -29t28 -9q13 0 28.5 3.5t31.5 10.5l22 -48q-15 -13 -34.5 -24.5t-43.5 -19t-52 -7.5z" />
    <glyph glyph-name="iogonek" unicode="&#x12f;" horiz-adv-x="365" 
d="M171 -242q-42 0 -67 13.5t-36 34.5t-11 43q0 35 18 62t46.5 49t59.5 40h-147v70l46 8q18 3 23 12.5t5 36.5v236q0 35 -6 47t-29 16l-39 6l7 75l211 11l15 -8v-385q0 -21 4.5 -32t24.5 -15l45 -9v-69h-81q-38 -34 -58 -62.5t-20 -56.5q0 -20 9.5 -29t28.5 -9q13 0 28 3.5
t31 10.5l22 -48q-14 -13 -33.5 -24.5t-43.5 -19t-53 -7.5zM173 603q-45 0 -71 22.5t-26 62.5q0 38 25.5 61t71.5 23q48 0 73 -22.5t25 -61.5t-26.5 -62t-71.5 -23z" />
    <glyph glyph-name="Idotaccent" unicode="&#x130;" horiz-adv-x="417" 
d="M49 0v71l45 8q20 4 25.5 14t5.5 36v446q0 26 -6.5 35.5t-27.5 12.5l-42 7v71h319v-71l-46 -8q-17 -3 -23.5 -13t-6.5 -37v-446q0 -26 6 -34.5t26 -12.5l44 -8v-71h-319zM209 767q-46 0 -72 22.5t-26 61.5t25.5 61.5t72.5 22.5t72 -22t25 -62q0 -39 -26.5 -61.5
t-70.5 -22.5z" />
    <glyph glyph-name="dotlessi" unicode="&#x131;" horiz-adv-x="364" 
d="M34 0v70l46 8q18 3 23 12.5t5 36.5v236q0 36 -6 47.5t-29 15.5l-39 6l7 75l211 11l15 -8v-385q0 -25 5.5 -34.5t23.5 -12.5l45 -9v-69h-307z" />
    <glyph glyph-name="IJ" unicode="&#x132;" horiz-adv-x="993" 
d="M49 0v71l45 8q20 4 25.5 14t5.5 36v446q0 26 -6.5 35.5t-27.5 12.5l-42 7v71h319v-71l-46 -8q-17 -3 -23.5 -13t-6.5 -37v-446q0 -26 6 -34.5t26 -12.5l44 -8v-71h-319zM649 -14q-58 0 -105.5 18t-76 50.5t-28.5 75.5q0 34 12 57t33.5 35.5t47.5 12.5q34 0 54.5 -15
t20.5 -39q0 -19 -8 -38t-26 -47q12 -10 30 -16t38 -6q30 0 48.5 15t27 43.5t8.5 68.5v369q0 26 -6 36.5t-27 12.5l-63 8v74h339v-71l-46 -8q-17 -3 -23.5 -12.5t-6.5 -37.5v-334q0 -124 -63.5 -188t-179.5 -64z" />
    <glyph glyph-name="ij" unicode="&#x133;" horiz-adv-x="701" 
d="M34 0v70l46 8q18 3 23 12.5t5 36.5v236q0 35 -6 47t-29 16l-39 6l7 75l211 11l15 -8v-385q0 -21 4.5 -32t24.5 -15l45 -9v-69h-307zM173 603q-45 0 -71 22.5t-26 62.5q0 38 25.5 61t71.5 23q48 0 73 -22.5t25 -61.5t-26.5 -62t-71.5 -23zM433 -230l-49 65q22 20 37.5 41
t24.5 45.5t13.5 54t4.5 64.5v325q0 34 -6.5 45.5t-28.5 15.5l-39 6l7 75l211 11l15 -8v-415q0 -68 -13 -119t-38 -88t-60 -65.5t-79 -52.5zM529 603q-45 0 -71.5 22.5t-26.5 62.5q0 38 25.5 61t72.5 23q48 0 73 -22.5t25 -61.5t-26.5 -62t-71.5 -23z" />
    <glyph glyph-name="Jcircumflex" unicode="&#x134;" horiz-adv-x="576" 
d="M232 -14q-58 0 -105.5 18t-76 50.5t-28.5 75.5q0 34 12 57t33.5 35.5t47.5 12.5q34 0 54.5 -15t20.5 -39q0 -19 -8 -38t-26 -47q12 -10 30 -16t38 -6q30 0 48.5 15t27 43.5t8.5 68.5v369q0 26 -6 36.5t-27 12.5l-63 8v74h339v-71l-46 -8q-17 -3 -23.5 -12.5t-6.5 -37.5
v-334q0 -124 -63.5 -188t-179.5 -64zM238 739l-36 43l121 138q17 20 31 28t32 8q17 0 31.5 -8t32.5 -30l114 -135l-35 -44l-145 89z" />
    <glyph glyph-name="jcircumflex" unicode="&#x135;" horiz-adv-x="333" 
d="M69 -230l-49 65q23 21 38.5 42.5t24.5 46t13 53.5t4 63v325q0 33 -6 45t-29 16l-39 6l7 75l211 11l15 -8v-415q0 -68 -13 -119t-38 -88t-60 -65.5t-79 -52.5zM13 575l-40 38l112 152q17 23 32.5 30.5t35.5 7.5q19 0 30.5 -4.5t21.5 -15t22 -27.5l105 -142l-40 -39
l-139 105z" />
    <glyph glyph-name="uni0136" unicode="&#x136;" horiz-adv-x="784" 
d="M644 -15q-32 0 -58 7t-47 20t-37.5 32.5t-31.5 45.5l-125 208l-53 -55v-115q0 -26 7 -36t25 -13l44 -8v-71h-319v71l45 8q19 3 25 12.5t6 38.5v445q0 27 -6.5 36t-26.5 12l-43 7v71h319v-71l-46 -8q-17 -3 -23.5 -12.5t-6.5 -38.5v-209l217 216q10 11 12.5 20.5t-3.5 16
t-19 8.5l-44 6l10 72h257v-74l-39 -8q-12 -2 -21.5 -6.5t-20 -13.5t-25.5 -25l-156 -161l156 -248q19 -30 34 -48.5t31.5 -26.5t38.5 -8q11 0 21 1.5t23 5.5l14 -60q-21 -18 -55.5 -31t-78.5 -13zM354 -310l-36 42q21 17 32.5 31t16.5 27.5t6 28.5h-10q-27 0 -39.5 16
t-12.5 38q0 26 11 41t29 22.5t40 7.5q24 0 42.5 -9.5t29 -28.5t10.5 -48q0 -26 -11 -56t-37 -58.5t-71 -53.5z" />
    <glyph glyph-name="uni0137" unicode="&#x137;" horiz-adv-x="671" 
d="M551 -11q-28 0 -51.5 7t-45 24.5t-44.5 49.5l-137 187v16l140 127q14 12 13 23t-16 13l-42 7l12 69h252v-71l-37 -7q-17 -3 -31.5 -11t-32.5 -24l-112 -100l127 -162q20 -27 36 -40.5t40 -13.5q7 0 15.5 2t21.5 5l14 -56q-21 -20 -54 -32.5t-68 -12.5zM32 0v70l44 7
q17 3 22.5 12t5.5 36v491q0 34 -6.5 45.5t-31.5 15.5l-36 5l6 76l213 9l14 -11v-632q0 -23 5 -33t24 -14l29 -7v-70h-289zM284 -310l-36 42q21 17 32.5 31t16.5 27.5t6 28.5h-10q-27 0 -39.5 16t-12.5 38q0 26 11 41t29 22.5t40 7.5q24 0 42.5 -9.5t29 -28.5t10.5 -48
q0 -26 -11 -56t-37 -58.5t-71 -53.5z" />
    <glyph glyph-name="kgreenlandic" unicode="&#x138;" horiz-adv-x="674" 
d="M554 -11q-30 0 -54 8t-45 26t-42 47l-136 187v16l139 127q15 13 13.5 24t-15.5 12l-43 7l12 69h253v-71l-38 -7q-17 -3 -32 -11.5t-32 -23.5l-112 -100l127 -162q22 -29 37 -41.5t37 -12.5q8 0 18 2t21 5l14 -56q-21 -20 -53.5 -32.5t-68.5 -12.5zM35 0v70l44 7
q17 3 23 12t6 36v243q0 33 -6.5 45t-32.5 16l-37 5l6 76l214 9l15 -11v-384q0 -23 4 -33t24 -14l30 -7v-70h-290z" />
    <glyph glyph-name="Lacute" unicode="&#x139;" horiz-adv-x="648" 
d="M49 0v71l44 8q18 3 24 12.5t6 38.5v446q0 25 -7 35t-26 12l-41 7v71h329v-71l-54 -8q-20 -3 -27 -12t-7 -34v-490h86q30 0 51 7.5t36.5 24.5t27.5 47t26 76h92l-27 -241h-533zM128 743l-28 43l143 135q15 14 25.5 19.5t21.5 5.5q28 0 44 -21t16 -46q0 -22 -12.5 -38.5
t-40.5 -27.5z" />
    <glyph glyph-name="lacute" unicode="&#x13a;" horiz-adv-x="361" 
d="M31 0v70l45 8q18 3 23.5 12t5.5 37v489q0 34 -7 45.5t-33 14.5l-35 6l6 76l213 9l15 -12v-630q0 -24 5 -34t25 -14l44 -8v-69h-307zM76 792l-28 43l143 135q15 14 25.5 19.5t21.5 5.5q28 0 44 -21t16 -46q0 -22 -12.5 -38.5t-40.5 -27.5z" />
    <glyph glyph-name="uni013B" unicode="&#x13b;" horiz-adv-x="648" 
d="M49 0v71l44 8q18 3 24 12.5t6 38.5v446q0 25 -7 35t-26 12l-41 7v71h329v-71l-54 -8q-20 -3 -27 -12t-7 -34v-490h86q30 0 51 7.5t36.5 24.5t27.5 47t26 76h92l-27 -241h-533zM287 -310l-36 42q21 17 32.5 31t16.5 27.5t6 28.5h-10q-27 0 -39.5 16t-12.5 38q0 26 11 41
t29 22.5t40 7.5q24 0 42.5 -9.5t29 -28.5t10.5 -48q0 -26 -11 -56t-37 -58.5t-71 -53.5z" />
    <glyph glyph-name="uni013C" unicode="&#x13c;" horiz-adv-x="361" 
d="M31 0v70l45 8q18 3 23.5 12t5.5 37v489q0 34 -7 45.5t-33 14.5l-35 6l6 76l213 9l15 -12v-630q0 -24 5 -34t25 -14l44 -8v-69h-307zM146 -310l-36 42q21 17 32.5 31t16.5 27.5t6 28.5h-10q-27 0 -39.5 16t-12.5 38q0 26 11 41t29 22.5t40 7.5q24 0 42.5 -9.5t29 -28.5
t10.5 -48q0 -26 -11 -56t-37 -58.5t-71 -53.5z" />
    <glyph glyph-name="Lcaron" unicode="&#x13d;" horiz-adv-x="616" 
d="M49 0v71l44 8q18 3 24 12.5t6 38.5v446q0 25 -7 35t-26 12l-41 7v71h329v-71l-54 -8q-20 -3 -27 -12t-7 -34v-490h86q30 0 51 7.5t36.5 24.5t27.5 47t26 76h92l-27 -241h-533zM471 502l-43 34q25 36 35.5 59t10.5 41q0 13 -5 21.5t-17 18.5q-10 10 -17.5 20t-7.5 27
q0 29 21.5 44t49.5 15q36 0 57.5 -25t21.5 -60q0 -24 -10 -55t-33.5 -66.5t-62.5 -73.5z" />
    <glyph glyph-name="lcaron" unicode="&#x13e;" horiz-adv-x="469" 
d="M31 0v70l45 8q18 3 23.5 12t5.5 37v489q0 34 -7 45.5t-33 14.5l-35 6l6 76l213 9l15 -12v-630q0 -24 5 -34t25 -14l44 -8v-69h-307zM349 496l-43 34q25 36 35.5 59t10.5 41q0 13 -5 21.5t-17 18.5q-10 10 -17.5 20t-7.5 27q0 29 21.5 44t49.5 15q36 0 57.5 -25t21.5 -60
q0 -24 -10 -55t-33.5 -66.5t-62.5 -73.5z" />
    <glyph glyph-name="Ldot" unicode="&#x13f;" horiz-adv-x="648" 
d="M49 0v71l44 8q18 3 24 12.5t6 38.5v446q0 25 -7 35t-26 12l-41 7v71h329v-71l-54 -8q-20 -3 -27 -12t-7 -34v-490h86q30 0 51 7.5t36.5 24.5t27.5 47t26 76h92l-27 -241h-533zM525 317q-46 0 -72 22.5t-26 62.5q0 38 25.5 61t72.5 23t72 -22.5t25 -61.5t-26.5 -62
t-70.5 -23z" />
    <glyph glyph-name="ldot" unicode="&#x140;" horiz-adv-x="433" 
d="M31 1v70l45 8q18 3 23.5 12t5.5 37v489q0 34 -7 45.5t-33 14.5l-35 6l6 76l213 9l15 -12v-630q0 -24 5 -34t25 -14l44 -8v-69h-307zM419 368q-46 0 -72 22.5t-26 62.5q0 38 25.5 61t72.5 23t72 -22.5t25 -61.5t-26.5 -62t-70.5 -23z" />
    <glyph glyph-name="Lslash" unicode="&#x141;" horiz-adv-x="648" 
d="M517 241h92l-27 -241h-533v71l44 8q18 3 24 12.5t6 38.5v151l-107 -54v100l107 52v197q0 25 -7 35t-26 12l-41 7v71h329v-71l-54 -8q-20 -3 -27 -12t-7 -34v-141l154 77v-99l-154 -76v-251h86q30 0 51 7.5t36.5 24.5t27.5 47t26 76z" />
    <glyph glyph-name="lslash" unicode="&#x142;" horiz-adv-x="379" 
d="M40 0v70l45 8q19 3 24 12t5 37v200l-89 -43v98l89 42v192q0 34 -7 45.5t-32 14.5l-36 6l6 76l213 9l15 -12v-279l91 43v-98l-91 -43v-253q0 -24 5.5 -34t25.5 -14l43 -8v-69h-307z" />
    <glyph glyph-name="Nacute" unicode="&#x143;" horiz-adv-x="837" 
d="M49 0v71l43 8q18 3 24.5 13t6.5 38v445q0 26 -6.5 35.5t-26.5 12.5l-41 7v71h256l297 -496l2 4v366q0 25 -6.5 34.5t-26.5 12.5l-40 8v71h259v-71l-42 -7q-18 -3 -24.5 -13t-6.5 -38v-572h-173l-306 497l-2 -4v-367q0 -27 6.5 -35t25.5 -12l41 -8v-71h-260zM338 743
l-28 43l143 135q15 14 25.5 19.5t21.5 5.5q28 0 44 -21t16 -46q0 -22 -12.5 -38.5t-40.5 -27.5z" />
    <glyph glyph-name="nacute" unicode="&#x144;" horiz-adv-x="694" 
d="M43 0v69l40 8q16 3 21 12t5 36v243q0 33 -6 44.5t-28 14.5l-40 6l8 74l188 13l15 -9l7 -91h4q25 49 70.5 77.5t107.5 28.5q57 0 94 -21.5t55 -60t18 -89.5v-239q0 -21 6 -29.5t25 -11.5l37 -6v-69h-284v68l30 6q17 3 22 11.5t5 30.5v198q0 39 -7 61.5t-23.5 32.5
t-43.5 10q-29 0 -52 -12t-36 -38.5t-13 -67.5v-181q0 -22 4.5 -31.5t20.5 -12.5l35 -7v-68h-285zM305 575l-35 36l110 158q12 19 23.5 25.5t25.5 6.5q22 0 35.5 -11.5t20 -27t6.5 -28.5q0 -16 -9 -31.5t-29 -28.5z" />
    <glyph glyph-name="uni0145" unicode="&#x145;" horiz-adv-x="837" 
d="M49 0v71l43 8q18 3 24.5 13t6.5 38v445q0 26 -6.5 35.5t-26.5 12.5l-41 7v71h256l297 -496l2 4v366q0 25 -6.5 34.5t-26.5 12.5l-40 8v71h259v-71l-42 -7q-18 -3 -24.5 -13t-6.5 -38v-572h-173l-306 497l-2 -4v-367q0 -27 6.5 -35t25.5 -12l41 -8v-71h-260zM371 -310
l-36 42q21 17 32.5 31t16.5 27.5t6 28.5h-10q-27 0 -39.5 16t-12.5 38q0 26 11 41t29 22.5t40 7.5q24 0 42.5 -9.5t29 -28.5t10.5 -48q0 -26 -11 -56t-37 -58.5t-71 -53.5z" />
    <glyph glyph-name="uni0146" unicode="&#x146;" horiz-adv-x="694" 
d="M43 0v69l40 8q16 3 21 12t5 36v243q0 33 -6 44.5t-28 14.5l-40 6l8 74l188 13l15 -9l7 -91h4q25 49 70.5 77.5t107.5 28.5q57 0 94 -21.5t55 -60t18 -89.5v-239q0 -21 6 -29.5t25 -11.5l37 -6v-69h-284v68l30 6q17 3 22 11.5t5 30.5v198q0 39 -7 61.5t-23.5 32.5
t-43.5 10q-29 0 -52 -12t-36 -38.5t-13 -67.5v-181q0 -22 4.5 -31.5t20.5 -12.5l35 -7v-68h-285zM315 -310l-36 42q21 17 32.5 31t16.5 27.5t6 28.5h-10q-27 0 -39.5 16t-12.5 38q0 26 11 41t29 22.5t40 7.5q24 0 42.5 -9.5t29 -28.5t10.5 -48q0 -26 -11 -56t-37 -58.5
t-71 -53.5z" />
    <glyph glyph-name="Ncaron" unicode="&#x147;" horiz-adv-x="837" 
d="M49 0v71l43 8q18 3 24.5 13t6.5 38v445q0 26 -6.5 35.5t-26.5 12.5l-41 7v71h256l297 -496l2 4v366q0 25 -6.5 34.5t-26.5 12.5l-40 8v71h259v-71l-42 -7q-18 -3 -24.5 -13t-6.5 -38v-572h-173l-306 497l-2 -4v-367q0 -27 6.5 -35t25.5 -12l41 -8v-71h-260zM413 750
q-15 0 -29.5 8t-33.5 30l-123 137l37 44l151 -92l153 91l33 -43l-126 -139q-17 -19 -30 -27.5t-32 -8.5z" />
    <glyph glyph-name="ncaron" unicode="&#x148;" horiz-adv-x="694" 
d="M43 0v69l40 8q16 3 21 12t5 36v243q0 33 -6 44.5t-28 14.5l-40 6l8 74l188 13l15 -9l7 -91h4q25 49 70.5 77.5t107.5 28.5q57 0 94 -21.5t55 -60t18 -89.5v-239q0 -21 6 -29.5t25 -11.5l37 -6v-69h-284v68l30 6q17 3 22 11.5t5 30.5v198q0 39 -7 61.5t-23.5 32.5
t-43.5 10q-29 0 -52 -12t-36 -38.5t-13 -67.5v-181q0 -22 4.5 -31.5t20.5 -12.5l35 -7v-68h-285zM352 579q-18 0 -29.5 4.5t-21.5 15t-23 26.5l-106 143l41 41l139 -107l140 106l40 -39l-114 -153q-17 -22 -32 -29.5t-34 -7.5z" />
    <glyph glyph-name="napostrophe" unicode="&#x149;" horiz-adv-x="846" 
d="M195 0v69l40 8q16 3 21 12t5 36v243q0 33 -6 44.5t-28 14.5l-40 6l8 74l188 13l15 -9l7 -91h4q25 49 70.5 77.5t107.5 28.5q57 0 94 -21.5t55 -60t18 -89.5v-239q0 -21 6 -29.5t25 -11.5l37 -6v-69h-284v68l30 6q17 3 22 11.5t5 30.5v198q0 39 -7 61.5t-23.5 32.5
t-43.5 10q-29 0 -52 -12t-36 -38.5t-13 -67.5v-181q0 -22 4.5 -31.5t20.5 -12.5l35 -7v-68h-285zM59 481l-35 49q38 26 57 51.5t22 53.5h-17q-17 0 -33.5 7t-26.5 22t-10 38q0 35 24 57.5t62 22.5q46 0 70.5 -27.5t24.5 -67.5q0 -35 -15.5 -72.5t-46 -72t-76.5 -61.5z" />
    <glyph glyph-name="Eng" unicode="&#x14a;" horiz-adv-x="837" 
d="M49 0v71l43 8q18 3 24.5 13t6.5 38v445q0 26 -6.5 35.5t-26.5 12.5l-41 7v71h254l294 -481h2v355q0 25 -6.5 34.5t-26.5 12.5l-40 8v71h264v-71l-42 -7q-18 -3 -24.5 -13t-6.5 -38v-477q0 -67 -14 -117.5t-40 -88t-62.5 -66.5t-80.5 -53l-50 65q20 17 34 35.5t23.5 39
t15 44.5t7.5 52v3l-307 483h-2v-366q0 -27 6.5 -35t25.5 -12l41 -8v-71h-265z" />
    <glyph glyph-name="eng" unicode="&#x14b;" horiz-adv-x="676" 
d="M435 526q57 0 94 -21.5t55 -60t18 -89.5v-260q0 -68 -13.5 -119t-38.5 -88t-59.5 -65.5t-78.5 -52.5l-50 65q23 21 39 42.5t25 46t13 53.5t4 63v274q0 39 -7 61.5t-23.5 32.5t-43.5 10q-29 0 -52 -12t-36 -38.5t-13 -67.5v-181q0 -22 4.5 -31.5t20.5 -12.5l35 -7v-68
h-285v69l40 8q16 3 21 12t5 36v243q0 33 -6 44.5t-28 14.5l-40 6l8 74l188 13l15 -9l7 -91h4q25 49 70.5 77.5t107.5 28.5z" />
    <glyph glyph-name="Omacron" unicode="&#x14c;" horiz-adv-x="777" 
d="M383 -14q-111 0 -187 45t-115 125t-39 182q0 120 44.5 204t125 128.5t188.5 44.5q101 0 176 -41t116.5 -118.5t41.5 -188.5q0 -81 -23 -150.5t-67.5 -121.5t-110 -80.5t-150.5 -28.5zM396 84q39 0 69.5 14.5t50.5 46t30.5 82.5t10.5 123q0 67 -11.5 117t-33.5 84t-54 51
t-74 17q-40 0 -71 -15t-52.5 -47t-32 -81.5t-10.5 -117.5q0 -67 11.5 -118t34 -86t55.5 -52.5t77 -17.5zM227 790v108h326v-108h-326z" />
    <glyph glyph-name="omacron" unicode="&#x14d;" horiz-adv-x="624" 
d="M306 -14q-85 0 -145.5 30.5t-92 88.5t-31.5 142q0 93 35.5 155t100.5 93t151 31q79 0 138 -28t92.5 -85.5t33.5 -144.5q0 -90 -34 -153t-97 -96t-151 -33zM319 73q36 0 58 19t32 58t10 97q0 52 -7.5 89t-22 60t-35 34t-46.5 11q-32 0 -55.5 -16.5t-35.5 -52t-12 -94.5
q0 -68 12.5 -113.5t38 -68.5t63.5 -23zM154 625v107h318v-107h-318z" />
    <glyph glyph-name="Obreve" unicode="&#x14e;" horiz-adv-x="777" 
d="M383 -14q-111 0 -187 45t-115 125t-39 182q0 120 44.5 204t125 128.5t188.5 44.5q101 0 176 -41t116.5 -118.5t41.5 -188.5q0 -81 -23 -150.5t-67.5 -121.5t-110 -80.5t-150.5 -28.5zM396 84q39 0 69.5 14.5t50.5 46t30.5 82.5t10.5 123q0 67 -11.5 117t-33.5 84t-54 51
t-74 17q-40 0 -71 -15t-52.5 -47t-32 -81.5t-10.5 -117.5q0 -67 11.5 -118t34 -86t55.5 -52.5t77 -17.5zM388 751q-57 0 -95 24.5t-58 68.5t-26 101l59 12q14 -51 44 -74t78 -23t78 24.5t42 70.5l59 -11q-5 -55 -26.5 -98.5t-60 -69t-94.5 -25.5z" />
    <glyph glyph-name="obreve" unicode="&#x14f;" horiz-adv-x="624" 
d="M306 -14q-85 0 -145.5 30.5t-92 88.5t-31.5 142q0 93 35.5 155t100.5 93t151 31q79 0 138 -28t92.5 -85.5t33.5 -144.5q0 -90 -34 -153t-97 -96t-151 -33zM319 73q36 0 58 19t32 58t10 97q0 52 -7.5 89t-22 60t-35 34t-46.5 11q-32 0 -55.5 -16.5t-35.5 -52t-12 -94.5
q0 -68 12.5 -113.5t38 -68.5t63.5 -23zM311 585q-53 0 -89.5 24t-57 68.5t-26.5 105.5l55 12q19 -56 49.5 -79.5t72.5 -23.5q49 0 76 26t41 76l57 -10q-7 -57 -28.5 -102t-59 -71t-90.5 -26z" />
    <glyph glyph-name="Ohungarumlaut" unicode="&#x150;" horiz-adv-x="777" 
d="M383 -14q-111 0 -187 45t-115 125t-39 182q0 120 44.5 204t125 128.5t188.5 44.5q101 0 176 -41t116.5 -118.5t41.5 -188.5q0 -81 -23 -150.5t-67.5 -121.5t-110 -80.5t-150.5 -28.5zM396 84q39 0 69.5 14.5t50.5 46t30.5 82.5t10.5 123q0 67 -11.5 117t-33.5 84t-54 51
t-74 17q-40 0 -71 -15t-52.5 -47t-32 -81.5t-10.5 -117.5q0 -67 11.5 -118t34 -86t55.5 -52.5t77 -17.5zM286 743l-33 40l113 143q14 17 26 24t25 7q27 0 42 -20t15 -41q0 -22 -11.5 -38.5t-36.5 -31.5zM471 743l-28 43l128 130q15 15 27 21t23 6q25 0 40.5 -18.5
t15.5 -43.5q0 -22 -13 -38t-39 -29z" />
    <glyph glyph-name="ohungarumlaut" unicode="&#x151;" horiz-adv-x="624" 
d="M306 -14q-85 0 -145.5 30.5t-92 88.5t-31.5 142q0 93 35.5 155t100.5 93t151 31q79 0 138 -28t92.5 -85.5t33.5 -144.5q0 -90 -34 -153t-97 -96t-151 -33zM319 73q36 0 58 19t32 58t10 97q0 52 -7.5 89t-22 60t-35 34t-46.5 11q-32 0 -55.5 -16.5t-35.5 -52t-12 -94.5
q0 -68 12.5 -113.5t38 -68.5t63.5 -23zM396 575l-36 36l108 156q13 18 25 25t25 7q19 0 31.5 -9.5t18.5 -23t6 -28.5q0 -17 -9 -34.5t-28 -30.5zM218 575l-35 36l100 157q11 19 23 25.5t26 6.5q19 0 31.5 -9.5t18.5 -23t6 -27.5q0 -15 -8.5 -31t-27.5 -30z" />
    <glyph glyph-name="OE" unicode="&#x152;" horiz-adv-x="1094" 
d="M366 -14q-100 0 -172.5 45t-112 125t-39.5 182q0 120 43.5 204t118 128.5t169.5 44.5q61 0 114.5 -21t90.5 -64v71h429l34 -185l-89 -15q-11 35 -21.5 58t-25 36t-35.5 18.5t-52 5.5h-97v-222h57q25 0 37.5 5t20 21t14.5 48l67 6v-233l-68 -10q-5 33 -11.5 50t-20.5 22.5
t-40 5.5h-56v-229h115q32 0 53.5 6.5t35.5 20.5t24 39.5t19 63.5h90l-25 -213h-455v78q-37 -45 -90.5 -68.5t-121.5 -23.5zM398 84q39 0 69.5 15t51 46.5t31 82.5t10.5 122q0 67 -11.5 117t-33.5 84t-54.5 51t-74.5 17q-40 0 -71.5 -15t-53 -47t-32.5 -81.5t-11 -117.5
q0 -67 12 -118t35 -86t56 -52.5t77 -17.5z" />
    <glyph glyph-name="oe" unicode="&#x153;" horiz-adv-x="946" 
d="M293 -14q-78 0 -135.5 31t-89 89.5t-31.5 139.5q0 101 38 162.5t101 89.5t139 28q38 0 73 -10t65 -28.5t50 -45.5q37 44 86 64t107 20q62 0 110 -22t75 -65t27 -105q0 -25 -3 -50.5t-8 -47.5h-314q2 -43 18.5 -73.5t46 -46t69.5 -15.5q52 0 87 16.5t64 37.5l48 -55
q-36 -46 -95.5 -80t-138.5 -34q-41 0 -77.5 10.5t-65 29.5t-47.5 44q-32 -37 -81 -60.5t-118 -23.5zM320 73q36 0 57.5 19t32.5 57.5t11 97.5q0 53 -8 90t-22.5 59.5t-35 33.5t-46.5 11q-30 0 -54 -15t-37 -50.5t-13 -97.5q0 -50 7 -89t21 -64.5t36 -38.5t51 -13zM584 313
h171q2 12 2.5 24t0.5 24q0 43 -19 65.5t-54 22.5q-36 0 -57.5 -19.5t-31 -50.5t-12.5 -66z" />
    <glyph glyph-name="Racute" unicode="&#x154;" horiz-adv-x="745" 
d="M601 -14q-46 0 -77 15t-52 44t-35 71l-37 119q-9 23 -17.5 40.5t-22.5 27.5t-37 10q-9 0 -17 -0.5t-15 -1.5v-181q0 -23 6 -35t30 -17l47 -7v-71h-325v71l43 8q19 3 25 12.5t6 38.5v446q0 24 -6 34t-27 13l-41 7v71h304q61 0 112.5 -9.5t89 -30.5t58 -54.5t20.5 -82.5
q0 -36 -14 -63.5t-36.5 -48t-49.5 -34.5t-53 -22.5t-46 -11.5v-4q56 -9 88 -30.5t48 -67.5l26 -67q13 -31 22.5 -51.5t22.5 -30.5t34 -10q10 0 20 2t23 5l14 -60q-22 -19 -55 -31.5t-76 -12.5zM331 384q41 0 68.5 14.5t42 43t14.5 67.5q0 40 -15.5 64t-43 35t-64.5 11h-41
v-234q12 -1 22 -1h17zM266 743l-28 43l143 135q15 14 25.5 19.5t21.5 5.5q28 0 44 -21t16 -46q0 -22 -12.5 -38.5t-40.5 -27.5z" />
    <glyph glyph-name="racute" unicode="&#x155;" horiz-adv-x="541" 
d="M43 0v70l41 7q16 3 20.5 13t4.5 36v239q0 33 -5 45.5t-28 16.5l-41 6l8 74l185 13l16 -9l9 -92h4q24 50 65.5 78.5t92.5 28.5q54 0 85.5 -29.5t31.5 -79.5q0 -33 -9.5 -55t-29 -34t-47.5 -12q-37 0 -55 15.5t-18 37.5q0 8 1.5 15.5t5.5 18t10 25.5q-21 8 -42.5 1.5
t-39.5 -24.5t-29 -45t-11 -60v-176q0 -24 5.5 -33.5t22.5 -11.5l73 -10v-69h-326zM246 575l-35 36l110 158q12 19 23.5 25.5t25.5 6.5q22 0 35.5 -11.5t20 -27t6.5 -28.5q0 -16 -9 -31.5t-29 -28.5z" />
    <glyph glyph-name="uni0156" unicode="&#x156;" horiz-adv-x="744" 
d="M601 -14q-46 0 -77 15t-52 44t-35 71l-37 119q-9 23 -17.5 40.5t-22.5 27.5t-37 10q-9 0 -17 -0.5t-15 -1.5v-181q0 -23 6 -35t30 -17l47 -7v-71h-325v71l43 8q19 3 25 12.5t6 38.5v446q0 24 -6 34t-27 13l-41 7v71h304q61 0 112.5 -9.5t89 -30.5t58 -54.5t20.5 -82.5
q0 -36 -14 -63.5t-36.5 -48t-49.5 -34.5t-53 -22.5t-46 -11.5v-4q56 -9 88 -30.5t48 -67.5l26 -67q13 -31 22.5 -51.5t22.5 -30.5t34 -10q10 0 20 2t23 5l14 -60q-22 -19 -55 -31.5t-76 -12.5zM331 384q41 0 68.5 14.5t42 43t14.5 67.5q0 40 -15.5 64t-43 35t-64.5 11h-41
v-234q12 -1 22 -1h17zM331 -310l-36 42q21 17 32.5 31t16.5 27.5t6 28.5h-10q-27 0 -39.5 16t-12.5 38q0 26 11 41t29 22.5t40 7.5q24 0 42.5 -9.5t29 -28.5t10.5 -48q0 -26 -11 -56t-37 -58.5t-71 -53.5z" />
    <glyph glyph-name="uni0157" unicode="&#x157;" horiz-adv-x="541" 
d="M43 0v70l41 7q16 3 20.5 13t4.5 36v239q0 33 -5 45.5t-28 16.5l-41 6l8 74l185 13l16 -9l9 -92h4q24 50 65.5 78.5t92.5 28.5q54 0 85.5 -29.5t31.5 -79.5q0 -33 -9.5 -55t-29 -34t-47.5 -12q-37 0 -55 15.5t-18 37.5q0 8 1.5 15.5t5.5 18t10 25.5q-21 8 -42.5 1.5
t-39.5 -24.5t-29 -45t-11 -60v-176q0 -24 5.5 -33.5t22.5 -11.5l73 -10v-69h-326zM159 -310l-36 42q21 17 32.5 31t16.5 27.5t6 28.5h-10q-27 0 -39.5 16t-12.5 38q0 26 11 41t29 22.5t40 7.5q24 0 42.5 -9.5t29 -28.5t10.5 -48q0 -26 -11 -56t-37 -58.5t-71 -53.5z" />
    <glyph glyph-name="Rcaron" unicode="&#x158;" horiz-adv-x="744" 
d="M601 -14q-46 0 -77 15t-52 44t-35 71l-37 119q-9 23 -17.5 40.5t-22.5 27.5t-37 10q-9 0 -17 -0.5t-15 -1.5v-181q0 -23 6 -35t30 -17l47 -7v-71h-325v71l43 8q19 3 25 12.5t6 38.5v446q0 24 -6 34t-27 13l-41 7v71h304q61 0 112.5 -9.5t89 -30.5t58 -54.5t20.5 -82.5
q0 -36 -14 -63.5t-36.5 -48t-49.5 -34.5t-53 -22.5t-46 -11.5v-4q56 -9 88 -30.5t48 -67.5l26 -67q13 -31 22.5 -51.5t22.5 -30.5t34 -10q10 0 20 2t23 5l14 -60q-22 -19 -55 -31.5t-76 -12.5zM331 384q41 0 68.5 14.5t42 43t14.5 67.5q0 40 -15.5 64t-43 35t-64.5 11h-41
v-234q12 -1 22 -1h17zM333 750q-15 0 -29.5 8t-33.5 30l-123 137l37 44l151 -92l153 91l33 -43l-126 -139q-17 -19 -30 -27.5t-32 -8.5z" />
    <glyph glyph-name="rcaron" unicode="&#x159;" horiz-adv-x="541" 
d="M43 0v70l41 7q16 3 20.5 13t4.5 36v239q0 33 -5 45.5t-28 16.5l-41 6l8 74l185 13l16 -9l9 -92h4q24 50 65.5 78.5t92.5 28.5q54 0 85.5 -29.5t31.5 -79.5q0 -33 -9.5 -55t-29 -34t-47.5 -12q-37 0 -55 15.5t-18 37.5q0 8 1.5 15.5t5.5 18t10 25.5q-21 8 -42.5 1.5
t-39.5 -24.5t-29 -45t-11 -60v-176q0 -24 5.5 -33.5t22.5 -11.5l73 -10v-69h-326zM294 579q-18 0 -29.5 4.5t-21.5 15t-23 26.5l-106 143l41 41l139 -107l140 106l40 -39l-114 -153q-17 -22 -32 -29.5t-34 -7.5z" />
    <glyph glyph-name="Sacute" unicode="&#x15a;" horiz-adv-x="613" 
d="M325 -14q-54 0 -102.5 17.5t-81.5 44.5l-14 -54h-68l-16 219l77 12q12 -34 30 -61t41.5 -46t52 -29t60.5 -10q36 0 59.5 10t35 29t11.5 44q0 30 -14.5 50.5t-47 36.5t-83.5 32q-45 14 -83 31.5t-65.5 42t-43 60.5t-15.5 86q0 28 8.5 57.5t26 57.5t46 50.5t68 35.5
t92.5 13q49 0 86 -13t68 -37l13 50h63l22 -215l-77 -15q-18 54 -44.5 84.5t-57.5 43.5t-64 13q-42 0 -69 -21.5t-27 -60.5q0 -29 15.5 -48.5t47 -34t77.5 -29.5q49 -15 89.5 -33.5t70 -43.5t45 -60t15.5 -85q0 -54 -20.5 -95.5t-55.5 -70.5t-79 -43.5t-92 -14.5zM233 743
l-28 43l143 135q15 14 25.5 19.5t21.5 5.5q28 0 44 -21t16 -46q0 -22 -12.5 -38.5t-40.5 -27.5z" />
    <glyph glyph-name="sacute" unicode="&#x15b;" horiz-adv-x="498" 
d="M56 -14l-14 178l80 5q15 -35 35.5 -58t46.5 -34.5t57 -11.5q39 0 59 16.5t20 46.5q0 18 -11 29.5t-35.5 21.5t-66.5 19q-35 9 -67.5 21t-57.5 30t-39.5 45.5t-14.5 67.5q0 53 24.5 89.5t68.5 55.5t102 19q39 0 71.5 -9.5t52.5 -23.5l8 33h66l11 -169l-79 5
q-16 47 -49 70.5t-73 23.5q-35 0 -54.5 -14t-19.5 -41q0 -18 10.5 -30t34.5 -21t64 -20q42 -11 76 -23.5t58 -30.5t37 -44.5t13 -65.5q0 -56 -25 -96.5t-70 -62t-106 -21.5q-45 0 -79.5 10t-58.5 25l-11 -35h-64zM204 575l-35 36l110 158q12 19 23.5 25.5t25.5 6.5
q22 0 35.5 -11.5t20 -27t6.5 -28.5q0 -16 -9 -31.5t-29 -28.5z" />
    <glyph glyph-name="Scircumflex" unicode="&#x15c;" horiz-adv-x="613" 
d="M325 -14q-54 0 -102.5 17.5t-81.5 44.5l-14 -54h-68l-16 219l77 12q12 -34 30 -61t41.5 -46t52 -29t60.5 -10q36 0 59.5 10t35 29t11.5 44q0 30 -14.5 50.5t-47 36.5t-83.5 32q-45 14 -83 31.5t-65.5 42t-43 60.5t-15.5 86q0 28 8.5 57.5t26 57.5t46 50.5t68 35.5
t92.5 13q49 0 86 -13t68 -37l13 50h63l22 -215l-77 -15q-18 54 -44.5 84.5t-57.5 43.5t-64 13q-42 0 -69 -21.5t-27 -60.5q0 -29 15.5 -48.5t47 -34t77.5 -29.5q49 -15 89.5 -33.5t70 -43.5t45 -60t15.5 -85q0 -54 -20.5 -95.5t-55.5 -70.5t-79 -43.5t-92 -14.5zM164 739
l-36 43l121 138q17 20 31 28t32 8q17 0 31.5 -8t32.5 -30l114 -135l-35 -44l-145 89z" />
    <glyph glyph-name="scircumflex" unicode="&#x15d;" horiz-adv-x="498" 
d="M56 -14l-14 178l80 5q15 -35 35.5 -58t46.5 -34.5t57 -11.5q39 0 59 16.5t20 46.5q0 18 -11 29.5t-35.5 21.5t-66.5 19q-35 9 -67.5 21t-57.5 30t-39.5 45.5t-14.5 67.5q0 53 24.5 89.5t68.5 55.5t102 19q39 0 71.5 -9.5t52.5 -23.5l8 33h66l11 -169l-79 5
q-16 47 -49 70.5t-73 23.5q-35 0 -54.5 -14t-19.5 -41q0 -18 10.5 -30t34.5 -21t64 -20q42 -11 76 -23.5t58 -30.5t37 -44.5t13 -65.5q0 -56 -25 -96.5t-70 -62t-106 -21.5q-45 0 -79.5 10t-58.5 25l-11 -35h-64zM113 575l-40 38l112 152q17 23 32.5 30.5t35.5 7.5
q19 0 30.5 -4.5t21.5 -15t22 -27.5l105 -142l-40 -39l-139 105z" />
    <glyph glyph-name="Scedilla" unicode="&#x15e;" horiz-adv-x="613" 
d="M322 -243q-45 0 -78.5 13.5t-47.5 25.5l21 51q18 -10 37 -14.5t35 -4.5q21 0 33.5 10t12.5 29q0 17 -11 26t-35 9q-10 0 -18.5 -1t-16.5 -3l-12 32l25 62q-37 7 -69.5 21.5t-56.5 34.5l-14 -54h-68l-16 219l77 12q12 -34 30 -61t41.5 -46t52 -29t60.5 -10q36 0 59.5 10
t35 29t11.5 44q0 30 -14.5 50.5t-47 36.5t-83.5 32q-45 14 -83 31.5t-65.5 42t-43 60.5t-15.5 86q0 28 8.5 57.5t26 57.5t46 50.5t68 35.5t92.5 13q49 0 86 -13t68 -37l13 50h63l22 -215l-77 -15q-18 54 -44.5 84.5t-57.5 43.5t-64 13q-42 0 -69 -21.5t-27 -60.5
q0 -29 15.5 -48.5t47 -34t77.5 -29.5q49 -15 89.5 -33.5t70 -43.5t45 -60t15.5 -85q0 -52 -19 -92.5t-51.5 -69.5t-75 -44.5t-88.5 -16.5l-13 -36q37 5 63.5 -5t40.5 -31.5t14 -51.5q0 -34 -15 -58t-42.5 -36t-63.5 -12z" />
    <glyph glyph-name="scedilla" unicode="&#x15f;" horiz-adv-x="498" 
d="M264 -243q-45 0 -78.5 13.5t-48.5 25.5l22 51q18 -10 37 -14.5t35 -4.5q21 0 33 10t12 29q0 17 -10.5 26t-34.5 9q-11 0 -19.5 -1t-16.5 -3l-11 32l24 62q-23 4 -42 12t-35 17l-11 -35h-64l-14 178l80 5q15 -35 35.5 -58t46.5 -34.5t57 -11.5q39 0 59 16.5t20 46.5
q0 18 -11 29.5t-35.5 21.5t-66.5 19q-35 9 -67.5 21t-57.5 30t-39.5 45.5t-14.5 67.5q0 53 24.5 89.5t68.5 55.5t102 19q39 0 71.5 -9.5t52.5 -23.5l8 33h66l11 -169l-79 5q-16 47 -49 70.5t-73 23.5q-35 0 -54.5 -14t-19.5 -41q0 -18 10.5 -30t34.5 -21t64 -20
q42 -11 76 -23.5t58 -30.5t37 -44.5t13 -65.5q0 -41 -13.5 -73.5t-38.5 -55.5t-60.5 -36.5t-77.5 -14.5l-14 -35q38 5 64.5 -5t40.5 -31.5t14 -51.5q0 -34 -15 -58t-42.5 -36t-63.5 -12z" />
    <glyph glyph-name="Scaron" unicode="&#x160;" horiz-adv-x="613" 
d="M325 -14q-54 0 -102.5 17.5t-81.5 44.5l-14 -54h-68l-16 219l77 12q12 -34 30 -61t41.5 -46t52 -29t60.5 -10q36 0 59.5 10t35 29t11.5 44q0 30 -14.5 50.5t-47 36.5t-83.5 32q-45 14 -83 31.5t-65.5 42t-43 60.5t-15.5 86q0 28 8.5 57.5t26 57.5t46 50.5t68 35.5
t92.5 13q49 0 86 -13t68 -37l13 50h63l22 -215l-77 -15q-18 54 -44.5 84.5t-57.5 43.5t-64 13q-42 0 -69 -21.5t-27 -60.5q0 -29 15.5 -48.5t47 -34t77.5 -29.5q49 -15 89.5 -33.5t70 -43.5t45 -60t15.5 -85q0 -54 -20.5 -95.5t-55.5 -70.5t-79 -43.5t-92 -14.5zM308 750
q-15 0 -29.5 8t-33.5 30l-123 137l37 44l151 -92l153 91l33 -43l-126 -139q-17 -19 -30 -27.5t-32 -8.5z" />
    <glyph glyph-name="scaron" unicode="&#x161;" horiz-adv-x="498" 
d="M56 -14l-14 178l80 5q15 -35 35.5 -58t46.5 -34.5t57 -11.5q39 0 59 16.5t20 46.5q0 18 -11 29.5t-35.5 21.5t-66.5 19q-35 9 -67.5 21t-57.5 30t-39.5 45.5t-14.5 67.5q0 53 24.5 89.5t68.5 55.5t102 19q39 0 71.5 -9.5t52.5 -23.5l8 33h66l11 -169l-79 5
q-16 47 -49 70.5t-73 23.5q-35 0 -54.5 -14t-19.5 -41q0 -18 10.5 -30t34.5 -21t64 -20q42 -11 76 -23.5t58 -30.5t37 -44.5t13 -65.5q0 -56 -25 -96.5t-70 -62t-106 -21.5q-45 0 -79.5 10t-58.5 25l-11 -35h-64zM251 579q-18 0 -29.5 4.5t-21.5 15t-23 26.5l-106 143l41 41
l139 -107l140 106l40 -39l-114 -153q-17 -22 -32 -29.5t-34 -7.5z" />
    <glyph glyph-name="uni0162" unicode="&#x162;" horiz-adv-x="746" 
d="M379 -243q-45 0 -78.5 13.5t-47.5 25.5l21 51q18 -10 37 -14.5t35 -4.5q21 0 33 10t12 29q0 17 -10.5 26t-34.5 9q-11 0 -19.5 -1t-16.5 -3l-11 32l28 70h-140v71l70 10q20 2 26.5 15t6.5 36v486h-36q-30 0 -50.5 -6.5t-35.5 -22.5t-27 -45t-24 -75l-93 19l33 213h633
l32 -214l-93 -18q-12 46 -24 75.5t-27 45.5t-35 22t-48 6h-38v-488q0 -22 5.5 -34t28.5 -15l69 -10v-71h-160l-18 -49q37 5 63.5 -5t40.5 -31.5t14 -51.5q0 -34 -15 -58t-42.5 -36t-63.5 -12z" />
    <glyph glyph-name="uni0163" unicode="&#x163;" horiz-adv-x="438" 
d="M263 -243q-45 0 -78.5 13.5t-47.5 25.5l21 51q18 -10 37 -14.5t35 -4.5q21 0 33 10t12 29q0 17 -10.5 26t-34.5 9q-11 0 -19 -1t-17 -3l-11 32l24 61q-54 11 -81.5 48t-27.5 102v284h-72v74q44 6 70 26t39 57.5t18 94.5l87 11l17 -8v-168h142v-87h-142v-257
q0 -36 13 -55.5t46 -19.5q22 0 42.5 7t40.5 20l34 -61q-28 -28 -66.5 -47.5t-87.5 -24.5l-13 -36q37 5 63.5 -5t40.5 -31.5t14 -51.5q0 -34 -15 -58t-42.5 -36t-63.5 -12z" />
    <glyph glyph-name="Tcaron" unicode="&#x164;" horiz-adv-x="746" 
d="M187 0v71l70 10q20 2 26.5 15t6.5 36v486h-36q-30 0 -50.5 -6.5t-35.5 -22.5t-27 -45t-24 -75l-93 19l33 213h633l32 -214l-93 -18q-12 46 -24 75.5t-27 45.5t-35 22t-48 6h-38v-488q0 -22 5.5 -34t28.5 -15l69 -10v-71h-373zM370 750q-15 0 -29.5 8t-33.5 30l-123 137
l37 44l151 -92l153 91l33 -43l-126 -139q-17 -19 -30 -27.5t-32 -8.5z" />
    <glyph glyph-name="tcaron" unicode="&#x165;" horiz-adv-x="438" 
d="M256 -14q-51 0 -86.5 17t-53.5 52t-18 86v284h-72v74q44 6 70 26t39 57.5t18 94.5l87 11l17 -8v-168h142v-87h-142v-257q0 -36 13 -55.5t46 -19.5q22 0 42.5 7t40.5 20l34 -61q-32 -32 -76 -52.5t-101 -20.5zM363 581l-43 34q25 36 35.5 59t10.5 41q0 13 -5 21.5
t-17 18.5q-10 10 -17.5 20t-7.5 27q0 29 21.5 44t49.5 15q36 0 57.5 -25t21.5 -60q0 -24 -10 -55t-33.5 -66.5t-62.5 -73.5z" />
    <glyph glyph-name="Tbar" unicode="&#x166;" horiz-adv-x="746" 
d="M187 0v71l70 10q20 2 26.5 15t6.5 36v157h-146l11 99h135v230h-36q-30 0 -50.5 -6.5t-35.5 -22.5t-27 -45t-24 -75l-93 19l33 213h633l32 -214l-93 -18q-12 46 -24 75.5t-27 45.5t-35 22t-48 6h-38v-230h139v-99h-139v-159q0 -22 5.5 -34t28.5 -15l69 -10v-71h-373z" />
    <glyph glyph-name="tbar" unicode="&#x167;" horiz-adv-x="438" 
d="M256 -14q-51 0 -86.5 17t-53.5 52t-18 86v101h-86l10 86h76v97h-72v74q44 6 70 26t39 57.5t18 94.5l87 11l17 -8v-168h142v-87h-142v-97h139v-86h-139v-74q0 -36 13 -55.5t46 -19.5q22 0 42.5 7t40.5 20l34 -61q-32 -32 -76 -52.5t-101 -20.5z" />
    <glyph glyph-name="Utilde" unicode="&#x168;" horiz-adv-x="785" 
d="M396 -14q-80 0 -135 20t-87.5 56t-47 86t-14.5 110v316q0 26 -6.5 36t-27.5 13l-41 7v71h315v-71l-44 -8q-18 -3 -24 -13.5t-6 -36.5v-314q0 -55 15 -92t46.5 -55.5t84.5 -18.5q56 0 89 20t48 57.5t15 90.5v314q0 26 -6.5 36t-27.5 13l-40 7v71h248v-71l-42 -8
q-19 -3 -25.5 -13.5t-6.5 -38.5v-299q0 -96 -31.5 -159t-93.5 -94.5t-155 -31.5zM496 768q-24 0 -46 6t-48 17q-17 8 -31.5 13.5t-26 8.5t-20.5 3q-12 0 -22.5 -8t-22.5 -31l-50 29q19 46 35.5 72t35.5 37t45 11q22 0 43 -7t48 -19q26 -11 43.5 -17t33.5 -6q14 0 23.5 8
t21.5 31l50 -28q-18 -45 -34.5 -71t-35 -37.5t-42.5 -11.5z" />
    <glyph glyph-name="utilde" unicode="&#x169;" horiz-adv-x="676" 
d="M255 -14q-80 0 -121.5 44.5t-41.5 126.5v208q0 32 -5 45t-29 17l-37 6l7 74l207 13l16 -9v-315q0 -38 7 -60.5t22.5 -32t41.5 -9.5q31 0 53 13.5t33.5 40.5t11.5 65v153q0 36 -6 46.5t-28 14.5l-34 6l11 74l200 13l16 -9v-378q0 -29 6.5 -40t24.5 -15l40 -7v-71l-205 -8
l-14 87h-4q-19 -27 -41.5 -48t-53.5 -33t-77 -12zM395 607q-23 0 -44.5 6t-47.5 17q-21 10 -34.5 15t-23.5 7.5t-19 2.5q-12 0 -22.5 -8t-22.5 -31l-50 29q19 46 35.5 71.5t35.5 36t45 10.5q23 0 43 -6.5t46 -18.5q27 -10 44.5 -16.5t31.5 -6.5q15 0 24.5 8.5t20.5 30.5
l50 -28q-18 -44 -34 -70t-34.5 -37.5t-43.5 -11.5z" />
    <glyph glyph-name="Umacron" unicode="&#x16a;" horiz-adv-x="785" 
d="M396 -14q-80 0 -135 20t-87.5 56t-47 86t-14.5 110v316q0 26 -6.5 36t-27.5 13l-41 7v71h315v-71l-44 -8q-18 -3 -24 -13.5t-6 -36.5v-314q0 -55 15 -92t46.5 -55.5t84.5 -18.5q56 0 89 20t48 57.5t15 90.5v314q0 26 -6.5 36t-27.5 13l-40 7v71h248v-71l-42 -8
q-19 -3 -25.5 -13.5t-6.5 -38.5v-299q0 -96 -31.5 -159t-93.5 -94.5t-155 -31.5zM255 790v108h326v-108h-326z" />
    <glyph glyph-name="umacron" unicode="&#x16b;" horiz-adv-x="676" 
d="M255 -14q-80 0 -121.5 44.5t-41.5 126.5v208q0 32 -5 45t-29 17l-37 6l7 74l207 13l16 -9v-315q0 -38 7 -60.5t22.5 -32t41.5 -9.5q31 0 53 13.5t33.5 40.5t11.5 65v153q0 36 -6 46.5t-28 14.5l-34 6l11 74l200 13l16 -9v-378q0 -29 6.5 -40t24.5 -15l40 -7v-71l-205 -8
l-14 87h-4q-19 -27 -41.5 -48t-53.5 -33t-77 -12zM160 625v107h318v-107h-318z" />
    <glyph glyph-name="Ubreve" unicode="&#x16c;" horiz-adv-x="785" 
d="M396 -14q-80 0 -135 20t-87.5 56t-47 86t-14.5 110v316q0 26 -6.5 36t-27.5 13l-41 7v71h315v-71l-44 -8q-18 -3 -24 -13.5t-6 -36.5v-314q0 -55 15 -92t46.5 -55.5t84.5 -18.5q56 0 89 20t48 57.5t15 90.5v314q0 26 -6.5 36t-27.5 13l-40 7v71h248v-71l-42 -8
q-19 -3 -25.5 -13.5t-6.5 -38.5v-299q0 -96 -31.5 -159t-93.5 -94.5t-155 -31.5zM416 751q-57 0 -95 24.5t-58 68.5t-26 101l59 12q14 -51 44 -74t78 -23t78 24.5t42 70.5l59 -11q-5 -55 -26.5 -98.5t-60 -69t-94.5 -25.5z" />
    <glyph glyph-name="ubreve" unicode="&#x16d;" horiz-adv-x="676" 
d="M255 -14q-80 0 -121.5 44.5t-41.5 126.5v208q0 32 -5 45t-29 17l-37 6l7 74l207 13l16 -9v-315q0 -38 7 -60.5t22.5 -32t41.5 -9.5q31 0 53 13.5t33.5 40.5t11.5 65v153q0 36 -6 46.5t-28 14.5l-34 6l11 74l200 13l16 -9v-378q0 -29 6.5 -40t24.5 -15l40 -7v-71l-205 -8
l-14 87h-4q-19 -27 -41.5 -48t-53.5 -33t-77 -12zM317 585q-53 0 -90 25t-57.5 69.5t-25.5 103.5l60 14q14 -52 42.5 -78.5t74.5 -26.5q50 0 76 29.5t39 75.5l59 -13q-7 -57 -28.5 -102t-58.5 -71t-91 -26z" />
    <glyph glyph-name="Uring" unicode="&#x16e;" horiz-adv-x="785" 
d="M396 -14q-80 0 -135 20t-87.5 56t-47 86t-14.5 110v316q0 26 -6.5 36t-27.5 13l-41 7v71h315v-71l-44 -8q-18 -3 -24 -13.5t-6 -36.5v-314q0 -55 15 -92t46.5 -55.5t84.5 -18.5q56 0 89 20t48 57.5t15 90.5v314q0 26 -6.5 36t-27.5 13l-40 7v71h248v-71l-42 -8
q-19 -3 -25.5 -13.5t-6.5 -38.5v-299q0 -96 -31.5 -159t-93.5 -94.5t-155 -31.5zM413 744q-66 0 -101 31t-35 83q0 35 17.5 60t50 38.5t77.5 13.5q69 0 103.5 -29t34.5 -82q0 -35 -18 -61t-51 -40t-78 -14zM418 798q23 0 33 15.5t10 44.5q0 20 -5 33t-15 19.5t-24 6.5
q-23 0 -33 -15.5t-10 -43.5q0 -20 4.5 -33.5t14 -20t25.5 -6.5z" />
    <glyph glyph-name="uring" unicode="&#x16f;" horiz-adv-x="676" 
d="M255 -14q-80 0 -121.5 44.5t-41.5 126.5v208q0 32 -5 45t-29 17l-37 6l7 74l207 13l16 -9v-315q0 -38 7 -60.5t22.5 -32t41.5 -9.5q31 0 53 13.5t33.5 40.5t11.5 65v153q0 36 -6 46.5t-28 14.5l-34 6l11 74l200 13l16 -9v-378q0 -29 6.5 -40t24.5 -15l40 -7v-71l-205 -8
l-14 87h-4q-19 -27 -41.5 -48t-53.5 -33t-77 -12zM314 580q-65 0 -100 31t-35 82q0 35 17.5 60t49.5 38.5t77 13.5q69 0 103 -29t34 -82q0 -35 -18 -60.5t-50.5 -39.5t-77.5 -14zM319 634q16 0 24.5 7t13 20t4.5 32q0 21 -5 33.5t-14.5 18.5t-23.5 6q-15 0 -24 -6.5
t-13.5 -19.5t-4.5 -32q0 -20 4.5 -33t14 -19.5t24.5 -6.5z" />
    <glyph glyph-name="Uhungarumlaut" unicode="&#x170;" horiz-adv-x="785" 
d="M396 -14q-80 0 -135 20t-87.5 56t-47 86t-14.5 110v316q0 26 -6.5 36t-27.5 13l-41 7v71h315v-71l-44 -8q-18 -3 -24 -13.5t-6 -36.5v-314q0 -55 15 -92t46.5 -55.5t84.5 -18.5q56 0 89 20t48 57.5t15 90.5v314q0 26 -6.5 36t-27.5 13l-40 7v71h248v-71l-42 -8
q-19 -3 -25.5 -13.5t-6.5 -38.5v-299q0 -96 -31.5 -159t-93.5 -94.5t-155 -31.5zM314 743l-33 40l113 143q14 17 26 24t25 7q27 0 42 -20t15 -41q0 -22 -11.5 -38.5t-36.5 -31.5zM499 743l-28 43l128 130q15 15 27 21t23 6q25 0 40.5 -18.5t15.5 -43.5q0 -22 -13 -38
t-39 -29z" />
    <glyph glyph-name="uhungarumlaut" unicode="&#x171;" horiz-adv-x="676" 
d="M255 -14q-80 0 -121.5 44.5t-41.5 126.5v208q0 32 -5 45t-29 17l-37 6l7 74l207 13l16 -9v-315q0 -38 7 -60.5t22.5 -32t41.5 -9.5q31 0 53 13.5t33.5 40.5t11.5 65v153q0 36 -6 46.5t-28 14.5l-34 6l11 74l200 13l16 -9v-378q0 -29 6.5 -40t24.5 -15l40 -7v-71l-205 -8
l-14 87h-4q-19 -27 -41.5 -48t-53.5 -33t-77 -12zM402 575l-36 36l108 156q13 18 25 25t25 7q19 0 31.5 -9.5t18.5 -23t6 -28.5q0 -17 -9 -34.5t-28 -30.5zM224 575l-35 36l100 157q11 19 23 25.5t26 6.5q19 0 31.5 -9.5t18.5 -23t6 -27.5q0 -15 -8.5 -31t-27.5 -30z" />
    <glyph glyph-name="Uogonek" unicode="&#x172;" horiz-adv-x="785" 
d="M420 -242q-42 0 -66.5 13.5t-35.5 34.5t-11 43q0 29 14.5 54t38.5 45.5t53 37.5h-8.5h-8.5q-80 0 -135 20t-87.5 56t-47 86t-14.5 110v316q0 26 -6.5 36t-27.5 13l-41 7v71h315v-71l-44 -8q-18 -3 -24 -13.5t-6 -36.5v-314q0 -55 15 -92t46.5 -55.5t84.5 -18.5
q56 0 89 20t48 57.5t15 90.5v314q0 26 -6.5 36t-27.5 13l-40 7v71h248v-71l-42 -8q-19 -3 -25.5 -13.5t-6.5 -38.5v-299q0 -107 -39 -173t-116 -92q-40 -30 -64.5 -62t-24.5 -63q0 -20 9.5 -29t26.5 -9q12 0 27 3.5t31 10.5l22 -48q-15 -14 -34.5 -25t-42.5 -18.5t-51 -7.5z
" />
    <glyph glyph-name="uogonek" unicode="&#x173;" horiz-adv-x="667" 
d="M508 -242q-43 0 -68 13.5t-35.5 34.5t-10.5 43q0 33 16.5 59t43 47.5t55.5 39.5l-64 -3l-14 87h-4q-19 -27 -41.5 -48t-53.5 -33t-77 -12q-80 0 -121.5 44.5t-41.5 126.5v208q0 32 -5 45t-29 17l-37 6l7 74l207 13l16 -9v-315q0 -38 7 -60.5t22.5 -32t41.5 -9.5
q31 0 53 13.5t33.5 40.5t11.5 65v153q0 36 -6 46.5t-28 14.5l-34 6l11 74l200 13l16 -9v-378q0 -29 6.5 -40t24.5 -15l40 -7v-71l-56 -2q-37 -33 -56.5 -61t-19.5 -56q0 -20 10 -29t28 -9q13 0 28.5 3.5t31.5 10.5l22 -48q-15 -13 -34.5 -24.5t-43.5 -19t-52 -7.5z" />
    <glyph glyph-name="Wcircumflex" unicode="&#x174;" horiz-adv-x="1108" 
d="M233 0l-136 572q-6 26 -14.5 35.5t-31.5 13.5l-40 8v72h329v-72l-47 -7q-19 -4 -24 -15t0 -37l91 -416h4l136 547h163l151 -551h4l88 421q5 26 1 36.5t-23 13.5l-49 10v70h263v-72l-49 -8q-12 -1 -21 -5t-15 -14t-11 -31l-132 -571h-184l-137 506h-3l-127 -506h-186z
M437 739l-36 43l121 138q17 20 31 28t32 8q17 0 31.5 -8t32.5 -30l114 -135l-35 -44l-145 89z" />
    <glyph glyph-name="wcircumflex" unicode="&#x175;" horiz-adv-x="900" 
d="M203 0l-117 376q-6 18 -11.5 28.5t-13 16t-20.5 8.5l-35 8l10 75h280v-72l-40 -6q-14 -3 -17 -13t4 -36l67 -238h5l91 365h164l94 -364h4l65 230q8 27 1.5 38.5t-25.5 15.5l-33 8l11 72h208v-72l-34 -7q-19 -4 -31 -16t-22 -48l-110 -369h-144l-96 367h-4l-91 -367h-160z
M347 575l-40 38l112 152q17 23 32.5 30.5t35.5 7.5q19 0 30.5 -4.5t21.5 -15t22 -27.5l105 -142l-40 -39l-139 105z" />
    <glyph glyph-name="Ycircumflex" unicode="&#x176;" horiz-adv-x="745" 
d="M200 0v71l59 8q19 2 25 12t6 39v137l-180 302q-13 22 -24.5 35t-35.5 17l-40 7v73h334v-72l-50 -7q-19 -2 -23 -14.5t10 -35.5l123 -202h5l115 196q14 24 10.5 37t-28.5 18l-47 9v71h276v-72l-50 -9q-17 -3 -28.5 -14.5t-28.5 -40.5l-174 -296v-143q0 -25 6 -35t26 -12
l59 -8v-71h-345zM252 739l-36 43l121 138q17 20 31 28t32 8q17 0 31.5 -8t32.5 -30l114 -135l-35 -44l-145 89z" />
    <glyph glyph-name="ycircumflex" unicode="&#x177;" horiz-adv-x="611" 
d="M138 -230q-57 0 -92.5 26t-35.5 71q0 33 20.5 56t54.5 23q31 0 46 -13t16 -32q0 -9 -3.5 -24.5t-8.5 -36.5q25 -3 44 8t34.5 36.5t32.5 65.5l17 39l-175 392q-11 24 -18 34t-25 15l-33 7l10 75h286v-72l-38 -5q-20 -3 -25 -14.5t6 -39.5l93 -228h5l89 222q10 24 6 38.5
t-27 18.5l-38 8l12 72h217v-73l-35 -7q-17 -4 -25.5 -14t-22.5 -42l-169 -403q-22 -52 -43.5 -90t-46 -63t-55.5 -37.5t-73 -12.5zM187 575l-40 38l112 152q17 23 32.5 30.5t35.5 7.5q19 0 30.5 -4.5t21.5 -15t22 -27.5l105 -142l-40 -39l-139 105z" />
    <glyph glyph-name="Ydieresis" unicode="&#x178;" horiz-adv-x="745" 
d="M200 0v71l59 8q19 2 25 12t6 39v137l-180 302q-13 22 -24.5 35t-35.5 17l-40 7v73h334v-72l-50 -7q-19 -2 -23 -14.5t10 -35.5l123 -202h5l115 196q14 24 10.5 37t-28.5 18l-47 9v71h276v-72l-50 -9q-17 -3 -28.5 -14.5t-28.5 -40.5l-174 -296v-143q0 -25 6 -35t26 -12
l59 -8v-71h-345zM511 772q-37 0 -61 22t-24 59q0 35 24 57t61 22q43 0 64.5 -21.5t21.5 -57.5q0 -37 -24 -59t-62 -22zM281 772q-38 0 -62 22t-24 59q0 35 24 57t62 22q42 0 64 -21.5t22 -57.5q0 -37 -24 -59t-62 -22z" />
    <glyph glyph-name="Zacute" unicode="&#x179;" horiz-adv-x="686" 
d="M46 0v77l394 542h-164q-28 0 -47 -6.5t-32.5 -23.5t-25 -46.5t-25.5 -74.5l-92 -6l12 239h565v-78l-390 -539h153q32 0 54.5 6.5t39.5 23t32 47.5t32 80h89l-20 -241h-575zM265 743l-28 43l143 135q15 14 25.5 19.5t21.5 5.5q28 0 44 -21t16 -46q0 -22 -12.5 -38.5
t-40.5 -27.5z" />
    <glyph glyph-name="zacute" unicode="&#x17a;" horiz-adv-x="533" 
d="M37 0v65l275 368h-90q-34 0 -52.5 -8t-30.5 -33t-26 -74l-74 -5l12 199h439v-64l-270 -367h93q27 0 44.5 4.5t30 17.5t23 36.5t24.5 61.5h71l-14 -201h-455zM220 575l-35 36l110 158q12 19 23.5 25.5t25.5 6.5q22 0 35.5 -11.5t20 -27t6.5 -28.5q0 -16 -9 -31.5
t-29 -28.5z" />
    <glyph glyph-name="Zdotaccent" unicode="&#x17b;" horiz-adv-x="686" 
d="M46 0v77l394 542h-164q-28 0 -47 -6.5t-32.5 -23.5t-25 -46.5t-25.5 -74.5l-92 -6l12 239h565v-78l-390 -539h153q32 0 54.5 6.5t39.5 23t32 47.5t32 80h89l-20 -241h-575zM341 767q-46 0 -72 22.5t-26 61.5t25.5 61.5t72.5 22.5t72 -22t25 -62q0 -39 -26.5 -61.5
t-70.5 -22.5z" />
    <glyph glyph-name="zdotaccent" unicode="&#x17c;" horiz-adv-x="533" 
d="M37 0v65l275 368h-90q-34 0 -52.5 -8t-30.5 -33t-26 -74l-74 -5l12 199h439v-64l-270 -367h93q27 0 44.5 4.5t30 17.5t23 36.5t24.5 61.5h71l-14 -201h-455zM268 603q-46 0 -72 22.5t-26 62.5q0 38 25.5 61t72.5 23t72 -22.5t25 -61.5t-26.5 -62t-70.5 -23z" />
    <glyph glyph-name="Zcaron" unicode="&#x17d;" horiz-adv-x="686" 
d="M46 0v77l394 542h-164q-28 0 -47 -6.5t-32.5 -23.5t-25 -46.5t-25.5 -74.5l-92 -6l12 239h565v-78l-390 -539h153q32 0 54.5 6.5t39.5 23t32 47.5t32 80h89l-20 -241h-575zM340 750q-15 0 -29.5 8t-33.5 30l-123 137l37 44l151 -92l153 91l33 -43l-126 -139
q-17 -19 -30 -27.5t-32 -8.5z" />
    <glyph glyph-name="zcaron" unicode="&#x17e;" horiz-adv-x="533" 
d="M37 0v65l275 368h-90q-34 0 -52.5 -8t-30.5 -33t-26 -74l-74 -5l12 199h439v-64l-270 -367h93q27 0 44.5 4.5t30 17.5t23 36.5t24.5 61.5h71l-14 -201h-455zM267 579q-18 0 -29.5 4.5t-21.5 15t-23 26.5l-106 143l41 41l139 -107l140 106l40 -39l-114 -153
q-17 -22 -32 -29.5t-34 -7.5z" />
    <glyph glyph-name="uni018F" unicode="&#x18f;" horiz-adv-x="722" 
d="M330 -14q-88 0 -151.5 33.5t-97 93t-34.5 137.5q0 26 3.5 57t11.5 63h441q-3 78 -28 129t-67.5 76t-99.5 25q-37 0 -73 -10t-70 -28.5t-67 -46.5l-48 53q32 42 76 75t100 52.5t125 19.5q105 0 178 -44t111.5 -124.5t38.5 -189.5q0 -97 -28.5 -167.5t-77 -115.5
t-111.5 -66.5t-132 -21.5zM349 82q50 0 82 24.5t49.5 68t21.5 98.5h-280q-2 -9 -3 -23t-1 -29q0 -46 16 -77t45.5 -46.5t69.5 -15.5z" />
    <glyph glyph-name="florin" unicode="&#x192;" horiz-adv-x="611" 
d="M98 -193q-48 0 -84 14.5t-56 41.5t-20 63q0 33 20 54t58 21q33 0 49.5 -12.5t16.5 -37.5q0 -11 -7 -27t-18 -37q10 -5 20 -8t22 -3q21 0 36 14t25.5 42t15.5 70l44 355h-78l10 81h79l4 32q8 54 28 99t49.5 77.5t69.5 50.5t87 18q49 0 85 -15t56 -41.5t20 -63.5
q0 -33 -19.5 -54t-57.5 -21q-34 0 -50 13t-16 37q0 13 7 28.5t18 35.5q-9 5 -21.5 8.5t-24.5 3.5q-20 0 -35 -13t-25.5 -40t-15.5 -71l-8 -82h142l-11 -83h-144l-38 -306q-9 -71 -40.5 -126t-80 -86.5t-112.5 -31.5z" />
    <glyph glyph-name="Ohorn" unicode="&#x1a0;" horiz-adv-x="874" 
d="M383 -14q-113 0 -189 45.5t-114 125.5t-38 180q0 97 27.5 168t77 117t114.5 68.5t139 22.5q69 0 128 -20t104 -60.5t71 -100.5q28 11 44.5 26t25.5 33.5t10 39.5h-11q-35 0 -52 16.5t-17 46.5q0 26 11.5 43t29.5 26t39 9q28 0 48.5 -12.5t31.5 -35.5t11 -54
q0 -40 -16.5 -80t-49.5 -72.5t-84 -50.5q5 -23 7.5 -48t2.5 -53q0 -84 -24 -154t-69 -120.5t-110 -78t-148 -27.5zM396 84q37 0 67 13.5t51 44t32 81.5t11 126q0 68 -11.5 119t-34.5 84t-55 49t-72 16q-37 0 -68 -13.5t-53 -44t-33.5 -80.5t-11.5 -122q0 -67 11.5 -118
t34 -85.5t55.5 -52t77 -17.5z" />
    <glyph glyph-name="ohorn" unicode="&#x1a1;" horiz-adv-x="694" 
d="M306 -14q-88 0 -147.5 31t-90.5 89.5t-31 139.5q0 101 38 162.5t103.5 89.5t145.5 28q67 0 122.5 -21t90.5 -67q22 12 36.5 26.5t22 32t8.5 37.5h-12q-35 0 -52 16.5t-17 46.5q0 25 11.5 42.5t30 26t38.5 8.5q28 0 48.5 -12.5t31.5 -35t11 -54.5q0 -36 -14 -72.5
t-41.5 -67.5t-70.5 -51q10 -24 15 -52t5 -61q0 -93 -34.5 -155.5t-98 -94.5t-149.5 -32zM319 73q36 0 57.5 19t32 57.5t10.5 97.5q0 53 -7.5 90t-22.5 59.5t-35 33.5t-46 11q-30 0 -53.5 -15t-36.5 -50.5t-13 -97.5q0 -50 6.5 -89t20.5 -64.5t36 -38.5t51 -13z" />
    <glyph glyph-name="Uhorn" unicode="&#x1af;" horiz-adv-x="892" 
d="M396 -14q-85 0 -140.5 21.5t-87 59.5t-44 87t-12.5 104v316q0 25 -6 35t-28 14l-41 7v71h315v-71l-44 -8q-19 -4 -24.5 -15t-5.5 -35v-314q0 -54 14.5 -91t46 -56t85.5 -19q53 0 86.5 18.5t49.5 56.5t16 93v314q0 25 -5.5 35t-28.5 14l-40 7v71h174v-181q35 7 58 18.5
t37.5 25.5t22 31.5t8.5 35.5h-12q-35 0 -52 16.5t-17 46.5q0 26 11.5 43t30 26t38.5 9q28 0 48.5 -12.5t31.5 -35.5t11 -54q0 -36 -13 -71t-39 -65t-66.5 -51t-97.5 -28v-184q0 -98 -32 -161t-94.5 -93.5t-153.5 -30.5z" />
    <glyph glyph-name="uhorn" unicode="&#x1b0;" horiz-adv-x="777" 
d="M255 -14q-57 0 -93.5 22t-53 61t-16.5 88v208q0 35 -6 46.5t-28 15.5l-37 6l7 74l207 13l16 -9v-315q0 -32 5 -55t20 -35t46 -12q28 0 50 12.5t35 39t13 67.5v153q0 35 -6 46t-28 15l-34 6l11 74l200 13l16 -9v-88q37 11 60 27.5t34.5 38t13.5 45.5h-12q-35 0 -51.5 16.5
t-16.5 46.5q0 25 11 42.5t29.5 26t38.5 8.5q28 0 48.5 -12.5t31.5 -35t11 -54.5q0 -46 -21.5 -91.5t-65.5 -78.5t-111 -43v-226q0 -28 6.5 -39.5t24.5 -15.5l40 -7v-71l-205 -8l-14 88h-4q-19 -28 -41.5 -49t-53.5 -33t-77 -12z" />
    <glyph glyph-name="uni01C4" unicode="&#x1c4;" horiz-adv-x="1440" 
d="M49 0v71l43 8q19 3 25 12.5t6 38.5v446q0 25 -6.5 34.5t-26.5 12.5l-41 7v71h321q60 0 114.5 -11t100.5 -34.5t79.5 -62.5t52.5 -93.5t19 -128.5q0 -90 -26.5 -159t-79 -116.5t-130.5 -71.5t-181 -24h-270zM348 91q57 0 97 16t65.5 50t37.5 85.5t12 121.5
q0 84 -23.5 138.5t-68.5 81t-110 26.5h-68v-515q12 -2 27.5 -3t30.5 -1zM800 0v77l394 542h-164q-28 0 -47 -6.5t-32.5 -23.5t-25 -46.5t-25.5 -74.5l-92 -6l12 239h565v-78l-390 -539h153q32 0 54.5 6.5t39.5 23t32 47.5t32 80h89l-20 -241h-575zM1094 750q-15 0 -29.5 8
t-33.5 30l-123 137l37 44l151 -92l153 91l33 -43l-126 -139q-17 -19 -30 -27.5t-32 -8.5z" />
    <glyph glyph-name="uni01C5" unicode="&#x1c5;" horiz-adv-x="1306" 
d="M49 0v71l43 8q19 3 25 12.5t6 38.5v446q0 25 -6.5 34.5t-26.5 12.5l-41 7v71h321q60 0 114.5 -11t100.5 -34.5t79.5 -62.5t52.5 -93.5t19 -128.5q0 -90 -26.5 -159t-79 -116.5t-130.5 -71.5t-181 -24h-270zM348 91q57 0 97 16t65.5 50t37.5 85.5t12 121.5
q0 84 -23.5 138.5t-68.5 81t-110 26.5h-68v-515q12 -2 27.5 -3t30.5 -1zM810 0v65l275 368h-90q-34 0 -52.5 -8t-30.5 -33t-26 -74l-74 -5l12 199h439v-64l-270 -367h93q27 0 44.5 4.5t30 17.5t23 36.5t24.5 61.5h71l-14 -201h-455zM1040 579q-18 0 -29.5 4.5t-21.5 15
t-23 26.5l-106 143l41 41l139 -107l140 106l40 -39l-114 -153q-17 -22 -32 -29.5t-34 -7.5z" />
    <glyph glyph-name="uni01C6" unicode="&#x1c6;" horiz-adv-x="1191" 
d="M251 -14q-70 0 -117.5 30.5t-72 87.5t-24.5 137q0 87 30 151t86 99t135 35q35 0 64.5 -8t51.5 -21v128q0 30 -7 41t-34 15l-39 6l7 73l218 7l14 -15v-632q0 -23 6 -31t27 -12l38 -8v-70l-204 -7l-12 80h-4q-16 -25 -38.5 -44t-53 -30.5t-71.5 -11.5zM305 83q31 0 53 15
t34 43t12 66v194q-20 15 -43.5 22.5t-50.5 7.5q-36 0 -59.5 -19t-35 -59t-11.5 -101q0 -56 11.5 -94t34 -56.5t55.5 -18.5zM695 0v65l275 368h-90q-34 0 -52.5 -8t-30.5 -33t-26 -74l-74 -5l12 199h439v-64l-270 -367h93q27 0 44.5 4.5t30 17.5t23 36.5t24.5 61.5h71
l-14 -201h-455zM925 579q-18 0 -29.5 4.5t-21.5 15t-23 26.5l-106 143l41 41l139 -107l140 106l40 -39l-114 -153q-17 -22 -32 -29.5t-34 -7.5z" />
    <glyph glyph-name="uni01C7" unicode="&#x1c7;" horiz-adv-x="1219" 
d="M49 0v71l44 8q18 3 24 12.5t6 38.5v446q0 25 -7 35t-26 12l-41 7v71h329v-71l-54 -8q-20 -3 -27 -12t-7 -34v-490h86q30 0 51 7.5t36.5 24.5t27.5 47t26 76h92l-27 -241h-533zM875 -14q-58 0 -105.5 18t-76 50.5t-28.5 75.5q0 34 12 57t33.5 35.5t47.5 12.5
q34 0 54.5 -15t20.5 -39q0 -19 -8 -38t-26 -47q12 -10 30 -16t38 -6q30 0 48.5 15t27 43.5t8.5 68.5v369q0 26 -6 36.5t-27 12.5l-63 8v74h339v-71l-46 -8q-17 -3 -23.5 -12.5t-6.5 -37.5v-334q0 -124 -63.5 -188t-179.5 -64z" />
    <glyph glyph-name="uni01C8" unicode="&#x1c8;" horiz-adv-x="985" 
d="M49 0v71l44 8q18 3 24 12.5t6 38.5v446q0 25 -7 35t-26 12l-41 7v71h329v-71l-54 -8q-20 -3 -27 -12t-7 -34v-490h86q30 0 51 7.5t36.5 24.5t27.5 47t26 76h92l-27 -241h-533zM717 -230l-49 65q22 20 37.5 41t24.5 45.5t13.5 54t4.5 64.5v325q0 34 -6.5 45.5t-28.5 15.5
l-39 6l7 75l211 11l15 -8v-415q0 -68 -13 -119t-38 -88t-60 -65.5t-79 -52.5zM813 603q-45 0 -71.5 22.5t-26.5 62.5q0 38 25.5 61t72.5 23q48 0 73 -22.5t25 -61.5t-26.5 -62t-71.5 -23z" />
    <glyph glyph-name="uni01C9" unicode="&#x1c9;" horiz-adv-x="684" 
d="M31 0v70l45 8q18 3 23.5 12t5.5 37v489q0 34 -7 45.5t-33 14.5l-35 6l6 76l213 9l15 -12v-630q0 -24 5 -34t25 -14l44 -8v-69h-307zM416 -230l-49 65q22 20 37.5 41t24.5 45.5t13.5 54t4.5 64.5v325q0 34 -6.5 45.5t-28.5 15.5l-39 6l7 75l211 11l15 -8v-415
q0 -68 -13 -119t-38 -88t-60 -65.5t-79 -52.5zM512 603q-45 0 -71.5 22.5t-26.5 62.5q0 38 25.5 61t72.5 23q48 0 73 -22.5t25 -61.5t-26.5 -62t-71.5 -23z" />
    <glyph glyph-name="uni01CA" unicode="&#x1ca;" horiz-adv-x="1382" 
d="M49 0v71l43 8q18 3 24.5 13t6.5 38v445q0 26 -6.5 35.5t-26.5 12.5l-41 7v71h256l297 -496l2 4v366q0 25 -6.5 34.5t-26.5 12.5l-40 8v71h259v-71l-42 -7q-18 -3 -24.5 -13t-6.5 -38v-572h-173l-306 497l-2 -4v-367q0 -27 6.5 -35t25.5 -12l41 -8v-71h-260zM1038 -14
q-58 0 -105.5 18t-76 50.5t-28.5 75.5q0 34 12 57t33.5 35.5t47.5 12.5q34 0 54.5 -15t20.5 -39q0 -19 -8 -38t-26 -47q12 -10 30 -16t38 -6q30 0 48.5 15t27 43.5t8.5 68.5v369q0 26 -6 36.5t-27 12.5l-63 8v74h339v-71l-46 -8q-17 -3 -23.5 -12.5t-6.5 -37.5v-334
q0 -124 -63.5 -188t-179.5 -64z" />
    <glyph glyph-name="uni01CB" unicode="&#x1cb;" horiz-adv-x="1178" 
d="M49 0v71l43 8q18 3 24.5 13t6.5 38v445q0 26 -6.5 35.5t-26.5 12.5l-41 7v71h256l297 -496l2 4v366q0 25 -6.5 34.5t-26.5 12.5l-40 8v71h259v-71l-42 -7q-18 -3 -24.5 -13t-6.5 -38v-572h-173l-306 497l-2 -4v-367q0 -27 6.5 -35t25.5 -12l41 -8v-71h-260zM910 -230
l-49 65q22 20 37.5 41t24.5 45.5t13.5 54t4.5 64.5v325q0 34 -6.5 45.5t-28.5 15.5l-39 6l7 75l211 11l15 -8v-415q0 -68 -13 -119t-38 -88t-60 -65.5t-79 -52.5zM1006 603q-45 0 -71.5 22.5t-26.5 62.5q0 38 25.5 61t72.5 23q48 0 73 -22.5t25 -61.5t-26.5 -62t-71.5 -23z
" />
    <glyph glyph-name="uni01CC" unicode="&#x1cc;" horiz-adv-x="1021" 
d="M43 0v69l40 8q16 3 21 12t5 36v243q0 33 -6 44.5t-28 14.5l-40 6l8 74l188 13l15 -9l7 -91h4q25 49 70.5 77.5t107.5 28.5q57 0 94 -21.5t55 -60t18 -89.5v-239q0 -21 6 -29.5t25 -11.5l37 -6v-69h-284v68l30 6q17 3 22 11.5t5 30.5v198q0 39 -7 61.5t-23.5 32.5
t-43.5 10q-29 0 -52 -12t-36 -38.5t-13 -67.5v-181q0 -22 4.5 -31.5t20.5 -12.5l35 -7v-68h-285zM753 -230l-49 65q22 20 37.5 41t24.5 45.5t13.5 54t4.5 64.5v325q0 34 -6.5 45.5t-28.5 15.5l-39 6l7 75l211 11l15 -8v-415q0 -68 -13 -119t-38 -88t-60 -65.5t-79 -52.5z
M849 603q-45 0 -71.5 22.5t-26.5 62.5q0 38 25.5 61t72.5 23q48 0 73 -22.5t25 -61.5t-26.5 -62t-71.5 -23z" />
    <glyph glyph-name="uni01CD" unicode="&#x1cd;" horiz-adv-x="755" 
d="M7 0v73l40 8q19 4 29 15t20 39l204 566h161l204 -570q11 -28 19 -38t28 -14l35 -7v-72h-323v73l47 6q18 3 22.5 15t-3.5 36l-27 82h-237l-27 -78q-7 -21 -5 -36t30 -20l44 -7v-71h-261zM253 293h186l-88 278h-4zM378 750q-15 0 -29.5 8t-33.5 30l-123 137l37 44l151 -92
l153 91l33 -43l-126 -139q-17 -19 -30 -27.5t-32 -8.5z" />
    <glyph glyph-name="uni01CE" unicode="&#x1ce;" horiz-adv-x="578" 
d="M190 -14q-72 0 -112.5 37t-40.5 99q0 60 30.5 94t94.5 49.5t165 19.5v68q0 37 -8 60.5t-26 35t-51 11.5q-22 0 -44.5 -6.5t-36.5 -16.5q10 -15 15.5 -27t8.5 -20t3 -14q0 -22 -19.5 -37t-55.5 -15q-34 0 -51 16.5t-17 43.5q0 40 28.5 72t79 51t116.5 19q75 0 122.5 -20.5
t71 -63t23.5 -107.5v-210q0 -23 9 -34t29 -11q10 0 20 2t20 5l13 -56q-20 -18 -53 -31.5t-68 -13.5q-48 0 -76.5 23t-35.5 60q-14 -23 -35 -42t-50 -30t-69 -11zM252 73q23 0 39.5 9.5t26 27t9.5 40.5v70q-45 0 -75 -8.5t-44 -26.5t-14 -46q0 -30 14.5 -48t43.5 -18z
M272 579q-18 0 -29.5 4.5t-21.5 15t-23 26.5l-106 143l41 41l139 -107l140 106l40 -39l-114 -153q-17 -22 -32 -29.5t-34 -7.5z" />
    <glyph glyph-name="uni01CF" unicode="&#x1cf;" horiz-adv-x="417" 
d="M49 0v71l45 8q20 4 25.5 14t5.5 36v446q0 26 -6.5 35.5t-27.5 12.5l-42 7v71h319v-71l-46 -8q-17 -3 -23.5 -13t-6.5 -37v-446q0 -26 6 -34.5t26 -12.5l44 -8v-71h-319zM208 750q-15 0 -29.5 8t-33.5 30l-123 137l37 44l151 -92l153 91l33 -43l-126 -139
q-17 -19 -30 -27.5t-32 -8.5z" />
    <glyph glyph-name="uni01D0" unicode="&#x1d0;" horiz-adv-x="364" 
d="M34 0v70l46 8q18 3 23 12.5t5 36.5v236q0 36 -6 47.5t-29 15.5l-39 6l7 75l211 11l15 -8v-385q0 -25 5.5 -34.5t23.5 -12.5l45 -9v-69h-307zM151 579q-18 0 -29.5 4.5t-21.5 15t-23 26.5l-106 143l41 41l139 -107l140 106l40 -39l-114 -153q-17 -22 -32 -29.5t-34 -7.5z
" />
    <glyph glyph-name="uni01D1" unicode="&#x1d1;" horiz-adv-x="777" 
d="M383 -14q-111 0 -187 45t-115 125t-39 182q0 120 44.5 204t125 128.5t188.5 44.5q101 0 176 -41t116.5 -118.5t41.5 -188.5q0 -81 -23 -150.5t-67.5 -121.5t-110 -80.5t-150.5 -28.5zM396 84q39 0 69.5 14.5t50.5 46t30.5 82.5t10.5 123q0 67 -11.5 117t-33.5 84t-54 51
t-74 17q-40 0 -71 -15t-52.5 -47t-32 -81.5t-10.5 -117.5q0 -67 11.5 -118t34 -86t55.5 -52.5t77 -17.5zM389 750q-15 0 -29.5 8t-33.5 30l-123 137l37 44l151 -92l153 91l33 -43l-126 -139q-17 -19 -30 -27.5t-32 -8.5z" />
    <glyph glyph-name="uni01D2" unicode="&#x1d2;" horiz-adv-x="624" 
d="M306 -14q-85 0 -145.5 30.5t-92 88.5t-31.5 142q0 93 35.5 155t100.5 93t151 31q79 0 138 -28t92.5 -85.5t33.5 -144.5q0 -90 -34 -153t-97 -96t-151 -33zM319 73q36 0 58 19t32 58t10 97q0 52 -7.5 89t-22 60t-35 34t-46.5 11q-32 0 -55.5 -16.5t-35.5 -52t-12 -94.5
q0 -68 12.5 -113.5t38 -68.5t63.5 -23zM312 579q-18 0 -29.5 4.5t-21.5 15t-23 26.5l-106 143l41 41l139 -107l140 106l40 -39l-114 -153q-17 -22 -32 -29.5t-34 -7.5z" />
    <glyph glyph-name="uni01D3" unicode="&#x1d3;" horiz-adv-x="785" 
d="M396 -14q-80 0 -135 20t-87.5 56t-47 86t-14.5 110v316q0 26 -6.5 36t-27.5 13l-41 7v71h315v-71l-44 -8q-18 -3 -24 -13.5t-6 -36.5v-314q0 -55 15 -92t46.5 -55.5t84.5 -18.5q56 0 89 20t48 57.5t15 90.5v314q0 26 -6.5 36t-27.5 13l-40 7v71h248v-71l-42 -8
q-19 -3 -25.5 -13.5t-6.5 -38.5v-299q0 -96 -31.5 -159t-93.5 -94.5t-155 -31.5zM417 750q-15 0 -29.5 8t-33.5 30l-123 137l37 44l151 -92l153 91l33 -43l-126 -139q-17 -19 -30 -27.5t-32 -8.5z" />
    <glyph glyph-name="uni01D4" unicode="&#x1d4;" horiz-adv-x="676" 
d="M255 -14q-80 0 -121.5 44.5t-41.5 126.5v208q0 32 -5 45t-29 17l-37 6l7 74l207 13l16 -9v-315q0 -38 7 -60.5t22.5 -32t41.5 -9.5q31 0 53 13.5t33.5 40.5t11.5 65v153q0 36 -6 46.5t-28 14.5l-34 6l11 74l200 13l16 -9v-378q0 -29 6.5 -40t24.5 -15l40 -7v-71l-205 -8
l-14 87h-4q-19 -27 -41.5 -48t-53.5 -33t-77 -12zM318 579q-18 0 -29.5 4.5t-21.5 15t-23 26.5l-106 143l41 41l139 -107l140 106l40 -39l-114 -153q-17 -22 -32 -29.5t-34 -7.5z" />
    <glyph glyph-name="uni01D5" unicode="&#x1d5;" horiz-adv-x="785" 
d="M396 -14q-80 0 -135 20t-87.5 56t-47 86t-14.5 110v316q0 26 -6.5 36t-27.5 13l-41 7v71h315v-71l-44 -8q-18 -3 -24 -13.5t-6 -36.5v-314q0 -55 15 -92t46.5 -55.5t84.5 -18.5q56 0 89 20t48 57.5t15 90.5v314q0 26 -6.5 36t-27.5 13l-40 7v71h248v-71l-42 -8
q-19 -3 -25.5 -13.5t-6.5 -38.5v-299q0 -96 -31.5 -159t-93.5 -94.5t-155 -31.5zM532 772q-37 0 -61 22t-24 59q0 35 24 57t61 22q43 0 64.5 -21.5t21.5 -57.5q0 -37 -24 -59t-62 -22zM302 772q-38 0 -62 22t-24 59q0 35 24 57t62 22q42 0 64 -21.5t22 -57.5q0 -37 -24 -59
t-62 -22zM252 991v108h326v-108h-326z" />
    <glyph glyph-name="uni01D6" unicode="&#x1d6;" horiz-adv-x="676" 
d="M255 -14q-80 0 -121.5 44.5t-41.5 126.5v208q0 32 -5 45t-29 17l-37 6l7 74l207 13l16 -9v-315q0 -38 7 -60.5t22.5 -32t41.5 -9.5q31 0 53 13.5t33.5 40.5t11.5 65v153q0 36 -6 46.5t-28 14.5l-34 6l11 74l200 13l16 -9v-378q0 -29 6.5 -40t24.5 -15l40 -7v-71l-205 -8
l-14 87h-4q-19 -27 -41.5 -48t-53.5 -33t-77 -12zM437 608q-37 0 -61 21.5t-24 58.5q0 35 24 56.5t61 21.5q42 0 64 -21.5t22 -56.5q0 -36 -24 -58t-62 -22zM209 608q-38 0 -61.5 21.5t-23.5 58.5q0 35 23.5 56.5t61.5 21.5q42 0 63.5 -21.5t21.5 -56.5q0 -36 -24 -58
t-61 -22zM157 833v108h326v-108h-326z" />
    <glyph glyph-name="uni01D7" unicode="&#x1d7;" horiz-adv-x="785" 
d="M396 -14q-80 0 -135 20t-87.5 56t-47 86t-14.5 110v316q0 26 -6.5 36t-27.5 13l-41 7v71h315v-71l-44 -8q-18 -3 -24 -13.5t-6 -36.5v-314q0 -55 15 -92t46.5 -55.5t84.5 -18.5q56 0 89 20t48 57.5t15 90.5v314q0 26 -6.5 36t-27.5 13l-40 7v71h248v-71l-42 -8
q-19 -3 -25.5 -13.5t-6.5 -38.5v-299q0 -96 -31.5 -159t-93.5 -94.5t-155 -31.5zM331 963l-28 43l143 135q15 14 25.5 19.5t21.5 5.5q28 0 44 -21t16 -46q0 -22 -12.5 -38.5t-40.5 -27.5zM532 772q-37 0 -61 22t-24 59q0 35 24 57t61 22q43 0 64.5 -21.5t21.5 -57.5
q0 -37 -24 -59t-62 -22zM302 772q-38 0 -62 22t-24 59q0 35 24 57t62 22q42 0 64 -21.5t22 -57.5q0 -37 -24 -59t-62 -22z" />
    <glyph glyph-name="uni01D8" unicode="&#x1d8;" horiz-adv-x="676" 
d="M255 -14q-80 0 -121.5 44.5t-41.5 126.5v208q0 32 -5 45t-29 17l-37 6l7 74l207 13l16 -9v-315q0 -38 7 -60.5t22.5 -32t41.5 -9.5q31 0 53 13.5t33.5 40.5t11.5 65v153q0 36 -6 46.5t-28 14.5l-34 6l11 74l200 13l16 -9v-378q0 -29 6.5 -40t24.5 -15l40 -7v-71l-205 -8
l-14 87h-4q-19 -27 -41.5 -48t-53.5 -33t-77 -12zM243 805l-28 43l143 135q15 14 25.5 19.5t21.5 5.5q28 0 44 -21t16 -46q0 -22 -12.5 -38.5t-40.5 -27.5zM437 608q-37 0 -61 21.5t-24 58.5q0 35 24 56.5t61 21.5q42 0 64 -21.5t22 -56.5q0 -36 -24 -58t-62 -22zM209 608
q-38 0 -61.5 21.5t-23.5 58.5q0 35 23.5 56.5t61.5 21.5q42 0 63.5 -21.5t21.5 -56.5q0 -36 -24 -58t-61 -22z" />
    <glyph glyph-name="uni01D9" unicode="&#x1d9;" horiz-adv-x="785" 
d="M396 -14q-80 0 -135 20t-87.5 56t-47 86t-14.5 110v316q0 26 -6.5 36t-27.5 13l-41 7v71h315v-71l-44 -8q-18 -3 -24 -13.5t-6 -36.5v-314q0 -55 15 -92t46.5 -55.5t84.5 -18.5q56 0 89 20t48 57.5t15 90.5v314q0 26 -6.5 36t-27.5 13l-40 7v71h248v-71l-42 -8
q-19 -3 -25.5 -13.5t-6.5 -38.5v-299q0 -96 -31.5 -159t-93.5 -94.5t-155 -31.5zM414 964q-15 0 -29.5 8t-33.5 30l-123 137l37 44l151 -92l153 91l33 -43l-126 -139q-17 -19 -30 -27.5t-32 -8.5zM532 772q-37 0 -61 22t-24 59q0 35 24 57t61 22q43 0 64.5 -21.5t21.5 -57.5
q0 -37 -24 -59t-62 -22zM302 772q-38 0 -62 22t-24 59q0 35 24 57t62 22q42 0 64 -21.5t22 -57.5q0 -37 -24 -59t-62 -22z" />
    <glyph glyph-name="uni01DA" unicode="&#x1da;" horiz-adv-x="676" 
d="M255 -14q-80 0 -121.5 44.5t-41.5 126.5v208q0 32 -5 45t-29 17l-37 6l7 74l207 13l16 -9v-315q0 -38 7 -60.5t22.5 -32t41.5 -9.5q31 0 53 13.5t33.5 40.5t11.5 65v153q0 36 -6 46.5t-28 14.5l-34 6l11 74l200 13l16 -9v-378q0 -29 6.5 -40t24.5 -15l40 -7v-71l-205 -8
l-14 87h-4q-19 -27 -41.5 -48t-53.5 -33t-77 -12zM318 811q-15 0 -29.5 8t-33.5 30l-123 137l37 44l151 -92l153 91l33 -43l-126 -139q-17 -19 -30 -27.5t-32 -8.5zM437 608q-37 0 -61 21.5t-24 58.5q0 35 24 56.5t61 21.5q42 0 64 -21.5t22 -56.5q0 -36 -24 -58t-62 -22z
M209 608q-38 0 -61.5 21.5t-23.5 58.5q0 35 23.5 56.5t61.5 21.5q42 0 63.5 -21.5t21.5 -56.5q0 -36 -24 -58t-61 -22z" />
    <glyph glyph-name="uni01DB" unicode="&#x1db;" horiz-adv-x="785" 
d="M396 -14q-80 0 -135 20t-87.5 56t-47 86t-14.5 110v316q0 26 -6.5 36t-27.5 13l-41 7v71h315v-71l-44 -8q-18 -3 -24 -13.5t-6 -36.5v-314q0 -55 15 -92t46.5 -55.5t84.5 -18.5q56 0 89 20t48 57.5t15 90.5v314q0 26 -6.5 36t-27.5 13l-40 7v71h248v-71l-42 -8
q-19 -3 -25.5 -13.5t-6.5 -38.5v-299q0 -96 -31.5 -159t-93.5 -94.5t-155 -31.5zM482 962l-169 70q-27 11 -39.5 27.5t-12.5 38.5q0 25 15.5 46t44.5 21q11 0 21.5 -5.5t25.5 -19.5l142 -135zM532 772q-37 0 -61 22t-24 59q0 35 24 57t61 22q43 0 64.5 -21.5t21.5 -57.5
q0 -37 -24 -59t-62 -22zM302 772q-38 0 -62 22t-24 59q0 35 24 57t62 22q42 0 64 -21.5t22 -57.5q0 -37 -24 -59t-62 -22z" />
    <glyph glyph-name="uni01DC" unicode="&#x1dc;" horiz-adv-x="676" 
d="M255 -14q-80 0 -121.5 44.5t-41.5 126.5v208q0 32 -5 45t-29 17l-37 6l7 74l207 13l16 -9v-315q0 -38 7 -60.5t22.5 -32t41.5 -9.5q31 0 53 13.5t33.5 40.5t11.5 65v153q0 36 -6 46.5t-28 14.5l-34 6l11 74l200 13l16 -9v-378q0 -29 6.5 -40t24.5 -15l40 -7v-71l-205 -8
l-14 87h-4q-19 -27 -41.5 -48t-53.5 -33t-77 -12zM396 811l-169 70q-27 11 -39.5 27.5t-12.5 38.5q0 25 15.5 46t44.5 21q11 0 21.5 -5.5t25.5 -19.5l142 -135zM437 608q-37 0 -61 21.5t-24 58.5q0 35 24 56.5t61 21.5q42 0 64 -21.5t22 -56.5q0 -36 -24 -58t-62 -22z
M209 608q-38 0 -61.5 21.5t-23.5 58.5q0 35 23.5 56.5t61.5 21.5q42 0 63.5 -21.5t21.5 -56.5q0 -36 -24 -58t-61 -22z" />
    <glyph glyph-name="Gcaron" unicode="&#x1e6;" horiz-adv-x="768" 
d="M362 -14q-102 0 -173 45.5t-109 126t-38 185.5q0 84 24.5 152.5t70 117.5t108.5 75.5t141 26.5q55 0 95.5 -14.5t70.5 -40.5l12 56h65l42 -245l-82 -16q-19 59 -45.5 95t-61.5 52.5t-83 16.5q-44 0 -78 -17t-57 -49.5t-35 -80t-12 -108.5q0 -67 14 -117t38.5 -83.5
t58 -50t72.5 -16.5q26 0 48.5 5t41 14t31.5 22v83q0 23 -5.5 35t-27.5 15l-48 7v72h304v-72l-39 -7q-20 -3 -25.5 -14.5t-5.5 -37.5v-221h-87l-24 59q-17 -14 -44.5 -30.5t-66.5 -28.5t-90 -12zM384 750q-15 0 -29.5 8t-33.5 30l-123 137l37 44l151 -92l153 91l33 -43
l-126 -139q-17 -19 -30 -27.5t-32 -8.5z" />
    <glyph glyph-name="gcaron" unicode="&#x1e7;" horiz-adv-x="605" 
d="M264 -230q-64 0 -111 8.5t-77.5 24.5t-45.5 40t-15 56t14.5 53t39.5 35.5t55 25.5v3q-36 11 -53.5 34.5t-17.5 48.5q0 26 14 48t46 49v3q-36 21 -56 55.5t-20 83.5q0 63 32 105t87 63t123 21q19 0 42 -3t47.5 -9t45.5 -17q26 55 55 86t70 31q19 0 35.5 -7t27 -21.5
t10.5 -37.5q0 -27 -17.5 -48t-45.5 -21q-14 0 -25.5 8.5t-20.5 21.5l-11 18q-10 -12 -18 -26.5t-15 -31.5q24 -24 41 -54t17 -74q0 -52 -28.5 -93t-81.5 -65t-128 -24q-26 0 -49 3.5t-41 8.5q-10 -11 -15.5 -20t-5.5 -20q0 -14 8.5 -22.5t24 -11.5t36.5 -3h163
q92 0 136.5 -33t44.5 -96q0 -28 -9 -55.5t-29.5 -52.5t-56.5 -45t-91 -31.5t-131 -11.5zM280 -149q42 0 71.5 10.5t45 28.5t15.5 42t-17 36t-51 12h-146q-15 -13 -23.5 -29t-8.5 -36q0 -33 28 -48.5t86 -15.5zM278 244q38 0 58 25t20 73q0 54 -21 79.5t-60 25.5
q-41 0 -59 -28.5t-18 -74.5q0 -45 21 -72.5t59 -27.5zM279 579q-18 0 -29.5 4.5t-21.5 15t-23 26.5l-106 143l41 41l139 -107l140 106l40 -39l-114 -153q-17 -22 -32 -29.5t-34 -7.5z" />
    <glyph glyph-name="uni01EA" unicode="&#x1ea;" horiz-adv-x="777" 
d="M407 -242q-42 0 -67.5 13.5t-36 34.5t-10.5 43q0 30 14 55t37.5 45.5t50.5 36.5h-6h-6q-111 0 -187 45t-115 125t-39 182q0 120 44.5 204t125 128.5t188.5 44.5q101 0 176 -41t116.5 -118.5t41.5 -188.5q0 -89 -27 -163t-79.5 -126t-129.5 -75q-27 -25 -45 -45.5
t-26.5 -39t-8.5 -37.5q0 -20 9.5 -29t27.5 -9q13 0 28.5 3.5t31.5 10.5l22 -48q-15 -14 -34.5 -25t-43 -18.5t-52.5 -7.5zM396 84q39 0 69.5 14.5t50.5 46t30.5 82.5t10.5 123q0 67 -11.5 117t-33.5 84t-54 51t-74 17q-40 0 -71 -15t-52.5 -47t-32 -81.5t-10.5 -117.5
q0 -67 11.5 -118t34 -86t55.5 -52.5t77 -17.5z" />
    <glyph glyph-name="uni01EB" unicode="&#x1eb;" horiz-adv-x="624" 
d="M318 -242q-43 0 -68 13.5t-35.5 34.5t-10.5 43q0 30 14 54.5t37 45.5t51 37h-15t-13 1q-76 5 -130 36.5t-82.5 88t-28.5 135.5q0 93 35.5 155t100.5 93t151 31q79 0 138 -28t92.5 -85.5t33.5 -144.5q0 -108 -48 -177t-135 -93q-39 -34 -58 -61.5t-19 -55.5q0 -20 10 -29
t28 -9q13 0 28.5 3.5t31.5 10.5l22 -48q-15 -14 -34.5 -25t-43.5 -18.5t-52 -7.5zM319 73q36 0 58 19t32 58t10 97q0 52 -7.5 89t-22 60t-35 34t-46.5 11q-32 0 -55.5 -16.5t-35.5 -52t-12 -94.5q0 -68 12.5 -113.5t38 -68.5t63.5 -23z" />
    <glyph glyph-name="Aringacute" unicode="&#x1fa;" horiz-adv-x="755" 
d="M7 0v73l40 8q19 4 29 15t20 39l193 537q-21 14 -32 36.5t-11 50.5q0 35 17.5 60t49 38t75.5 13q68 0 101.5 -28.5t33.5 -81.5q0 -29 -13 -52.5t-38 -37.5l193 -539q11 -28 19 -38t28 -14l35 -7v-72h-323v73l47 6q18 3 22.5 15t-3.5 36l-27 82h-237l-27 -78q-7 -21 -5 -36
t30 -20l44 -7v-71h-261zM253 293h186l-88 278h-4zM385 702q14 0 23 6.5t13.5 19.5t4.5 32q0 20 -5 32.5t-14.5 18.5t-23.5 6t-23.5 -7t-13.5 -19t-4 -31q0 -20 4.5 -33t14 -19t24.5 -6zM294 890l-28 43l142 136q15 14 25.5 19t21.5 5q29 0 44.5 -21t15.5 -46
q0 -22 -12 -38.5t-40 -27.5z" />
    <glyph glyph-name="aringacute" unicode="&#x1fb;" horiz-adv-x="578" 
d="M190 -14q-72 0 -112.5 37t-40.5 99q0 60 30.5 94t94.5 49.5t165 19.5v68q0 37 -8 60.5t-26 35t-51 11.5q-22 0 -44.5 -6.5t-36.5 -16.5q10 -15 15.5 -27t8.5 -20t3 -14q0 -22 -19.5 -37t-55.5 -15q-34 0 -51 16.5t-17 43.5q0 40 28.5 72t79 51t116.5 19q75 0 122.5 -20.5
t71 -63t23.5 -107.5v-210q0 -23 9 -34t29 -11q10 0 20 2t20 5l13 -56q-20 -18 -53 -31.5t-68 -13.5q-48 0 -76.5 23t-35.5 60q-14 -23 -35 -42t-50 -30t-69 -11zM252 73q23 0 39.5 9.5t26 27t9.5 40.5v70q-45 0 -75 -8.5t-44 -26.5t-14 -46q0 -30 14.5 -48t43.5 -18z
M267 580q-64 0 -99 30.5t-35 80.5q0 35 17.5 59.5t49.5 38t76 13.5q68 0 101.5 -28.5t33.5 -81.5q0 -34 -17.5 -59t-50 -39t-76.5 -14zM272 633q15 0 24 7t13.5 20t4.5 32q0 20 -5 32.5t-14.5 18.5t-23.5 6t-23.5 -7t-13.5 -19.5t-4 -30.5q0 -20 4.5 -33t14 -19.5t23.5 -6.5
zM178 827l-28 43l143 135q15 14 25.5 19.5t21.5 5.5q28 0 44 -21t16 -46q0 -22 -12.5 -38.5t-40.5 -27.5z" />
    <glyph glyph-name="AEacute" unicode="&#x1fc;" horiz-adv-x="1035" 
d="M7 0v73l39 8q12 3 20 7.5t15.5 15t16.5 30.5l234 486l-71 10v71h686l34 -185l-89 -15q-10 35 -21 58t-25 36t-35 18.5t-53 5.5h-96v-234h57q20 0 32 3t18.5 10.5t11 22.5t9.5 38l67 6v-230l-68 -11q-5 34 -10.5 50.5t-19 22.5t-41.5 6h-56v-220h114q33 0 54 6.5t35 20.5
t24 39.5t19 63.5h90l-25 -213h-552v71l43 8q20 4 26 14t6 37v172h-208l-77 -162q-6 -13 -8.5 -24t-1 -18.5t8 -12t18.5 -6.5l49 -8l-1 -71h-269zM326 384h170v235h-64zM572 743l-28 43l143 135q15 14 25.5 19.5t21.5 5.5q28 0 44 -21t16 -46q0 -22 -12.5 -38.5t-40.5 -27.5z
" />
    <glyph glyph-name="aeacute" unicode="&#x1fd;" horiz-adv-x="849" 
d="M190 -14q-43 0 -77.5 15t-55 45.5t-20.5 76.5q0 65 38.5 101t109.5 48q31 6 68 9t74 4v68q0 39 -8.5 62.5t-27 34t-49.5 10.5q-25 0 -46.5 -7t-34.5 -16q10 -16 15.5 -27.5t8.5 -19.5t3 -14q0 -21 -19 -36.5t-56 -15.5q-36 0 -52 17.5t-16 42.5q0 40 28.5 72.5t79.5 51
t116 18.5q50 0 90.5 -13.5t69.5 -46.5q34 30 76 45t90 15q65 0 113.5 -22t76 -65t27.5 -105q0 -25 -3 -50.5t-9 -48.5h-313q2 -42 18.5 -72.5t46 -46t69.5 -15.5q51 0 86.5 16.5t64.5 37.5l47 -55q-36 -46 -95.5 -80t-140.5 -34q-71 0 -122.5 23.5t-80.5 64.5
q-21 -33 -51 -52.5t-65 -27.5t-74 -8zM252 73q17 0 34.5 7.5t29 25t11.5 46.5v68q-20 0 -38.5 -2.5t-31.5 -5.5q-36 -8 -49.5 -28.5t-13.5 -44.5q0 -33 16 -49.5t42 -16.5zM486 313h170q2 12 3 24t1 24q0 43 -19 65.5t-55 22.5t-57 -19.5t-30.5 -50.5t-12.5 -66zM393 575
l-35 36l110 158q12 19 23.5 25.5t25.5 6.5q22 0 35.5 -11.5t20 -27t6.5 -28.5q0 -16 -9 -31.5t-29 -28.5z" />
    <glyph glyph-name="Oslashacute" unicode="&#x1fe;" horiz-adv-x="777" 
d="M29 -14l91 109q-39 46 -58.5 108t-19.5 135q0 120 44.5 204t125 128.5t188.5 44.5q57 0 106 -13.5t88 -40.5l45 54h110l-91 -108q37 -44 56.5 -104.5t19.5 -135.5q0 -81 -23 -150.5t-67.5 -121.5t-110 -80.5t-150.5 -28.5q-59 0 -109 14t-90 40l-45 -54h-110zM396 84
q39 0 69.5 14.5t50.5 46t30.5 82.5t10.5 123q0 33 -4 62.5t-13 53.5l-269 -322q15 -20 34 -33t41.5 -20t49.5 -7zM238 235l269 323q-14 20 -33 33.5t-41.5 20.5t-48.5 7q-40 0 -71 -15t-52.5 -47t-32 -81.5t-10.5 -117.5q0 -36 5 -66.5t15 -56.5zM314 743l-28 43l143 135
q15 14 25.5 19.5t21.5 5.5q28 0 44 -21t16 -46q0 -22 -12.5 -38.5t-40.5 -27.5z" />
    <glyph glyph-name="oslashacute" unicode="&#x1ff;" horiz-adv-x="624" 
d="M23 -19l75 86q-30 32 -45.5 77t-15.5 103q0 93 35.5 155t100.5 93t151 31q39 0 74 -7.5t64 -22.5l32 38h95l-67 -80q31 -31 48.5 -77.5t17.5 -108.5q0 -90 -34 -153t-97 -96t-151 -33q-45 0 -82.5 10t-67.5 28l-38 -43h-95zM319 73q36 0 58 19t32 58t10 97q0 20 -2.5 38
t-7.5 33l-173 -199q10 -15 22 -25.5t27.5 -15.5t33.5 -5zM212 205l171 197q-9 14 -20.5 22.5t-25 12.5t-29.5 4q-32 0 -55.5 -16.5t-35.5 -52t-12 -94.5q0 -20 1.5 -38.5t5.5 -34.5zM265 575l-35 36l110 158q12 19 23.5 25.5t25.5 6.5q22 0 35.5 -11.5t20 -27t6.5 -28.5
q0 -16 -9 -31.5t-29 -28.5z" />
    <glyph glyph-name="uni0200" unicode="&#x200;" horiz-adv-x="755" 
d="M7 0v73l40 8q19 4 29 15t20 39l204 566h161l204 -570q11 -28 19 -38t28 -14l35 -7v-72h-323v73l47 6q18 3 22.5 15t-3.5 36l-27 82h-237l-27 -78q-7 -21 -5 -36t30 -20l44 -7v-71h-261zM253 293h186l-88 278h-4zM484 748l-140 83q-25 16 -36.5 32t-11.5 37t15 41.5
t42 20.5q13 0 25 -7t26 -24l113 -143zM299 748l-154 71q-26 12 -39 28.5t-13 38.5q0 24 15.5 42.5t40.5 18.5q11 0 23 -6t27 -21l128 -129z" />
    <glyph glyph-name="uni0201" unicode="&#x201;" horiz-adv-x="578" 
d="M190 -14q-72 0 -112.5 37t-40.5 99q0 60 30.5 94t94.5 49.5t165 19.5v68q0 37 -8 60.5t-26 35t-51 11.5q-22 0 -44.5 -6.5t-36.5 -16.5q10 -15 15.5 -27t8.5 -20t3 -14q0 -22 -19.5 -37t-55.5 -15q-34 0 -51 16.5t-17 43.5q0 40 28.5 72t79 51t116.5 19q75 0 122.5 -20.5
t71 -63t23.5 -107.5v-210q0 -23 9 -34t29 -11q10 0 20 2t20 5l13 -56q-20 -18 -53 -31.5t-68 -13.5q-48 0 -76.5 23t-35.5 60q-14 -23 -35 -42t-50 -30t-69 -11zM252 73q23 0 39.5 9.5t26 27t9.5 40.5v70q-45 0 -75 -8.5t-44 -26.5t-14 -46q0 -30 14.5 -48t43.5 -18z
M191 575l-141 98q-19 13 -28 30.5t-9 34.5q0 15 6 28.5t19 23t31 9.5q14 0 25.5 -7t24.5 -25l108 -156zM369 575l-134 104q-19 14 -27.5 30t-8.5 31q0 14 6 27.5t19 23t31 9.5q15 0 26.5 -6.5t22.5 -25.5l100 -157z" />
    <glyph glyph-name="uni0202" unicode="&#x202;" horiz-adv-x="755" 
d="M7 0v73l40 8q19 4 29 15t20 39l204 566h161l204 -570q11 -28 19 -38t28 -14l35 -7v-72h-323v73l47 6q18 3 22.5 15t-3.5 36l-27 82h-237l-27 -78q-7 -21 -5 -36t30 -20l44 -7v-71h-261zM253 293h186l-88 278h-4zM380 954q57 0 94.5 -24.5t58 -68.5t25.5 -102l-59 -12
q-14 53 -43.5 75.5t-78.5 22.5q-48 0 -78 -24t-42 -71l-58 12q5 55 26 98t60 68.5t95 25.5z" />
    <glyph glyph-name="uni0203" unicode="&#x203;" horiz-adv-x="578" 
d="M190 -14q-72 0 -112.5 37t-40.5 99q0 60 30.5 94t94.5 49.5t165 19.5v68q0 37 -8 60.5t-26 35t-51 11.5q-22 0 -44.5 -6.5t-36.5 -16.5q10 -15 15.5 -27t8.5 -20t3 -14q0 -22 -19.5 -37t-55.5 -15q-34 0 -51 16.5t-17 43.5q0 40 28.5 72t79 51t116.5 19q75 0 122.5 -20.5
t71 -63t23.5 -107.5v-210q0 -23 9 -34t29 -11q10 0 20 2t20 5l13 -56q-20 -18 -53 -31.5t-68 -13.5q-48 0 -76.5 23t-35.5 60q-14 -23 -35 -42t-50 -30t-69 -11zM252 73q23 0 39.5 9.5t26 27t9.5 40.5v70q-45 0 -75 -8.5t-44 -26.5t-14 -46q0 -30 14.5 -48t43.5 -18z
M275 787q54 0 90 -23.5t56.5 -68t26.5 -106.5l-55 -11q-12 37 -30 59.5t-40.5 32.5t-51.5 10q-49 0 -76 -25.5t-41 -76.5l-57 11q7 57 28.5 102t59 70.5t90.5 25.5z" />
    <glyph glyph-name="uni0204" unicode="&#x204;" 
d="M49 0v71l43 8q19 3 25 12.5t6 38.5v446q0 26 -6.5 35t-26.5 12l-41 7v71h526l35 -185l-89 -15q-11 35 -21.5 58t-25 36t-35.5 18.5t-53 5.5h-96v-222h57q25 0 37.5 5t19.5 21t14 48l67 6v-233l-67 -10q-5 33 -11.5 50t-20.5 22.5t-40 5.5h-56v-229h114q33 0 54.5 6.5
t35.5 20.5t23.5 39.5t19.5 63.5h90l-26 -213h-552zM440 748l-140 83q-25 16 -36.5 32t-11.5 37t15 41.5t42 20.5q13 0 25 -7t26 -24l113 -143zM255 748l-154 71q-26 12 -39 28.5t-13 38.5q0 24 15.5 42.5t40.5 18.5q11 0 23 -6t27 -21l128 -129z" />
    <glyph glyph-name="uni0205" unicode="&#x205;" horiz-adv-x="565" 
d="M298 -14q-84 0 -142.5 32t-88.5 90.5t-30 135.5q0 90 35 153t97 96t142 33q66 0 114.5 -22.5t75 -65.5t26.5 -104q0 -24 -2.5 -49.5t-8.5 -48.5h-314q3 -44 20 -74.5t46.5 -45.5t68.5 -15q45 0 81 14t69 40l48 -55q-39 -51 -100 -82.5t-137 -31.5zM202 313h170
q2 12 2.5 24t0.5 24q0 43 -18.5 65.5t-54.5 22.5q-31 0 -52.5 -16.5t-33 -47t-14.5 -72.5zM219 575l-141 98q-19 13 -28 30.5t-9 34.5q0 15 6 28.5t19 23t31 9.5q14 0 25.5 -7t24.5 -25l108 -156zM397 575l-134 104q-19 14 -27.5 30t-8.5 31q0 14 6 27.5t19 23t31 9.5
q15 0 26.5 -6.5t22.5 -25.5l100 -157z" />
    <glyph glyph-name="uni0206" unicode="&#x206;" 
d="M49 0v71l43 8q19 3 25 12.5t6 38.5v446q0 26 -6.5 35t-26.5 12l-41 7v71h526l35 -185l-89 -15q-11 35 -21.5 58t-25 36t-35.5 18.5t-53 5.5h-96v-222h57q25 0 37.5 5t19.5 21t14 48l67 6v-233l-67 -10q-5 33 -11.5 50t-20.5 22.5t-40 5.5h-56v-229h114q33 0 54.5 6.5
t35.5 20.5t23.5 39.5t19.5 63.5h90l-26 -213h-552zM336 954q57 0 94.5 -24.5t58 -68.5t25.5 -102l-59 -12q-14 53 -43.5 75.5t-78.5 22.5q-48 0 -78 -24t-42 -71l-58 12q5 55 26 98t60 68.5t95 25.5z" />
    <glyph glyph-name="uni0207" unicode="&#x207;" horiz-adv-x="565" 
d="M298 -14q-84 0 -142.5 32t-88.5 90.5t-30 135.5q0 90 35 153t97 96t142 33q66 0 114.5 -22.5t75 -65.5t26.5 -104q0 -24 -2.5 -49.5t-8.5 -48.5h-314q3 -44 20 -74.5t46.5 -45.5t68.5 -15q45 0 81 14t69 40l48 -55q-39 -51 -100 -82.5t-137 -31.5zM202 313h170
q2 12 2.5 24t0.5 24q0 43 -18.5 65.5t-54.5 22.5q-31 0 -52.5 -16.5t-33 -47t-14.5 -72.5zM303 787q54 0 90 -23.5t56.5 -68t26.5 -106.5l-55 -11q-12 37 -30 59.5t-40.5 32.5t-51.5 10q-49 0 -76 -25.5t-41 -76.5l-57 11q7 57 28.5 102t59 70.5t90.5 25.5z" />
    <glyph glyph-name="uni0208" unicode="&#x208;" horiz-adv-x="417" 
d="M49 0v71l45 8q20 4 25.5 14t5.5 36v446q0 26 -6.5 35.5t-27.5 12.5l-42 7v71h319v-71l-46 -8q-17 -3 -23.5 -13t-6.5 -37v-446q0 -26 6 -34.5t26 -12.5l44 -8v-71h-319zM314 748l-140 83q-25 16 -36.5 32t-11.5 37t15 41.5t42 20.5q13 0 25 -7t26 -24l113 -143zM129 748
l-154 71q-26 12 -39 28.5t-13 38.5q0 24 15.5 42.5t40.5 18.5q11 0 23 -6t27 -21l128 -129z" />
    <glyph glyph-name="uni0209" unicode="&#x209;" horiz-adv-x="364" 
d="M34 0v70l46 8q18 3 23 12.5t5 36.5v236q0 36 -6 47.5t-29 15.5l-39 6l7 75l211 11l15 -8v-385q0 -25 5.5 -34.5t23.5 -12.5l45 -9v-69h-307zM70 575l-141 98q-19 13 -28 30.5t-9 34.5q0 15 6 28.5t19 23t31 9.5q14 0 25.5 -7t24.5 -25l108 -156zM248 575l-134 104
q-19 14 -27.5 30t-8.5 31q0 14 6 27.5t19 23t31 9.5q15 0 26.5 -6.5t22.5 -25.5l100 -157z" />
    <glyph glyph-name="uni020A" unicode="&#x20a;" horiz-adv-x="417" 
d="M49 0v71l45 8q20 4 25.5 14t5.5 36v446q0 26 -6.5 35.5t-27.5 12.5l-42 7v71h319v-71l-46 -8q-17 -3 -23.5 -13t-6.5 -37v-446q0 -26 6 -34.5t26 -12.5l44 -8v-71h-319zM210 954q57 0 94.5 -24.5t58 -68.5t25.5 -102l-59 -12q-14 53 -43.5 75.5t-78.5 22.5q-48 0 -78 -24
t-42 -71l-58 12q5 55 26 98t60 68.5t95 25.5z" />
    <glyph glyph-name="uni020B" unicode="&#x20b;" horiz-adv-x="364" 
d="M34 0v70l46 8q18 3 23 12.5t5 36.5v236q0 36 -6 47.5t-29 15.5l-39 6l7 75l211 11l15 -8v-385q0 -25 5.5 -34.5t23.5 -12.5l45 -9v-69h-307zM154 787q54 0 90 -23.5t56.5 -68t26.5 -106.5l-55 -11q-12 37 -30 59.5t-40.5 32.5t-51.5 10q-49 0 -76 -25.5t-41 -76.5l-57 11
q7 57 28.5 102t59 70.5t90.5 25.5z" />
    <glyph glyph-name="uni020C" unicode="&#x20c;" horiz-adv-x="777" 
d="M383 -14q-111 0 -187 45t-115 125t-39 182q0 120 44.5 204t125 128.5t188.5 44.5q101 0 176 -41t116.5 -118.5t41.5 -188.5q0 -81 -23 -150.5t-67.5 -121.5t-110 -80.5t-150.5 -28.5zM396 84q39 0 69.5 14.5t50.5 46t30.5 82.5t10.5 123q0 67 -11.5 117t-33.5 84t-54 51
t-74 17q-40 0 -71 -15t-52.5 -47t-32 -81.5t-10.5 -117.5q0 -67 11.5 -118t34 -86t55.5 -52.5t77 -17.5zM495 748l-140 83q-25 16 -36.5 32t-11.5 37t15 41.5t42 20.5q13 0 25 -7t26 -24l113 -143zM310 748l-154 71q-26 12 -39 28.5t-13 38.5q0 24 15.5 42.5t40.5 18.5
q11 0 23 -6t27 -21l128 -129z" />
    <glyph glyph-name="uni020D" unicode="&#x20d;" horiz-adv-x="624" 
d="M306 -14q-85 0 -145.5 30.5t-92 88.5t-31.5 142q0 93 35.5 155t100.5 93t151 31q79 0 138 -28t92.5 -85.5t33.5 -144.5q0 -90 -34 -153t-97 -96t-151 -33zM319 73q36 0 58 19t32 58t10 97q0 52 -7.5 89t-22 60t-35 34t-46.5 11q-32 0 -55.5 -16.5t-35.5 -52t-12 -94.5
q0 -68 12.5 -113.5t38 -68.5t63.5 -23zM232 575l-141 98q-19 13 -28 30.5t-9 34.5q0 15 6 28.5t19 23t31 9.5q14 0 25.5 -7t24.5 -25l108 -156zM410 575l-134 104q-19 14 -27.5 30t-8.5 31q0 14 6 27.5t19 23t31 9.5q15 0 26.5 -6.5t22.5 -25.5l100 -157z" />
    <glyph glyph-name="uni020E" unicode="&#x20e;" horiz-adv-x="777" 
d="M383 -14q-111 0 -187 45t-115 125t-39 182q0 120 44.5 204t125 128.5t188.5 44.5q101 0 176 -41t116.5 -118.5t41.5 -188.5q0 -81 -23 -150.5t-67.5 -121.5t-110 -80.5t-150.5 -28.5zM396 84q39 0 69.5 14.5t50.5 46t30.5 82.5t10.5 123q0 67 -11.5 117t-33.5 84t-54 51
t-74 17q-40 0 -71 -15t-52.5 -47t-32 -81.5t-10.5 -117.5q0 -67 11.5 -118t34 -86t55.5 -52.5t77 -17.5zM391 954q57 0 94.5 -24.5t58 -68.5t25.5 -102l-59 -12q-14 53 -43.5 75.5t-78.5 22.5q-48 0 -78 -24t-42 -71l-58 12q5 55 26 98t60 68.5t95 25.5z" />
    <glyph glyph-name="uni020F" unicode="&#x20f;" horiz-adv-x="624" 
d="M306 -14q-85 0 -145.5 30.5t-92 88.5t-31.5 142q0 93 35.5 155t100.5 93t151 31q79 0 138 -28t92.5 -85.5t33.5 -144.5q0 -90 -34 -153t-97 -96t-151 -33zM319 73q36 0 58 19t32 58t10 97q0 52 -7.5 89t-22 60t-35 34t-46.5 11q-32 0 -55.5 -16.5t-35.5 -52t-12 -94.5
q0 -68 12.5 -113.5t38 -68.5t63.5 -23zM316 787q54 0 90 -23.5t56.5 -68t26.5 -106.5l-55 -11q-12 37 -30 59.5t-40.5 32.5t-51.5 10q-49 0 -76 -25.5t-41 -76.5l-57 11q7 57 28.5 102t59 70.5t90.5 25.5z" />
    <glyph glyph-name="uni0210" unicode="&#x210;" horiz-adv-x="744" 
d="M601 -14q-46 0 -77 15t-52 44t-35 71l-37 119q-9 23 -17.5 40.5t-22.5 27.5t-37 10q-9 0 -17 -0.5t-15 -1.5v-181q0 -23 6 -35t30 -17l47 -7v-71h-325v71l43 8q19 3 25 12.5t6 38.5v446q0 24 -6 34t-27 13l-41 7v71h304q61 0 112.5 -9.5t89 -30.5t58 -54.5t20.5 -82.5
q0 -36 -14 -63.5t-36.5 -48t-49.5 -34.5t-53 -22.5t-46 -11.5v-4q56 -9 88 -30.5t48 -67.5l26 -67q13 -31 22.5 -51.5t22.5 -30.5t34 -10q10 0 20 2t23 5l14 -60q-22 -19 -55 -31.5t-76 -12.5zM331 384q41 0 68.5 14.5t42 43t14.5 67.5q0 40 -15.5 64t-43 35t-64.5 11h-41
v-234q12 -1 22 -1h17zM439 748l-140 83q-25 16 -36.5 32t-11.5 37t15 41.5t42 20.5q13 0 25 -7t26 -24l113 -143zM254 748l-154 71q-26 12 -39 28.5t-13 38.5q0 24 15.5 42.5t40.5 18.5q11 0 23 -6t27 -21l128 -129z" />
    <glyph glyph-name="uni0211" unicode="&#x211;" horiz-adv-x="541" 
d="M43 0v70l41 7q16 3 20.5 13t4.5 36v239q0 33 -5 45.5t-28 16.5l-41 6l8 74l185 13l16 -9l9 -92h4q24 50 65.5 78.5t92.5 28.5q54 0 85.5 -29.5t31.5 -79.5q0 -33 -9.5 -55t-29 -34t-47.5 -12q-37 0 -55 15.5t-18 37.5q0 8 1.5 15.5t5.5 18t10 25.5q-21 8 -42.5 1.5
t-39.5 -24.5t-29 -45t-11 -60v-176q0 -24 5.5 -33.5t22.5 -11.5l73 -10v-69h-326zM213 575l-141 98q-19 13 -28 30.5t-9 34.5q0 15 6 28.5t19 23t31 9.5q14 0 25.5 -7t24.5 -25l108 -156zM391 575l-134 104q-19 14 -27.5 30t-8.5 31q0 14 6 27.5t19 23t31 9.5
q15 0 26.5 -6.5t22.5 -25.5l100 -157z" />
    <glyph glyph-name="uni0212" unicode="&#x212;" horiz-adv-x="744" 
d="M601 -14q-46 0 -77 15t-52 44t-35 71l-37 119q-9 23 -17.5 40.5t-22.5 27.5t-37 10q-9 0 -17 -0.5t-15 -1.5v-181q0 -23 6 -35t30 -17l47 -7v-71h-325v71l43 8q19 3 25 12.5t6 38.5v446q0 24 -6 34t-27 13l-41 7v71h304q61 0 112.5 -9.5t89 -30.5t58 -54.5t20.5 -82.5
q0 -36 -14 -63.5t-36.5 -48t-49.5 -34.5t-53 -22.5t-46 -11.5v-4q56 -9 88 -30.5t48 -67.5l26 -67q13 -31 22.5 -51.5t22.5 -30.5t34 -10q10 0 20 2t23 5l14 -60q-22 -19 -55 -31.5t-76 -12.5zM331 384q41 0 68.5 14.5t42 43t14.5 67.5q0 40 -15.5 64t-43 35t-64.5 11h-41
v-234q12 -1 22 -1h17zM335 954q57 0 94.5 -24.5t58 -68.5t25.5 -102l-59 -12q-14 53 -43.5 75.5t-78.5 22.5q-48 0 -78 -24t-42 -71l-58 12q5 55 26 98t60 68.5t95 25.5z" />
    <glyph glyph-name="uni0213" unicode="&#x213;" horiz-adv-x="541" 
d="M43 0v70l41 7q16 3 20.5 13t4.5 36v239q0 33 -5 45.5t-28 16.5l-41 6l8 74l185 13l16 -9l9 -92h4q24 50 65.5 78.5t92.5 28.5q54 0 85.5 -29.5t31.5 -79.5q0 -33 -9.5 -55t-29 -34t-47.5 -12q-37 0 -55 15.5t-18 37.5q0 8 1.5 15.5t5.5 18t10 25.5q-21 8 -42.5 1.5
t-39.5 -24.5t-29 -45t-11 -60v-176q0 -24 5.5 -33.5t22.5 -11.5l73 -10v-69h-326zM297 787q54 0 90 -23.5t56.5 -68t26.5 -106.5l-55 -11q-12 37 -30 59.5t-40.5 32.5t-51.5 10q-49 0 -76 -25.5t-41 -76.5l-57 11q7 57 28.5 102t59 70.5t90.5 25.5z" />
    <glyph glyph-name="uni0214" unicode="&#x214;" horiz-adv-x="785" 
d="M396 -14q-80 0 -135 20t-87.5 56t-47 86t-14.5 110v316q0 26 -6.5 36t-27.5 13l-41 7v71h315v-71l-44 -8q-18 -3 -24 -13.5t-6 -36.5v-314q0 -55 15 -92t46.5 -55.5t84.5 -18.5q56 0 89 20t48 57.5t15 90.5v314q0 26 -6.5 36t-27.5 13l-40 7v71h248v-71l-42 -8
q-19 -3 -25.5 -13.5t-6.5 -38.5v-299q0 -96 -31.5 -159t-93.5 -94.5t-155 -31.5zM523 748l-140 83q-25 16 -36.5 32t-11.5 37t15 41.5t42 20.5q13 0 25 -7t26 -24l113 -143zM338 748l-154 71q-26 12 -39 28.5t-13 38.5q0 24 15.5 42.5t40.5 18.5q11 0 23 -6t27 -21l128 -129
z" />
    <glyph glyph-name="uni0215" unicode="&#x215;" horiz-adv-x="676" 
d="M255 -14q-80 0 -121.5 44.5t-41.5 126.5v208q0 32 -5 45t-29 17l-37 6l7 74l207 13l16 -9v-315q0 -38 7 -60.5t22.5 -32t41.5 -9.5q31 0 53 13.5t33.5 40.5t11.5 65v153q0 36 -6 46.5t-28 14.5l-34 6l11 74l200 13l16 -9v-378q0 -29 6.5 -40t24.5 -15l40 -7v-71l-205 -8
l-14 87h-4q-19 -27 -41.5 -48t-53.5 -33t-77 -12zM238 575l-141 98q-19 13 -28 30.5t-9 34.5q0 15 6 28.5t19 23t31 9.5q14 0 25.5 -7t24.5 -25l108 -156zM416 575l-134 104q-19 14 -27.5 30t-8.5 31q0 14 6 27.5t19 23t31 9.5q15 0 26.5 -6.5t22.5 -25.5l100 -157z" />
    <glyph glyph-name="uni0216" unicode="&#x216;" horiz-adv-x="785" 
d="M396 -14q-80 0 -135 20t-87.5 56t-47 86t-14.5 110v316q0 26 -6.5 36t-27.5 13l-41 7v71h315v-71l-44 -8q-18 -3 -24 -13.5t-6 -36.5v-314q0 -55 15 -92t46.5 -55.5t84.5 -18.5q56 0 89 20t48 57.5t15 90.5v314q0 26 -6.5 36t-27.5 13l-40 7v71h248v-71l-42 -8
q-19 -3 -25.5 -13.5t-6.5 -38.5v-299q0 -96 -31.5 -159t-93.5 -94.5t-155 -31.5zM419 954q57 0 94.5 -24.5t58 -68.5t25.5 -102l-59 -12q-14 53 -43.5 75.5t-78.5 22.5q-48 0 -78 -24t-42 -71l-58 12q5 55 26 98t60 68.5t95 25.5z" />
    <glyph glyph-name="uni0217" unicode="&#x217;" horiz-adv-x="676" 
d="M255 -14q-80 0 -121.5 44.5t-41.5 126.5v208q0 32 -5 45t-29 17l-37 6l7 74l207 13l16 -9v-315q0 -38 7 -60.5t22.5 -32t41.5 -9.5q31 0 53 13.5t33.5 40.5t11.5 65v153q0 36 -6 46.5t-28 14.5l-34 6l11 74l200 13l16 -9v-378q0 -29 6.5 -40t24.5 -15l40 -7v-71l-205 -8
l-14 87h-4q-19 -27 -41.5 -48t-53.5 -33t-77 -12zM322 787q54 0 90 -23.5t56.5 -68t26.5 -106.5l-55 -11q-12 37 -30 59.5t-40.5 32.5t-51.5 10q-49 0 -76 -25.5t-41 -76.5l-57 11q7 57 28.5 102t59 70.5t90.5 25.5z" />
    <glyph glyph-name="uni0218" unicode="&#x218;" horiz-adv-x="613" 
d="M325 -14q-54 0 -102.5 17.5t-81.5 44.5l-14 -54h-68l-16 219l77 12q12 -34 30 -61t41.5 -46t52 -29t60.5 -10q36 0 59.5 10t35 29t11.5 44q0 30 -14.5 50.5t-47 36.5t-83.5 32q-45 14 -83 31.5t-65.5 42t-43 60.5t-15.5 86q0 28 8.5 57.5t26 57.5t46 50.5t68 35.5
t92.5 13q49 0 86 -13t68 -37l13 50h63l22 -215l-77 -15q-18 54 -44.5 84.5t-57.5 43.5t-64 13q-42 0 -69 -21.5t-27 -60.5q0 -29 15.5 -48.5t47 -34t77.5 -29.5q49 -15 89.5 -33.5t70 -43.5t45 -60t15.5 -85q0 -54 -20.5 -95.5t-55.5 -70.5t-79 -43.5t-92 -14.5zM276 -310
l-36 42q21 17 32.5 31t16.5 27.5t6 28.5h-10q-27 0 -39.5 16t-12.5 38q0 26 11 41t29 22.5t40 7.5q24 0 42.5 -9.5t29 -28.5t10.5 -48q0 -26 -11 -56t-37 -58.5t-71 -53.5z" />
    <glyph glyph-name="uni0219" unicode="&#x219;" horiz-adv-x="498" 
d="M56 -14l-14 178l80 5q15 -35 35.5 -58t46.5 -34.5t57 -11.5q39 0 59 16.5t20 46.5q0 18 -11 29.5t-35.5 21.5t-66.5 19q-35 9 -67.5 21t-57.5 30t-39.5 45.5t-14.5 67.5q0 53 24.5 89.5t68.5 55.5t102 19q39 0 71.5 -9.5t52.5 -23.5l8 33h66l11 -169l-79 5
q-16 47 -49 70.5t-73 23.5q-35 0 -54.5 -14t-19.5 -41q0 -18 10.5 -30t34.5 -21t64 -20q42 -11 76 -23.5t58 -30.5t37 -44.5t13 -65.5q0 -56 -25 -96.5t-70 -62t-106 -21.5q-45 0 -79.5 10t-58.5 25l-11 -35h-64zM217 -310l-36 42q21 17 32.5 31t16.5 27.5t6 28.5h-10
q-27 0 -39.5 16t-12.5 38q0 26 11 41t29 22.5t40 7.5q24 0 42.5 -9.5t29 -28.5t10.5 -48q0 -26 -11 -56t-37 -58.5t-71 -53.5z" />
    <glyph glyph-name="uni021A" unicode="&#x21a;" horiz-adv-x="746" 
d="M187 0v71l70 10q20 2 26.5 15t6.5 36v486h-36q-30 0 -50.5 -6.5t-35.5 -22.5t-27 -45t-24 -75l-93 19l33 213h633l32 -214l-93 -18q-12 46 -24 75.5t-27 45.5t-35 22t-48 6h-38v-488q0 -22 5.5 -34t28.5 -15l69 -10v-71h-373zM332 -310l-36 42q21 17 32.5 31t16.5 27.5
t6 28.5h-10q-27 0 -39.5 16t-12.5 38q0 26 11 41t29 22.5t40 7.5q24 0 42.5 -9.5t29 -28.5t10.5 -48q0 -26 -11 -56t-37 -58.5t-71 -53.5z" />
    <glyph glyph-name="uni021B" unicode="&#x21b;" horiz-adv-x="438" 
d="M256 -14q-51 0 -86.5 17t-53.5 52t-18 86v284h-72v74q44 6 70 26t39 57.5t18 94.5l87 11l17 -8v-168h142v-87h-142v-257q0 -36 13 -55.5t46 -19.5q22 0 42.5 7t40.5 20l34 -61q-32 -32 -76 -52.5t-101 -20.5zM216 -310l-36 42q21 17 32.5 31t16.5 27.5t6 28.5h-10
q-27 0 -39.5 16t-12.5 38q0 26 11 41t29 22.5t40 7.5q24 0 42.5 -9.5t29 -28.5t10.5 -48q0 -26 -11 -56t-37 -58.5t-71 -53.5z" />
    <glyph glyph-name="uni022A" unicode="&#x22a;" horiz-adv-x="777" 
d="M383 -14q-111 0 -187 45t-115 125t-39 182q0 120 44.5 204t125 128.5t188.5 44.5q101 0 176 -41t116.5 -118.5t41.5 -188.5q0 -81 -23 -150.5t-67.5 -121.5t-110 -80.5t-150.5 -28.5zM396 84q39 0 69.5 14.5t50.5 46t30.5 82.5t10.5 123q0 67 -11.5 117t-33.5 84t-54 51
t-74 17q-40 0 -71 -15t-52.5 -47t-32 -81.5t-10.5 -117.5q0 -67 11.5 -118t34 -86t55.5 -52.5t77 -17.5zM504 772q-37 0 -61 22t-24 59q0 35 24 57t61 22q43 0 64.5 -21.5t21.5 -57.5q0 -37 -24 -59t-62 -22zM274 772q-38 0 -62 22t-24 59q0 35 24 57t62 22q42 0 64 -21.5
t22 -57.5q0 -37 -24 -59t-62 -22zM224 990v108h326v-108h-326z" />
    <glyph glyph-name="uni022B" unicode="&#x22b;" horiz-adv-x="624" 
d="M306 -14q-85 0 -145.5 30.5t-92 88.5t-31.5 142q0 93 35.5 155t100.5 93t151 31q79 0 138 -28t92.5 -85.5t33.5 -144.5q0 -90 -34 -153t-97 -96t-151 -33zM319 73q36 0 58 19t32 58t10 97q0 52 -7.5 89t-22 60t-35 34t-46.5 11q-32 0 -55.5 -16.5t-35.5 -52t-12 -94.5
q0 -68 12.5 -113.5t38 -68.5t63.5 -23zM425 608q-37 0 -60.5 21.5t-23.5 58.5q0 35 23.5 56.5t60.5 21.5q43 0 64.5 -21.5t21.5 -56.5q0 -36 -24 -58t-62 -22zM197 608q-37 0 -61 21.5t-24 58.5q0 35 24 56.5t61 21.5q42 0 64 -21.5t22 -56.5q0 -36 -24 -58t-62 -22z
M149 820v108h326v-108h-326z" />
    <glyph glyph-name="uni022C" unicode="&#x22c;" horiz-adv-x="777" 
d="M383 -14q-111 0 -187 45t-115 125t-39 182q0 120 44.5 204t125 128.5t188.5 44.5q101 0 176 -41t116.5 -118.5t41.5 -188.5q0 -81 -23 -150.5t-67.5 -121.5t-110 -80.5t-150.5 -28.5zM396 84q39 0 69.5 14.5t50.5 46t30.5 82.5t10.5 123q0 67 -11.5 117t-33.5 84t-54 51
t-74 17q-40 0 -71 -15t-52.5 -47t-32 -81.5t-10.5 -117.5q0 -67 11.5 -118t34 -86t55.5 -52.5t77 -17.5zM468 768q-24 0 -46 6t-48 17q-17 8 -31.5 13.5t-26 8.5t-20.5 3q-12 0 -22.5 -8t-22.5 -31l-50 29q19 46 35.5 72t35.5 37t45 11q22 0 43 -7t48 -19q26 -11 43.5 -17
t33.5 -6q14 0 23.5 8t21.5 31l50 -28q-18 -45 -34.5 -71t-35 -37.5t-42.5 -11.5zM224 988v108h326v-108h-326z" />
    <glyph glyph-name="uni022D" unicode="&#x22d;" horiz-adv-x="624" 
d="M306 -14q-85 0 -145.5 30.5t-92 88.5t-31.5 142q0 93 35.5 155t100.5 93t151 31q79 0 138 -28t92.5 -85.5t33.5 -144.5q0 -90 -34 -153t-97 -96t-151 -33zM319 73q36 0 58 19t32 58t10 97q0 52 -7.5 89t-22 60t-35 34t-46.5 11q-32 0 -55.5 -16.5t-35.5 -52t-12 -94.5
q0 -68 12.5 -113.5t38 -68.5t63.5 -23zM148 831v108h326v-108h-326zM389 607q-23 0 -44.5 6t-47.5 17q-19 9 -33 14.5t-24.5 8t-19.5 2.5q-12 0 -22.5 -8t-22.5 -31l-50 29q19 46 35.5 71.5t35.5 36t45 10.5q23 0 43.5 -6.5t45.5 -17.5q24 -11 42 -17.5t34 -6.5q14 0 24 8.5
t21 30.5l50 -28q-18 -44 -34 -70t-34.5 -37.5t-43.5 -11.5z" />
    <glyph glyph-name="uni0230" unicode="&#x230;" horiz-adv-x="777" 
d="M383 -14q-111 0 -187 45t-115 125t-39 182q0 120 44.5 204t125 128.5t188.5 44.5q101 0 176 -41t116.5 -118.5t41.5 -188.5q0 -81 -23 -150.5t-67.5 -121.5t-110 -80.5t-150.5 -28.5zM396 84q39 0 69.5 14.5t50.5 46t30.5 82.5t10.5 123q0 67 -11.5 117t-33.5 84t-54 51
t-74 17q-40 0 -71 -15t-52.5 -47t-32 -81.5t-10.5 -117.5q0 -67 11.5 -118t34 -86t55.5 -52.5t77 -17.5zM390 767q-46 0 -72 22.5t-26 61.5t25.5 61.5t72.5 22.5t72 -22t25 -62q0 -39 -26.5 -61.5t-70.5 -22.5zM225 990v108h326v-108h-326z" />
    <glyph glyph-name="uni0231" unicode="&#x231;" horiz-adv-x="624" 
d="M306 -14q-85 0 -145.5 30.5t-92 88.5t-31.5 142q0 93 35.5 155t100.5 93t151 31q79 0 138 -28t92.5 -85.5t33.5 -144.5q0 -90 -34 -153t-97 -96t-151 -33zM319 73q36 0 58 19t32 58t10 97q0 52 -7.5 89t-22 60t-35 34t-46.5 11q-32 0 -55.5 -16.5t-35.5 -52t-12 -94.5
q0 -68 12.5 -113.5t38 -68.5t63.5 -23zM313 604q-46 0 -72 22.5t-26 62.5q0 38 25.5 61t72.5 23t72 -22.5t25 -61.5t-26.5 -62t-70.5 -23zM147 820v108h326v-108h-326z" />
    <glyph glyph-name="uni0232" unicode="&#x232;" horiz-adv-x="745" 
d="M200 0v71l59 8q19 2 25 12t6 39v137l-180 302q-13 22 -24.5 35t-35.5 17l-40 7v73h334v-72l-50 -7q-19 -2 -23 -14.5t10 -35.5l123 -202h5l115 196q14 24 10.5 37t-28.5 18l-47 9v71h276v-72l-50 -9q-17 -3 -28.5 -14.5t-28.5 -40.5l-174 -296v-143q0 -25 6 -35t26 -12
l59 -8v-71h-345zM234 790v108h326v-108h-326z" />
    <glyph glyph-name="uni0233" unicode="&#x233;" horiz-adv-x="611" 
d="M138 -230q-57 0 -92.5 26t-35.5 71q0 33 20.5 56t54.5 23q31 0 46 -13t16 -32q0 -9 -3.5 -24.5t-8.5 -36.5q25 -3 44 8t34.5 36.5t32.5 65.5l17 39l-175 392q-11 24 -18 34t-25 15l-33 7l10 75h286v-72l-38 -5q-20 -3 -25 -14.5t6 -39.5l93 -228h5l89 222q10 24 6 38.5
t-27 18.5l-38 8l12 72h217v-73l-35 -7q-17 -4 -25.5 -14t-22.5 -42l-169 -403q-22 -52 -43.5 -90t-46 -63t-55.5 -37.5t-73 -12.5zM167 625v107h318v-107h-318z" />
    <glyph glyph-name="uni0237" unicode="&#x237;" horiz-adv-x="333" 
d="M69 -230l-49 65q23 21 38.5 42.5t24.5 46t13 53.5t4 63v325q0 33 -6 45t-29 16l-39 6l7 75l211 11l15 -8v-415q0 -68 -13 -119t-38 -88t-60 -65.5t-79 -52.5z" />
    <glyph glyph-name="uni0251" unicode="&#x251;" horiz-adv-x="665" 
d="M250 -14q-72 0 -119 31.5t-70.5 89t-23.5 135.5q0 87 30 151t86 98.5t135 34.5q32 0 58 -5.5t49 -16t43 -26.5l56 48l69 -11v-381q0 -31 10 -42.5t28 -11.5q10 0 19.5 2t19.5 5l12 -56q-22 -20 -54 -32.5t-70 -12.5q-26 0 -48 7.5t-38 26.5t-23 52h-4
q-22 -39 -63.5 -62.5t-101.5 -23.5zM305 83q26 0 48.5 13t36.5 40t14 70v195q-22 17 -46 24t-48 7q-38 0 -61.5 -21t-34 -61t-10.5 -98q0 -52 10 -90t32.5 -58.5t58.5 -20.5z" />
    <glyph glyph-name="uni0259" unicode="&#x259;" horiz-adv-x="572" 
d="M261 -14q-64 0 -113 22.5t-76.5 65t-27.5 104.5q0 26 3 51t9 48h313q-2 43 -18.5 73t-45.5 46t-70 16q-51 0 -86.5 -16.5t-64.5 -38.5l-47 56q35 46 95 79.5t141 33.5q88 0 146 -33.5t87 -92t29 -132.5q0 -91 -35.5 -154t-97.5 -95.5t-141 -32.5zM270 63q36 0 57 19.5
t31.5 51t11.5 65.5h-170q-2 -12 -3 -23.5t-1 -24.5q0 -43 19.5 -65.5t54.5 -22.5z" />
    <glyph glyph-name="uni0261" unicode="&#x261;" horiz-adv-x="640" 
d="M273 -230q-48 0 -86 7.5t-64.5 22.5t-40.5 35.5t-14 45.5q0 20 8.5 37.5t27 29t47.5 11.5q32 0 48 -14t16 -31q1 -10 -1 -23t-8 -32q13 -6 31.5 -9.5t39.5 -3.5q40 0 69 17t45 56.5t16 104.5v48h-3q-14 -21 -36.5 -37.5t-52.5 -26.5t-65 -10q-70 0 -117.5 28.5
t-71.5 84.5t-24 136q0 85 30.5 147.5t87.5 97t135 34.5q32 0 58.5 -5.5t49.5 -16t42 -26.5l57 48l69 -11v-449q0 -75 -20 -127t-52.5 -85.5t-71 -51.5t-78 -25t-71.5 -7zM306 95q28 0 50.5 12.5t36.5 40t14 69.5v184q-22 17 -46 24t-49 7q-39 0 -63 -20.5t-34.5 -59.5
t-10.5 -94q0 -49 10.5 -86t33 -57t58.5 -20z" />
    </font>
</defs>
</svg>
